<svg width="48" height="48" viewBox="0 0 48 48" fill="none" xmlns="http://www.w3.org/2000/svg">
<path d="M36 0C42.6274 0 48 5.37258 48 12V36C48 42.6274 42.6274 48 36 48H12C5.37258 48 0 42.6274 0 36V12C0 5.37258 5.37258 0 12 0H36Z" fill="#FCF8FF"/>
<path d="M36 0C42.6274 0 48 5.37258 48 12V36C48 42.6274 42.6274 48 36 48H12C5.37258 48 0 42.6274 0 36V12C0 5.37258 5.37258 0 12 0H36Z" stroke="#E5E7EB"/>
<path d="M20.25 13.5C20.9414 13.5 21.5 14.0586 21.5 14.75V16H26.5V14.75C26.5 14.0586 27.0586 13.5 27.75 13.5C28.4414 13.5 29 14.0586 29 14.75V16H30.875C31.9102 16 32.75 16.8398 32.75 17.875V19.75H15.25V17.875C15.25 16.8398 16.0898 16 17.125 16H19V14.75C19 14.0586 19.5586 13.5 20.25 13.5ZM15.25 21H32.75V31.625C32.75 32.6602 31.9102 33.5 30.875 33.5H17.125C16.0898 33.5 15.25 32.6602 15.25 31.625V21ZM28.1016 25.4141C28.4688 25.0469 28.4688 24.4531 28.1016 24.0898C27.7344 23.7266 27.1406 23.7227 26.7773 24.0898L23.0664 27.8008L21.2305 25.9648C20.8633 25.5977 20.2695 25.5977 19.9062 25.9648C19.543 26.332 19.5391 26.9258 19.9062 27.2891L22.4062 29.7891C22.7734 30.1562 23.3672 30.1562 23.7305 29.7891L28.1016 25.4141Z" fill="#FFB300"/>
</svg>
