<svg width="40" height="40" viewBox="0 0 40 40" fill="none" xmlns="http://www.w3.org/2000/svg">
<path d="M32 0C36.4183 0 40 3.58172 40 8V32C40 36.4183 36.4183 40 32 40H8C3.58172 40 0 36.4183 0 32V8C0 3.58172 3.58172 0 8 0H32Z" fill="#EFF6FF"/>
<path d="M32 0C36.4183 0 40 3.58172 40 8V32C40 36.4183 36.4183 40 32 40H8C3.58172 40 0 36.4183 0 32V8C0 3.58172 3.58172 0 8 0H32Z" stroke="#E5E7EB"/>
<path d="M17.75 12.75C17.75 12.3344 17.4156 12 17 12C16.5844 12 16.25 12.3344 16.25 12.75V14H15C13.8969 14 13 14.8969 13 16V16.5V18V26C13 27.1031 13.8969 28 15 28H25C26.1031 28 27 27.1031 27 26V18V16.5V16C27 14.8969 26.1031 14 25 14H23.75V12.75C23.75 12.3344 23.4156 12 23 12C22.5844 12 22.25 12.3344 22.25 12.75V14H17.75V12.75ZM14.5 18H25.5V26C25.5 26.275 25.275 26.5 25 26.5H15C14.725 26.5 14.5 26.275 14.5 26V18Z" fill="#2563EB"/>
</svg>
