<svg width="48" height="48" viewBox="0 0 48 48" fill="none" xmlns="http://www.w3.org/2000/svg">
<path d="M0 12C0 5.37258 5.37258 0 12 0H36C42.6274 0 48 5.37258 48 12V36C48 42.6274 42.6274 48 36 48H12C5.37258 48 0 42.6274 0 36V12Z" fill="#3B82F6"/>
<path d="M20.7973 15.1147C20.5266 14.4608 19.8129 14.1127 19.1309 14.299L16.0371 15.1428C15.4254 15.3115 15 15.867 15 16.4998C15 25.1975 22.0523 32.2498 30.75 32.2498C31.3828 32.2498 31.9383 31.8244 32.107 31.2127L32.9508 28.119C33.1371 27.4369 32.7891 26.7233 32.1352 26.4526L28.7602 25.0463C28.1871 24.8072 27.5227 24.9725 27.1324 25.4541L25.7121 27.1873C23.2371 26.0166 21.2332 24.0127 20.0625 21.5377L21.7957 20.1209C22.2773 19.7272 22.4426 19.0662 22.2035 18.4932L20.7973 15.1182V15.1147Z" fill="white"/>
</svg>
