<svg width="24" height="40" viewBox="0 0 24 40" fill="none" xmlns="http://www.w3.org/2000/svg">
<path d="M0 11.8906C0 5.32362 5.32361 0 11.8906 0C18.4576 0 23.7812 5.32361 23.7812 11.8906V28.1094C23.7812 34.6764 18.4576 40 11.8906 40C5.32361 40 0 34.6764 0 28.1094V11.8906Z" fill="#EA580C" fill-opacity="0.1"/>
<path d="M6.39062 11C7.05367 11 7.68955 11.2634 8.15839 11.7322C8.62723 12.2011 8.89062 12.837 8.89062 13.5C8.89062 14.163 8.62723 14.7989 8.15839 15.2678C7.68955 15.7366 7.05367 16 6.39062 16C5.72758 16 5.0917 15.7366 4.62286 15.2678C4.15402 14.7989 3.89062 14.163 3.89062 13.5C3.89062 12.837 4.15402 12.2011 4.62286 11.7322C5.0917 11.2634 5.72758 11 6.39062 11ZM17.8906 11C18.5537 11 19.1896 11.2634 19.6584 11.7322C20.1272 12.2011 20.3906 12.837 20.3906 13.5C20.3906 14.163 20.1272 14.7989 19.6584 15.2678C19.1896 15.7366 18.5537 16 17.8906 16C17.2276 16 16.5917 15.7366 16.1229 15.2678C15.654 14.7989 15.3906 14.163 15.3906 13.5C15.3906 12.837 15.654 12.2011 16.1229 11.7322C16.5917 11.2634 17.2276 11 17.8906 11ZM1.89062 20.3344C1.89062 18.4938 3.38437 17 5.225 17H6.55937C7.05625 17 7.52812 17.1094 7.95312 17.3031C7.9125 17.5281 7.89375 17.7625 7.89375 18C7.89375 19.1938 8.41875 20.2656 9.24687 21C9.24062 21 9.23438 21 9.225 21H2.55625C2.19062 21 1.89062 20.7 1.89062 20.3344ZM14.5562 21C14.55 21 14.5437 21 14.5344 21C15.3656 20.2656 15.8875 19.1938 15.8875 18C15.8875 17.7625 15.8656 17.5312 15.8281 17.3031C16.2531 17.1062 16.725 17 17.2219 17H18.5562C20.3969 17 21.8906 18.4938 21.8906 20.3344C21.8906 20.7031 21.5906 21 21.225 21H14.5562ZM8.89062 18C8.89062 17.2044 9.2067 16.4413 9.7693 15.8787C10.3319 15.3161 11.095 15 11.8906 15C12.6863 15 13.4493 15.3161 14.0119 15.8787C14.5746 16.4413 14.8906 17.2044 14.8906 18C14.8906 18.7956 14.5746 19.5587 14.0119 20.1213C13.4493 20.6839 12.6863 21 11.8906 21C11.095 21 10.3319 20.6839 9.7693 20.1213C9.2067 19.5587 8.89062 18.7956 8.89062 18ZM5.89062 26.1656C5.89062 23.8656 7.75625 22 10.0562 22H13.725C16.025 22 17.8906 23.8656 17.8906 26.1656C17.8906 26.625 17.5187 27 17.0562 27H6.725C6.26562 27 5.89062 26.6281 5.89062 26.1656Z" fill="#EA580C"/>
</svg>
