<svg width="25" height="40" viewBox="0 0 25 40" fill="none" xmlns="http://www.w3.org/2000/svg">
<path d="M0 12.1094C0 5.42155 5.42155 0 12.1094 0C18.7972 0 24.2188 5.42155 24.2188 12.1094V27.8906C24.2188 34.5784 18.7972 40 12.1094 40C5.42155 40 0 34.5784 0 27.8906V12.1094Z" fill="#EA580C" fill-opacity="0.1"/>
<path d="M17.1094 12.5C17.1094 11.6719 16.4375 11 15.6094 11H12.6094C11.7812 11 11.1094 11.6719 11.1094 12.5V14H9.10938V11.75C9.10938 11.3344 8.775 11 8.35938 11C7.94375 11 7.60938 11.3344 7.60938 11.75V14H5.60938V11.75C5.60938 11.3344 5.275 11 4.85938 11C4.44375 11 4.10938 11.3344 4.10938 11.75V14H3.60938C2.78125 14 2.10938 14.6719 2.10938 15.5V18.5V25.5C2.10938 26.3281 2.78125 27 3.60938 27H11.6094H12.6094H15.6094H20.6094C21.4375 27 22.1094 26.3281 22.1094 25.5V18.5C22.1094 17.6719 21.4375 17 20.6094 17H17.1094V12.5ZM20.1094 22.5V23.5C20.1094 23.775 19.8844 24 19.6094 24H18.6094C18.3344 24 18.1094 23.775 18.1094 23.5V22.5C18.1094 22.225 18.3344 22 18.6094 22H19.6094C19.8844 22 20.1094 22.225 20.1094 22.5ZM9.60938 24H8.60938C8.33437 24 8.10938 23.775 8.10938 23.5V22.5C8.10938 22.225 8.33437 22 8.60938 22H9.60938C9.88438 22 10.1094 22.225 10.1094 22.5V23.5C10.1094 23.775 9.88438 24 9.60938 24ZM6.10938 23.5C6.10938 23.775 5.88438 24 5.60938 24H4.60938C4.33437 24 4.10938 23.775 4.10938 23.5V22.5C4.10938 22.225 4.33437 22 4.60938 22H5.60938C5.88438 22 6.10938 22.225 6.10938 22.5V23.5ZM19.6094 19C19.8844 19 20.1094 19.225 20.1094 19.5V20.5C20.1094 20.775 19.8844 21 19.6094 21H18.6094C18.3344 21 18.1094 20.775 18.1094 20.5V19.5C18.1094 19.225 18.3344 19 18.6094 19H19.6094ZM10.1094 16.5V17.5C10.1094 17.775 9.88438 18 9.60938 18H8.60938C8.33437 18 8.10938 17.775 8.10938 17.5V16.5C8.10938 16.225 8.33437 16 8.60938 16H9.60938C9.88438 16 10.1094 16.225 10.1094 16.5ZM5.60938 16C5.88438 16 6.10938 16.225 6.10938 16.5V17.5C6.10938 17.775 5.88438 18 5.60938 18H4.60938C4.33437 18 4.10938 17.775 4.10938 17.5V16.5C4.10938 16.225 4.33437 16 4.60938 16H5.60938ZM10.1094 20.5C10.1094 20.775 9.88438 21 9.60938 21H8.60938C8.33437 21 8.10938 20.775 8.10938 20.5V19.5C8.10938 19.225 8.33437 19 8.60938 19H9.60938C9.88438 19 10.1094 19.225 10.1094 19.5V20.5ZM5.60938 21H4.60938C4.33437 21 4.10938 20.775 4.10938 20.5V19.5C4.10938 19.225 4.33437 19 4.60938 19H5.60938C5.88438 19 6.10938 19.225 6.10938 19.5V20.5C6.10938 20.775 5.88438 21 5.60938 21ZM15.1094 19.5V20.5C15.1094 20.775 14.8844 21 14.6094 21H13.6094C13.3344 21 13.1094 20.775 13.1094 20.5V19.5C13.1094 19.225 13.3344 19 13.6094 19H14.6094C14.8844 19 15.1094 19.225 15.1094 19.5ZM14.6094 13C14.8844 13 15.1094 13.225 15.1094 13.5V14.5C15.1094 14.775 14.8844 15 14.6094 15H13.6094C13.3344 15 13.1094 14.775 13.1094 14.5V13.5C13.1094 13.225 13.3344 13 13.6094 13H14.6094ZM15.1094 16.5V17.5C15.1094 17.775 14.8844 18 14.6094 18H13.6094C13.3344 18 13.1094 17.775 13.1094 17.5V16.5C13.1094 16.225 13.3344 16 13.6094 16H14.6094C14.8844 16 15.1094 16.225 15.1094 16.5Z" fill="#EA580C"/>
</svg>
