<svg width="48" height="48" viewBox="0 0 48 48" fill="none" xmlns="http://www.w3.org/2000/svg">
<path d="M0 12C0 5.37258 5.37258 0 12 0H36C42.6274 0 48 5.37258 48 12V36C48 42.6274 42.6274 48 36 48H12C5.37258 48 0 42.6274 0 36V12Z" fill="#A855F7"/>
<path d="M16.6875 16.5C15.7559 16.5 15 17.2559 15 18.1875C15 18.7184 15.2496 19.2176 15.675 19.5375L23.325 25.275C23.7258 25.5738 24.2742 25.5738 24.675 25.275L32.325 19.5375C32.7504 19.2176 33 18.7184 33 18.1875C33 17.2559 32.2441 16.5 31.3125 16.5H16.6875ZM15 20.4375V27.75C15 28.991 16.009 30 17.25 30H30.75C31.991 30 33 28.991 33 27.75V20.4375L25.35 26.175C24.5484 26.7762 23.4516 26.7762 22.65 26.175L15 20.4375Z" fill="white"/>
</svg>
