<svg width="24" height="40" viewBox="0 0 24 40" fill="none" xmlns="http://www.w3.org/2000/svg">
<path d="M0 11.7891C0 5.27814 5.27814 0 11.7891 0C18.3 0 23.5781 5.27814 23.5781 11.7891V28.2109C23.5781 34.7219 18.3 40 11.7891 40C5.27814 40 0 34.7219 0 28.2109V11.7891Z" fill="#DC2626" fill-opacity="0.1"/>
<path d="M12.6843 11.5625C12.5187 11.2188 12.1687 11 11.7843 11C11.3999 11 11.053 11.2188 10.8843 11.5625L8.87491 15.6969L4.38741 16.3594C4.01241 16.4156 3.69991 16.6781 3.58428 17.0375C3.46866 17.3969 3.56241 17.7937 3.83116 18.0594L7.08741 21.2812L6.31866 25.8344C6.25616 26.2094 6.41241 26.5906 6.72178 26.8125C7.03116 27.0344 7.44053 27.0625 7.77803 26.8844L11.7874 24.7437L15.7968 26.8844C16.1343 27.0625 16.5437 27.0375 16.853 26.8125C17.1624 26.5875 17.3187 26.2094 17.2562 25.8344L16.4843 21.2812L19.7405 18.0594C20.0093 17.7937 20.1062 17.3969 19.9874 17.0375C19.8687 16.6781 19.5593 16.4156 19.1843 16.3594L14.6937 15.6969L12.6843 11.5625Z" fill="#DC2626"/>
</svg>
