<svg width="63" height="104" viewBox="0 0 63 104" fill="none" xmlns="http://www.w3.org/2000/svg">
<path d="M0 12C0 5.37259 5.37258 0 12 0H50.75C57.3774 0 62.75 5.37258 62.75 12V92C62.75 98.6274 57.3774 104 50.75 104H12C5.37258 104 0 98.6274 0 92V12Z" fill="#EFF6FF"/>
<path d="M7.375 28C7.375 21.3726 12.7476 16 19.375 16H43.375C50.0024 16 55.375 21.3726 55.375 28V52C55.375 58.6274 50.0024 64 43.375 64H19.375C12.7476 64 7.375 58.6274 7.375 52V28Z" fill="#2563EB"/>
<path d="M36.0288 40.75L36.5843 37.1305H33.1112V34.7816C33.1112 33.7914 33.5964 32.8262 35.1519 32.8262H36.7308V29.7445C36.7308 29.7445 35.2979 29.5 33.928 29.5C31.0679 29.5 29.1983 31.2336 29.1983 34.3719V37.1305H26.019V40.75H29.1983V49.5H33.1112V40.75H36.0288Z" fill="white"/>
<path d="M4.22443 84V75.2727H9.63636V76.4062H5.54119V79.0653H9.24858V80.1946H5.54119V84H4.22443ZM13.0348 84.1449C12.62 84.1449 12.245 84.0682 11.9098 83.9148C11.5746 83.7585 11.3089 83.5327 11.1129 83.2372C10.9197 82.9418 10.8232 82.5795 10.8232 82.1506C10.8232 81.7812 10.8942 81.4773 11.0362 81.2386C11.1783 81 11.37 80.8111 11.6115 80.6719C11.853 80.5327 12.1229 80.4276 12.4212 80.3565C12.7195 80.2855 13.0234 80.2315 13.3331 80.1946C13.7251 80.1491 14.0433 80.1122 14.2876 80.0838C14.532 80.0526 14.7095 80.0028 14.8203 79.9347C14.9311 79.8665 14.9865 79.7557 14.9865 79.6023V79.5724C14.9865 79.2003 14.8814 78.9119 14.6712 78.7074C14.4638 78.5028 14.1541 78.4006 13.7422 78.4006C13.3132 78.4006 12.9751 78.4957 12.728 78.6861C12.4837 78.8736 12.3146 79.0824 12.2209 79.3125L11.0234 79.0398C11.1655 78.642 11.3729 78.321 11.6456 78.0767C11.9212 77.8295 12.2379 77.6506 12.5959 77.5398C12.9538 77.4261 13.3303 77.3693 13.7251 77.3693C13.9865 77.3693 14.2635 77.4006 14.5561 77.4631C14.8516 77.5227 15.1271 77.6335 15.3828 77.7955C15.6413 77.9574 15.853 78.1889 16.0178 78.4901C16.1825 78.7884 16.2649 79.1761 16.2649 79.6534V84H15.0206V83.1051H14.9695C14.8871 83.2699 14.7635 83.4318 14.5987 83.5909C14.4339 83.75 14.2223 83.8821 13.9638 83.9872C13.7053 84.0923 13.3956 84.1449 13.0348 84.1449ZM13.3118 83.1222C13.6641 83.1222 13.9652 83.0526 14.2152 82.9134C14.468 82.7741 14.6598 82.5923 14.7905 82.3679C14.924 82.1406 14.9908 81.8977 14.9908 81.6392V80.7955C14.9453 80.8409 14.8572 80.8835 14.7266 80.9233C14.5987 80.9602 14.4524 80.9929 14.2876 81.0213C14.1229 81.0469 13.9624 81.071 13.8061 81.0938C13.6499 81.1136 13.5192 81.1307 13.4141 81.1449C13.1669 81.1761 12.9411 81.2287 12.7365 81.3026C12.5348 81.3764 12.3729 81.483 12.2507 81.6222C12.1314 81.7585 12.0717 81.9403 12.0717 82.1676C12.0717 82.483 12.1882 82.7216 12.4212 82.8835C12.6541 83.0426 12.951 83.1222 13.3118 83.1222ZM20.7191 84.1321C20.0856 84.1321 19.5401 83.9886 19.0827 83.7017C18.6282 83.4119 18.2788 83.0128 18.0344 82.5043C17.7901 81.9957 17.668 81.4134 17.668 80.7571C17.668 80.0923 17.793 79.5057 18.043 78.9972C18.293 78.4858 18.6452 78.0866 19.0998 77.7997C19.5543 77.5128 20.0898 77.3693 20.7063 77.3693C21.2035 77.3693 21.6467 77.4616 22.0359 77.6463C22.4251 77.8281 22.739 78.0838 22.9776 78.4134C23.2191 78.7429 23.3626 79.1278 23.408 79.5682H22.168C22.0998 79.2614 21.9435 78.9972 21.6992 78.7756C21.4577 78.554 21.1339 78.4432 20.7276 78.4432C20.3725 78.4432 20.0614 78.5369 19.7944 78.7244C19.5302 78.9091 19.3242 79.1733 19.1765 79.517C19.0288 79.858 18.9549 80.2614 18.9549 80.7273C18.9549 81.2045 19.0273 81.6165 19.1722 81.9631C19.3171 82.3097 19.5217 82.5781 19.7859 82.7685C20.0529 82.9588 20.3668 83.054 20.7276 83.054C20.9691 83.054 21.1879 83.0099 21.3839 82.9219C21.5827 82.831 21.7489 82.7017 21.8825 82.5341C22.0188 82.3665 22.114 82.1648 22.168 81.929H23.408C23.3626 82.3523 23.2248 82.7301 22.9947 83.0625C22.7646 83.3949 22.4563 83.6562 22.07 83.8466C21.6864 84.0369 21.2362 84.1321 20.7191 84.1321ZM27.5916 84.1321C26.9467 84.1321 26.3913 83.9943 25.9254 83.7188C25.4624 83.4403 25.1044 83.0497 24.8516 82.5469C24.6016 82.0412 24.4766 81.4489 24.4766 80.7699C24.4766 80.0994 24.6016 79.5085 24.8516 78.9972C25.1044 78.4858 25.4567 78.0866 25.9084 77.7997C26.3629 77.5128 26.8942 77.3693 27.5021 77.3693C27.8714 77.3693 28.2294 77.4304 28.576 77.5526C28.9226 77.6747 29.2337 77.8665 29.5092 78.1278C29.7848 78.3892 30.0021 78.7287 30.1612 79.1463C30.3203 79.5611 30.3999 80.0653 30.3999 80.6591V81.1108H25.1967V80.1562H29.1513C29.1513 79.821 29.0831 79.5241 28.9467 79.2656C28.8104 79.0043 28.6186 78.7983 28.3714 78.6477C28.1271 78.4972 27.8402 78.4219 27.5107 78.4219C27.1527 78.4219 26.8402 78.5099 26.5732 78.6861C26.3089 78.8594 26.1044 79.0866 25.9595 79.3679C25.8175 79.6463 25.7464 79.9489 25.7464 80.2756V81.0213C25.7464 81.4588 25.8232 81.831 25.9766 82.1378C26.1328 82.4446 26.3501 82.679 26.6286 82.8409C26.907 83 27.2322 83.0795 27.6044 83.0795C27.8459 83.0795 28.0661 83.0455 28.2649 82.9773C28.4638 82.9062 28.6357 82.8011 28.7805 82.6619C28.9254 82.5227 29.0362 82.3509 29.1129 82.1463L30.3189 82.3636C30.2223 82.7187 30.049 83.0298 29.799 83.2969C29.5518 83.5611 29.2408 83.767 28.8658 83.9148C28.4936 84.0597 28.0689 84.1321 27.5916 84.1321ZM31.9158 84V75.2727H33.19V78.5156H33.2667C33.3406 78.3793 33.4471 78.2216 33.5863 78.0426C33.7255 77.8636 33.9187 77.7074 34.1658 77.5739C34.413 77.4375 34.7397 77.3693 35.146 77.3693C35.6744 77.3693 36.146 77.5028 36.5607 77.7699C36.9755 78.0369 37.3008 78.4219 37.5366 78.9247C37.7752 79.4276 37.8945 80.0327 37.8945 80.7401C37.8945 81.4474 37.7766 82.054 37.5408 82.5597C37.305 83.0625 36.9812 83.4503 36.5692 83.723C36.1573 83.9929 35.6871 84.1278 35.1587 84.1278C34.761 84.1278 34.4357 84.0611 34.1829 83.9276C33.9329 83.794 33.7369 83.6378 33.5948 83.4588C33.4528 83.2798 33.3434 83.1207 33.2667 82.9815H33.1602V84H31.9158ZM33.1644 80.7273C33.1644 81.1875 33.2312 81.5909 33.3647 81.9375C33.4982 82.2841 33.6914 82.5554 33.9442 82.7514C34.1971 82.9446 34.5067 83.0412 34.8732 83.0412C35.2539 83.0412 35.5721 82.9403 35.8278 82.7386C36.0835 82.5341 36.2766 82.2571 36.4073 81.9077C36.5408 81.5582 36.6076 81.1648 36.6076 80.7273C36.6076 80.2955 36.5423 79.9077 36.4116 79.5639C36.2837 79.2202 36.0906 78.9489 35.832 78.75C35.5763 78.5511 35.2567 78.4517 34.8732 78.4517C34.5039 78.4517 34.1914 78.5469 33.9357 78.7372C33.6829 78.9276 33.4911 79.1932 33.3604 79.5341C33.2298 79.875 33.1644 80.2727 33.1644 80.7273ZM42.0824 84.1321C41.4688 84.1321 40.9332 83.9915 40.4759 83.7102C40.0185 83.429 39.6634 83.0355 39.4105 82.5298C39.1577 82.0241 39.0312 81.4332 39.0312 80.7571C39.0312 80.0781 39.1577 79.4844 39.4105 78.9759C39.6634 78.4673 40.0185 78.0724 40.4759 77.7912C40.9332 77.5099 41.4688 77.3693 42.0824 77.3693C42.696 77.3693 43.2315 77.5099 43.6889 77.7912C44.1463 78.0724 44.5014 78.4673 44.7543 78.9759C45.0071 79.4844 45.1335 80.0781 45.1335 80.7571C45.1335 81.4332 45.0071 82.0241 44.7543 82.5298C44.5014 83.0355 44.1463 83.429 43.6889 83.7102C43.2315 83.9915 42.696 84.1321 42.0824 84.1321ZM42.0866 83.0625C42.4844 83.0625 42.8139 82.9574 43.0753 82.7472C43.3366 82.5369 43.5298 82.2571 43.6548 81.9077C43.7827 81.5582 43.8466 81.1733 43.8466 80.7528C43.8466 80.3352 43.7827 79.9517 43.6548 79.6023C43.5298 79.25 43.3366 78.9673 43.0753 78.7543C42.8139 78.5412 42.4844 78.4347 42.0866 78.4347C41.6861 78.4347 41.3537 78.5412 41.0895 78.7543C40.8281 78.9673 40.6335 79.25 40.5057 79.6023C40.3807 79.9517 40.3182 80.3352 40.3182 80.7528C40.3182 81.1733 40.3807 81.5582 40.5057 81.9077C40.6335 82.2571 40.8281 82.5369 41.0895 82.7472C41.3537 82.9574 41.6861 83.0625 42.0866 83.0625ZM49.3129 84.1321C48.6992 84.1321 48.1637 83.9915 47.7063 83.7102C47.2489 83.429 46.8938 83.0355 46.641 82.5298C46.3881 82.0241 46.2617 81.4332 46.2617 80.7571C46.2617 80.0781 46.3881 79.4844 46.641 78.9759C46.8938 78.4673 47.2489 78.0724 47.7063 77.7912C48.1637 77.5099 48.6992 77.3693 49.3129 77.3693C49.9265 77.3693 50.462 77.5099 50.9194 77.7912C51.3768 78.0724 51.7319 78.4673 51.9847 78.9759C52.2376 79.4844 52.364 80.0781 52.364 80.7571C52.364 81.4332 52.2376 82.0241 51.9847 82.5298C51.7319 83.0355 51.3768 83.429 50.9194 83.7102C50.462 83.9915 49.9265 84.1321 49.3129 84.1321ZM49.3171 83.0625C49.7148 83.0625 50.0444 82.9574 50.3058 82.7472C50.5671 82.5369 50.7603 82.2571 50.8853 81.9077C51.0131 81.5582 51.0771 81.1733 51.0771 80.7528C51.0771 80.3352 51.0131 79.9517 50.8853 79.6023C50.7603 79.25 50.5671 78.9673 50.3058 78.7543C50.0444 78.5412 49.7148 78.4347 49.3171 78.4347C48.9165 78.4347 48.5842 78.5412 48.32 78.7543C48.0586 78.9673 47.864 79.25 47.7362 79.6023C47.6112 79.9517 47.5487 80.3352 47.5487 80.7528C47.5487 81.1733 47.6112 81.5582 47.7362 81.9077C47.864 82.2571 48.0586 82.5369 48.32 82.7472C48.5842 82.9574 48.9165 83.0625 49.3171 83.0625ZM54.9581 81.7798L54.9496 80.2244H55.1712L57.7791 77.4545H59.3047L56.3303 80.608H56.13L54.9581 81.7798ZM53.7862 84V75.2727H55.0604V84H53.7862ZM57.9197 84L55.576 80.8892L56.4538 79.9986L59.4837 84H57.9197Z" fill="#374151"/>
</svg>
