<svg width="101" height="90" viewBox="0 0 101 90" fill="none" xmlns="http://www.w3.org/2000/svg">
<g filter="url(#filter0_dd_104_399)">
<path d="M6 18C6 9.16344 13.1634 2 22 2H78.75C87.5866 2 94.75 9.16344 94.75 18V74C94.75 82.8366 87.5866 90 78.75 90H22C13.1634 90 6 82.8366 6 74V18Z" fill="url(#paint0_linear_104_399)"/>
<path d="M62 33C62 26.5781 56.7969 21.375 50.375 21.375C43.9531 21.375 38.75 26.5781 38.75 33C38.75 38.8022 43.0011 43.6116 48.5586 44.4844V36.3605H45.6055V33H48.5586V30.4388C48.5586 27.5255 50.293 25.9162 52.9494 25.9162C54.2216 25.9162 55.5519 26.1431 55.5519 26.1431V29.0025H54.0856C52.6419 29.0025 52.1914 29.8988 52.1914 30.818V33H55.4155L54.8998 36.3605H52.1914V44.4844C57.7489 43.6116 62 38.8022 62 33Z" fill="white"/>
<path d="M22.9135 70V61.2727H28.5044V62.598H24.4945V64.9673H28.1209V66.2926H24.4945V70H22.9135ZM31.7015 70.1321C31.2868 70.1321 30.9132 70.0582 30.5808 69.9105C30.2512 69.7599 29.9899 69.5384 29.7967 69.2457C29.6064 68.9531 29.5112 68.5923 29.5112 68.1634C29.5112 67.794 29.5794 67.4886 29.7157 67.2472C29.8521 67.0057 30.0382 66.8125 30.274 66.6676C30.5098 66.5227 30.7754 66.4134 31.0708 66.3395C31.3691 66.2628 31.6774 66.2074 31.9956 66.1733C32.3791 66.1335 32.6902 66.098 32.9288 66.0668C33.1674 66.0327 33.3407 65.9815 33.4487 65.9134C33.5595 65.8423 33.6149 65.733 33.6149 65.5852V65.5597C33.6149 65.2386 33.5197 64.9901 33.3294 64.8139C33.139 64.6378 32.8649 64.5497 32.5069 64.5497C32.1291 64.5497 31.8294 64.6321 31.6078 64.7969C31.389 64.9616 31.2413 65.1562 31.1646 65.3807L29.7243 65.1761C29.8379 64.7784 30.0254 64.446 30.2868 64.179C30.5481 63.9091 30.8677 63.7074 31.2456 63.5739C31.6234 63.4375 32.041 63.3693 32.4984 63.3693C32.8137 63.3693 33.1277 63.4062 33.4402 63.4801C33.7527 63.554 34.0382 63.6761 34.2967 63.8466C34.5552 64.0142 34.7626 64.2429 34.9189 64.5327C35.0779 64.8224 35.1575 65.1847 35.1575 65.6193V70H33.6745V69.1009H33.6234C33.5297 69.2827 33.3975 69.4531 33.2271 69.6122C33.0595 69.7685 32.8478 69.8949 32.5922 69.9915C32.3393 70.0852 32.0424 70.1321 31.7015 70.1321ZM32.1021 68.9986C32.4118 68.9986 32.6802 68.9375 32.9075 68.8153C33.1348 68.6903 33.3095 68.5256 33.4316 68.321C33.5566 68.1165 33.6191 67.8935 33.6191 67.652V66.8807C33.5708 66.9205 33.4885 66.9574 33.372 66.9915C33.2583 67.0256 33.1305 67.0554 32.9885 67.081C32.8464 67.1065 32.7058 67.1293 32.5666 67.1491C32.4274 67.169 32.3066 67.1861 32.2044 67.2003C31.9743 67.2315 31.7683 67.2827 31.5865 67.3537C31.4047 67.4247 31.2612 67.5241 31.1561 67.652C31.051 67.777 30.9984 67.9389 30.9984 68.1378C30.9984 68.4219 31.1021 68.6364 31.3095 68.7812C31.5169 68.9261 31.7811 68.9986 32.1021 68.9986ZM39.5637 70.1278C38.9103 70.1278 38.3493 69.9844 37.8805 69.6974C37.4146 69.4105 37.0552 69.0142 36.8024 68.5085C36.5524 68 36.4274 67.4148 36.4274 66.7528C36.4274 66.0881 36.5552 65.5014 36.8109 64.9929C37.0666 64.4815 37.4274 64.0838 37.8933 63.7997C38.362 63.5128 38.916 63.3693 39.5552 63.3693C40.0865 63.3693 40.5566 63.4673 40.9657 63.6634C41.3777 63.8565 41.7058 64.1307 41.9501 64.4858C42.1944 64.8381 42.3336 65.25 42.3677 65.7216H40.8933C40.8336 65.4062 40.6916 65.1435 40.4672 64.9332C40.2456 64.7202 39.9487 64.6136 39.5765 64.6136C39.2612 64.6136 38.9842 64.6989 38.7456 64.8693C38.5069 65.0369 38.3208 65.2784 38.1873 65.5938C38.0566 65.9091 37.9913 66.2869 37.9913 66.7273C37.9913 67.1733 38.0566 67.5568 38.1873 67.8778C38.318 68.196 38.5012 68.4418 38.737 68.6151C38.9757 68.7855 39.2555 68.8707 39.5765 68.8707C39.8038 68.8707 40.0069 68.8281 40.1859 68.7429C40.3677 68.6548 40.5197 68.5284 40.6419 68.3636C40.764 68.1989 40.8478 67.9986 40.8933 67.7628H42.3677C42.3308 68.2259 42.1944 68.6364 41.9586 68.9943C41.7228 69.3494 41.4018 69.6278 40.9956 69.8295C40.5893 70.0284 40.112 70.1278 39.5637 70.1278ZM46.5321 70.1278C45.8759 70.1278 45.3091 69.9915 44.8319 69.7188C44.3574 69.4432 43.9924 69.054 43.7367 68.5511C43.481 68.0455 43.3532 67.4503 43.3532 66.7656C43.3532 66.0923 43.481 65.5014 43.7367 64.9929C43.9952 64.4815 44.356 64.0838 44.8191 63.7997C45.2821 63.5128 45.8262 63.3693 46.4512 63.3693C46.8546 63.3693 47.2353 63.4347 47.5932 63.5653C47.954 63.6932 48.2722 63.892 48.5478 64.1619C48.8262 64.4318 49.0449 64.7756 49.204 65.1932C49.3631 65.608 49.4426 66.1023 49.4426 66.6761V67.1491H44.0776V66.1094H47.964C47.9611 65.8139 47.8972 65.5511 47.7722 65.321C47.6472 65.0881 47.4725 64.9048 47.248 64.7713C47.0265 64.6378 46.7679 64.571 46.4725 64.571C46.1571 64.571 45.8801 64.6477 45.6415 64.8011C45.4029 64.9517 45.2168 65.1506 45.0833 65.3977C44.9526 65.642 44.8858 65.9105 44.883 66.2031V67.1108C44.883 67.4915 44.9526 67.8182 45.0918 68.0909C45.231 68.3608 45.4256 68.5682 45.6756 68.7131C45.9256 68.8551 46.2182 68.9261 46.5534 68.9261C46.7779 68.9261 46.981 68.8949 47.1628 68.8324C47.3446 68.767 47.5023 68.6719 47.6358 68.5469C47.7694 68.4219 47.8702 68.267 47.9384 68.0824L49.3787 68.2443C49.2878 68.625 49.1145 68.9574 48.8588 69.2415C48.606 69.5227 48.2821 69.7415 47.8873 69.8977C47.4924 70.0511 47.0407 70.1278 46.5321 70.1278ZM50.8159 70V61.2727H52.3585V64.5369H52.4224C52.502 64.3778 52.6142 64.2088 52.7591 64.0298C52.9039 63.848 53.1 63.6932 53.3471 63.5653C53.5943 63.4347 53.9096 63.3693 54.2931 63.3693C54.7988 63.3693 55.2548 63.4986 55.661 63.7571C56.0701 64.0128 56.394 64.392 56.6326 64.8949C56.8741 65.3949 56.9949 66.0085 56.9949 66.7358C56.9949 67.4545 56.877 68.0653 56.6412 68.5682C56.4054 69.071 56.0843 69.4545 55.6781 69.7188C55.2718 69.983 54.8116 70.1151 54.2974 70.1151C53.9224 70.1151 53.6113 70.0526 53.3642 69.9276C53.117 69.8026 52.9181 69.652 52.7676 69.4759C52.6199 69.2969 52.5048 69.1278 52.4224 68.9688H52.3329V70H50.8159ZM52.3287 66.7273C52.3287 67.1506 52.3883 67.5213 52.5076 67.8395C52.6298 68.1577 52.8045 68.4062 53.0318 68.5852C53.2619 68.7614 53.5403 68.8494 53.867 68.8494C54.2079 68.8494 54.4934 68.7585 54.7235 68.5767C54.9537 68.392 55.127 68.1406 55.2434 67.8224C55.3627 67.5014 55.4224 67.1364 55.4224 66.7273C55.4224 66.321 55.3642 65.9602 55.2477 65.6449C55.1312 65.3295 54.9579 65.0824 54.7278 64.9034C54.4977 64.7244 54.2108 64.6349 53.867 64.6349C53.5375 64.6349 53.2576 64.7216 53.0275 64.8949C52.7974 65.0682 52.6227 65.3111 52.5034 65.6236C52.3869 65.9361 52.3287 66.304 52.3287 66.7273ZM61.1614 70.1278C60.5222 70.1278 59.9682 69.9872 59.4995 69.706C59.0307 69.4247 58.6671 69.0312 58.4086 68.5256C58.1529 68.0199 58.025 67.429 58.025 66.7528C58.025 66.0767 58.1529 65.4844 58.4086 64.9759C58.6671 64.4673 59.0307 64.0724 59.4995 63.7912C59.9682 63.5099 60.5222 63.3693 61.1614 63.3693C61.8006 63.3693 62.3546 63.5099 62.8233 63.7912C63.2921 64.0724 63.6543 64.4673 63.91 64.9759C64.1685 65.4844 64.2978 66.0767 64.2978 66.7528C64.2978 67.429 64.1685 68.0199 63.91 68.5256C63.6543 69.0312 63.2921 69.4247 62.8233 69.706C62.3546 69.9872 61.8006 70.1278 61.1614 70.1278ZM61.1699 68.892C61.5165 68.892 61.8063 68.7969 62.0392 68.6065C62.2722 68.4134 62.4455 68.1548 62.5591 67.831C62.6756 67.5071 62.7338 67.1463 62.7338 66.7486C62.7338 66.348 62.6756 65.9858 62.5591 65.6619C62.4455 65.3352 62.2722 65.0753 62.0392 64.8821C61.8063 64.6889 61.5165 64.5923 61.1699 64.5923C60.8148 64.5923 60.5194 64.6889 60.2836 64.8821C60.0506 65.0753 59.8759 65.3352 59.7594 65.6619C59.6458 65.9858 59.589 66.348 59.589 66.7486C59.589 67.1463 59.6458 67.5071 59.7594 67.831C59.8759 68.1548 60.0506 68.4134 60.2836 68.6065C60.5194 68.7969 60.8148 68.892 61.1699 68.892ZM68.4622 70.1278C67.823 70.1278 67.269 69.9872 66.8002 69.706C66.3315 69.4247 65.9679 69.0312 65.7093 68.5256C65.4537 68.0199 65.3258 67.429 65.3258 66.7528C65.3258 66.0767 65.4537 65.4844 65.7093 64.9759C65.9679 64.4673 66.3315 64.0724 66.8002 63.7912C67.269 63.5099 67.823 63.3693 68.4622 63.3693C69.1014 63.3693 69.6554 63.5099 70.1241 63.7912C70.5929 64.0724 70.9551 64.4673 71.2108 64.9759C71.4693 65.4844 71.5985 66.0767 71.5985 66.7528C71.5985 67.429 71.4693 68.0199 71.2108 68.5256C70.9551 69.0312 70.5929 69.4247 70.1241 69.706C69.6554 69.9872 69.1014 70.1278 68.4622 70.1278ZM68.4707 68.892C68.8173 68.892 69.1071 68.7969 69.34 68.6065C69.573 68.4134 69.7463 68.1548 69.8599 67.831C69.9764 67.5071 70.0346 67.1463 70.0346 66.7486C70.0346 66.348 69.9764 65.9858 69.8599 65.6619C69.7463 65.3352 69.573 65.0753 69.34 64.8821C69.1071 64.6889 68.8173 64.5923 68.4707 64.5923C68.1156 64.5923 67.8201 64.6889 67.5843 64.8821C67.3514 65.0753 67.1767 65.3352 67.0602 65.6619C66.9466 65.9858 66.8897 66.348 66.8897 66.7486C66.8897 67.1463 66.9466 67.5071 67.0602 67.831C67.1767 68.1548 67.3514 68.4134 67.5843 68.6065C67.8201 68.7969 68.1156 68.892 68.4707 68.892ZM74.3141 67.946L74.3098 66.0838H74.557L76.9093 63.4545H78.7118L75.8184 66.6761H75.4988L74.3141 67.946ZM72.9078 70V61.2727H74.4505V70H72.9078ZM77.0158 70L74.8851 67.0213L75.9249 65.9347L78.861 70H77.0158Z" fill="white"/>
</g>
<defs>
<filter id="filter0_dd_104_399" x="0" y="0" width="100.75" height="100" filterUnits="userSpaceOnUse" color-interpolation-filters="sRGB">
<feFlood flood-opacity="0" result="BackgroundImageFix"/>
<feColorMatrix in="SourceAlpha" type="matrix" values="0 0 0 0 0 0 0 0 0 0 0 0 0 0 0 0 0 0 127 0" result="hardAlpha"/>
<feOffset dy="4"/>
<feGaussianBlur stdDeviation="3"/>
<feColorMatrix type="matrix" values="0 0 0 0 0 0 0 0 0 0 0 0 0 0 0 0 0 0 0.1 0"/>
<feBlend mode="normal" in2="BackgroundImageFix" result="effect1_dropShadow_104_399"/>
<feColorMatrix in="SourceAlpha" type="matrix" values="0 0 0 0 0 0 0 0 0 0 0 0 0 0 0 0 0 0 127 0" result="hardAlpha"/>
<feOffset dy="2"/>
<feGaussianBlur stdDeviation="2"/>
<feColorMatrix type="matrix" values="0 0 0 0 0 0 0 0 0 0 0 0 0 0 0 0 0 0 0.1 0"/>
<feBlend mode="normal" in2="effect1_dropShadow_104_399" result="effect2_dropShadow_104_399"/>
<feBlend mode="normal" in="SourceGraphic" in2="effect2_dropShadow_104_399" result="shape"/>
</filter>
<linearGradient id="paint0_linear_104_399" x1="-25.3779" y1="33.1127" x2="36.8453" y2="95.8662" gradientUnits="userSpaceOnUse">
<stop stop-color="#3B82F6"/>
<stop offset="1" stop-color="#1D4ED8"/>
</linearGradient>
</defs>
</svg>
