<svg width="32" height="32" viewBox="0 0 32 32" fill="none" xmlns="http://www.w3.org/2000/svg">
<path d="M0 16C0 7.16344 7.16344 0 16 0C24.8366 0 32 7.16344 32 16C32 24.8366 24.8366 32 16 32C7.16344 32 0 24.8366 0 16Z" fill="#DC2626" fill-opacity="0.1"/>
<path d="M9.875 10.5C9.875 10.016 10.266 9.625 10.75 9.625H11.625C12.109 9.625 12.5 10.016 12.5 10.5V14.875V16.625V21C12.5 21.484 12.109 21.875 11.625 21.875H10.75C10.266 21.875 9.875 21.484 9.875 21V19.25H9C8.51602 19.25 8.125 18.859 8.125 18.375V16.625C7.64102 16.625 7.25 16.234 7.25 15.75C7.25 15.266 7.64102 14.875 8.125 14.875V13.125C8.125 12.641 8.51602 12.25 9 12.25H9.875V10.5ZM22.125 10.5V12.25H23C23.484 12.25 23.875 12.641 23.875 13.125V14.875C24.359 14.875 24.75 15.266 24.75 15.75C24.75 16.234 24.359 16.625 23.875 16.625V18.375C23.875 18.859 23.484 19.25 23 19.25H22.125V21C22.125 21.484 21.734 21.875 21.25 21.875H20.375C19.891 21.875 19.5 21.484 19.5 21V16.625V14.875V10.5C19.5 10.016 19.891 9.625 20.375 9.625H21.25C21.734 9.625 22.125 10.016 22.125 10.5ZM18.625 14.875V16.625H13.375V14.875H18.625Z" fill="#DC2626"/>
</svg>
