<svg width="375" height="318" viewBox="0 0 375 318" fill="none" xmlns="http://www.w3.org/2000/svg">
<path d="M375 318H0V0H375V318Z" fill="url(#paint0_linear_113_923)"/>
<path d="M375 318H0V0H375V318Z" stroke="#E5E7EB"/>
<path d="M355 270H20V48H355V270Z" stroke="#E5E7EB"/>
<path d="M187.5 48C209.591 48 227.5 65.9086 227.5 88C227.5 110.091 209.591 128 187.5 128C165.409 128 147.5 110.091 147.5 88C147.5 65.9086 165.409 48 187.5 48Z" fill="#FCF8FF"/>
<path d="M187.5 48C209.591 48 227.5 65.9086 227.5 88C227.5 110.091 209.591 128 187.5 128C165.409 128 147.5 110.091 147.5 88C147.5 65.9086 165.409 48 187.5 48Z" stroke="#E5E7EB"/>
<path d="M187.5 72.875C179.421 72.875 172.875 79.4211 172.875 87.5V90.3125C172.875 91.2477 172.123 92 171.188 92C170.252 92 169.5 91.2477 169.5 90.3125V87.5C169.5 77.5578 177.558 69.5 187.5 69.5C197.442 69.5 205.5 77.5578 205.5 87.5V97.632C205.5 101.049 202.73 103.82 199.305 103.82L191.55 103.812C190.966 104.818 189.877 105.5 188.625 105.5H186.375C184.512 105.5 183 103.988 183 102.125C183 100.262 184.512 98.75 186.375 98.75H188.625C189.877 98.75 190.966 99.432 191.55 100.438L199.312 100.445C200.866 100.445 202.125 99.1859 202.125 97.632V87.5C202.125 79.4211 195.579 72.875 187.5 72.875ZM179.625 84.125H180.75C181.995 84.125 183 85.1305 183 86.375V94.25C183 95.4945 181.995 96.5 180.75 96.5H179.625C177.143 96.5 175.125 94.482 175.125 92V88.625C175.125 86.143 177.143 84.125 179.625 84.125ZM195.375 84.125C197.857 84.125 199.875 86.143 199.875 88.625V92C199.875 94.482 197.857 96.5 195.375 96.5H194.25C193.005 96.5 192 95.4945 192 94.25V86.375C192 85.1305 193.005 84.125 194.25 84.125H195.375Z" fill="#2A58B7"/>
<path d="M111.652 158.234C111.503 157.716 111.293 157.258 111.023 156.86C110.753 156.455 110.423 156.114 110.032 155.837C109.649 155.553 109.209 155.337 108.711 155.188C108.221 155.038 107.678 154.964 107.081 154.964C105.966 154.964 104.986 155.241 104.141 155.795C103.303 156.349 102.65 157.155 102.181 158.213C101.712 159.264 101.478 160.55 101.478 162.07C101.478 163.589 101.709 164.882 102.17 165.947C102.632 167.013 103.285 167.826 104.13 168.387C104.976 168.941 105.973 169.218 107.124 169.218C108.168 169.218 109.059 169.033 109.798 168.664C110.544 168.288 111.112 167.759 111.503 167.077C111.9 166.395 112.099 165.589 112.099 164.658L113.037 164.797H107.412V161.324H116.542V164.072C116.542 165.99 116.137 167.638 115.327 169.016C114.517 170.386 113.402 171.445 111.982 172.19C110.562 172.929 108.935 173.298 107.103 173.298C105.057 173.298 103.26 172.847 101.712 171.945C100.164 171.036 98.9564 169.747 98.0899 168.078C97.2306 166.402 96.8009 164.413 96.8009 162.112C96.8009 160.344 97.0566 158.767 97.5679 157.382C98.0864 155.99 98.8108 154.811 99.7412 153.845C100.672 152.879 101.755 152.144 102.991 151.64C104.226 151.136 105.565 150.884 107.007 150.884C108.243 150.884 109.393 151.065 110.459 151.427C111.524 151.782 112.468 152.286 113.292 152.94C114.123 153.593 114.802 154.371 115.327 155.273C115.853 156.168 116.19 157.155 116.339 158.234H111.652ZM127.379 173.32C125.696 173.32 124.247 172.979 123.032 172.297C121.825 171.608 120.894 170.635 120.241 169.378C119.588 168.114 119.261 166.619 119.261 164.893C119.261 163.21 119.588 161.732 120.241 160.461C120.894 159.19 121.814 158.199 123 157.489C124.193 156.778 125.593 156.423 127.198 156.423C128.277 156.423 129.282 156.597 130.213 156.945C131.15 157.286 131.967 157.801 132.663 158.49C133.366 159.179 133.913 160.045 134.304 161.089C134.694 162.126 134.889 163.341 134.889 164.733V165.979H121.072V163.167H130.617C130.617 162.513 130.475 161.935 130.191 161.43C129.907 160.926 129.513 160.532 129.009 160.248C128.512 159.957 127.933 159.811 127.272 159.811C126.583 159.811 125.973 159.971 125.44 160.29C124.914 160.603 124.502 161.026 124.204 161.558C123.906 162.084 123.753 162.67 123.746 163.316V165.99C123.746 166.8 123.895 167.499 124.193 168.089C124.499 168.678 124.929 169.133 125.483 169.452C126.036 169.772 126.693 169.932 127.453 169.932C127.958 169.932 128.419 169.861 128.838 169.719C129.257 169.577 129.616 169.364 129.914 169.08C130.213 168.795 130.44 168.447 130.596 168.036L134.794 168.312C134.581 169.321 134.144 170.202 133.483 170.955C132.83 171.7 131.985 172.283 130.948 172.702C129.918 173.114 128.728 173.32 127.379 173.32ZM146.555 156.636V160.045H136.701V156.636H146.555ZM138.938 152.716H143.476V167.972C143.476 168.391 143.54 168.717 143.668 168.952C143.796 169.179 143.973 169.339 144.201 169.431C144.435 169.523 144.705 169.57 145.01 169.57C145.223 169.57 145.436 169.552 145.649 169.516C145.862 169.474 146.026 169.442 146.139 169.42L146.853 172.798C146.626 172.869 146.306 172.95 145.894 173.043C145.483 173.142 144.982 173.202 144.392 173.224C143.299 173.266 142.34 173.121 141.516 172.787C140.699 172.453 140.063 171.935 139.609 171.232C139.154 170.528 138.931 169.641 138.938 168.568V152.716ZM161.153 151.182V173H156.54V151.182H161.153ZM169.401 163.54V173H164.863V156.636H169.188V159.523H169.38C169.742 158.572 170.349 157.819 171.202 157.265C172.054 156.704 173.087 156.423 174.302 156.423C175.438 156.423 176.429 156.672 177.274 157.169C178.119 157.666 178.776 158.376 179.245 159.3C179.714 160.216 179.948 161.31 179.948 162.581V173H175.41V163.391C175.417 162.389 175.161 161.608 174.643 161.047C174.124 160.479 173.41 160.195 172.501 160.195C171.891 160.195 171.351 160.326 170.882 160.589C170.42 160.852 170.058 161.235 169.795 161.739C169.54 162.237 169.408 162.837 169.401 163.54ZM189.723 154.985V151.182H207.642V154.985H200.962V173H196.402V154.985H189.723ZM215.528 173.32C213.873 173.32 212.442 172.968 211.234 172.265C210.034 171.555 209.107 170.567 208.454 169.303C207.801 168.032 207.474 166.558 207.474 164.882C207.474 163.192 207.801 161.714 208.454 160.45C209.107 159.179 210.034 158.192 211.234 157.489C212.442 156.778 213.873 156.423 215.528 156.423C217.183 156.423 218.61 156.778 219.81 157.489C221.018 158.192 221.948 159.179 222.602 160.45C223.255 161.714 223.582 163.192 223.582 164.882C223.582 166.558 223.255 168.032 222.602 169.303C221.948 170.567 221.018 171.555 219.81 172.265C218.61 172.968 217.183 173.32 215.528 173.32ZM215.549 169.804C216.302 169.804 216.93 169.591 217.435 169.165C217.939 168.732 218.319 168.142 218.575 167.396C218.837 166.651 218.969 165.802 218.969 164.85C218.969 163.898 218.837 163.05 218.575 162.304C218.319 161.558 217.939 160.969 217.435 160.536C216.93 160.102 216.302 159.886 215.549 159.886C214.789 159.886 214.15 160.102 213.631 160.536C213.12 160.969 212.733 161.558 212.47 162.304C212.215 163.05 212.087 163.898 212.087 164.85C212.087 165.802 212.215 166.651 212.47 167.396C212.733 168.142 213.12 168.732 213.631 169.165C214.15 169.591 214.789 169.804 215.549 169.804ZM237.026 166.033V156.636H241.565V173H237.207V170.028H237.037C236.668 170.987 236.053 171.757 235.194 172.339C234.342 172.922 233.301 173.213 232.073 173.213C230.979 173.213 230.016 172.964 229.185 172.467C228.354 171.97 227.705 171.263 227.236 170.347C226.774 169.431 226.54 168.334 226.533 167.055V156.636H231.071V166.246C231.078 167.212 231.337 167.975 231.849 168.536C232.36 169.097 233.046 169.378 233.905 169.378C234.452 169.378 234.963 169.254 235.439 169.005C235.915 168.749 236.298 168.373 236.59 167.876C236.888 167.379 237.033 166.764 237.026 166.033ZM252.588 173.32C250.912 173.32 249.47 172.964 248.263 172.254C247.063 171.537 246.139 170.543 245.493 169.271C244.854 168 244.534 166.537 244.534 164.882C244.534 163.206 244.858 161.736 245.504 160.472C246.157 159.2 247.084 158.21 248.284 157.499C249.485 156.782 250.912 156.423 252.567 156.423C253.995 156.423 255.245 156.683 256.317 157.201C257.389 157.719 258.238 158.447 258.863 159.385C259.488 160.322 259.833 161.423 259.897 162.688H255.614C255.493 161.871 255.174 161.214 254.655 160.717C254.144 160.212 253.473 159.96 252.642 159.96C251.938 159.96 251.324 160.152 250.799 160.536C250.28 160.912 249.875 161.462 249.584 162.187C249.293 162.911 249.147 163.788 249.147 164.818C249.147 165.862 249.289 166.75 249.573 167.482C249.865 168.213 250.273 168.771 250.799 169.154C251.324 169.538 251.938 169.729 252.642 169.729C253.16 169.729 253.625 169.623 254.037 169.41C254.456 169.197 254.801 168.888 255.071 168.483C255.348 168.071 255.529 167.577 255.614 167.002H259.897C259.826 168.252 259.485 169.353 258.874 170.305C258.27 171.249 257.436 171.988 256.37 172.521C255.305 173.053 254.044 173.32 252.588 173.32ZM267.341 163.54V173H262.802V151.182H267.213V159.523H267.405C267.774 158.558 268.37 157.801 269.194 157.254C270.018 156.7 271.052 156.423 272.294 156.423C273.431 156.423 274.422 156.672 275.267 157.169C276.119 157.659 276.78 158.366 277.248 159.289C277.724 160.205 277.959 161.303 277.951 162.581V173H273.413V163.391C273.42 162.382 273.165 161.597 272.646 161.036C272.135 160.475 271.417 160.195 270.494 160.195C269.876 160.195 269.329 160.326 268.853 160.589C268.385 160.852 268.015 161.235 267.745 161.739C267.483 162.237 267.348 162.837 267.341 163.54Z" fill="#2A58B7"/>
<path d="M37.2649 211L34.0831 199.364H35.5149L37.9467 208.841H38.0604L40.5376 199.364H42.1286L44.6058 208.841H44.7195L47.1513 199.364H48.5831L45.4013 211H43.9467L41.3786 201.727H41.2876L38.7195 211H37.2649ZM53.0036 211.182C52.1626 211.182 51.4373 210.996 50.8274 210.625C50.2214 210.25 49.7536 209.727 49.424 209.057C49.0982 208.383 48.9354 207.598 48.9354 206.705C48.9354 205.811 49.0982 205.023 49.424 204.341C49.7536 203.655 50.2119 203.121 50.799 202.739C51.3899 202.352 52.0793 202.159 52.8672 202.159C53.3217 202.159 53.7706 202.235 54.2138 202.386C54.657 202.538 55.0604 202.784 55.424 203.125C55.7876 203.462 56.0774 203.909 56.2933 204.466C56.5092 205.023 56.6172 205.708 56.6172 206.523V207.091H49.8899V205.932H55.2536C55.2536 205.439 55.1551 205 54.9581 204.614C54.7649 204.227 54.4884 203.922 54.1286 203.699C53.7725 203.475 53.352 203.364 52.8672 203.364C52.3331 203.364 51.871 203.496 51.4808 203.761C51.0945 204.023 50.7971 204.364 50.5888 204.784C50.3804 205.205 50.2763 205.655 50.2763 206.136V206.909C50.2763 207.568 50.3899 208.127 50.6172 208.585C50.8482 209.04 51.1683 209.386 51.5774 209.625C51.9865 209.86 52.4619 209.977 53.0036 209.977C53.3558 209.977 53.674 209.928 53.9581 209.83C54.246 209.727 54.4941 209.576 54.7024 209.375C54.9107 209.17 55.0717 208.917 55.1854 208.614L56.4808 208.977C56.3445 209.417 56.1153 209.803 55.7933 210.136C55.4714 210.466 55.0736 210.723 54.6001 210.909C54.1267 211.091 53.5945 211.182 53.0036 211.182ZM59.8161 199.364V203.364H58.5661V199.364H59.8161ZM65.4993 211.182C64.772 211.182 64.13 210.998 63.5732 210.631C63.0163 210.259 62.5807 209.737 62.2663 209.062C61.9519 208.384 61.7947 207.583 61.7947 206.659C61.7947 205.742 61.9519 204.947 62.2663 204.273C62.5807 203.598 63.0182 203.078 63.5788 202.71C64.1394 202.343 64.7872 202.159 65.522 202.159C66.0902 202.159 66.5391 202.254 66.8686 202.443C67.2019 202.629 67.4557 202.841 67.63 203.08C67.808 203.314 67.9463 203.508 68.0447 203.659H68.1584V199.364H69.4993V211H68.2038V209.659H68.0447C67.9463 209.818 67.8061 210.019 67.6243 210.261C67.4425 210.5 67.183 210.714 66.8459 210.903C66.5088 211.089 66.0599 211.182 65.4993 211.182ZM65.6811 209.977C66.219 209.977 66.6735 209.837 67.0447 209.557C67.416 209.273 67.6982 208.881 67.8913 208.381C68.0845 207.877 68.1811 207.295 68.1811 206.636C68.1811 205.985 68.0864 205.415 67.897 204.926C67.7076 204.434 67.4273 204.051 67.0561 203.778C66.6849 203.502 66.2266 203.364 65.6811 203.364C65.1129 203.364 64.6394 203.509 64.2607 203.801C63.8857 204.089 63.6035 204.481 63.4141 204.977C63.2285 205.47 63.1357 206.023 63.1357 206.636C63.1357 207.258 63.2304 207.822 63.4197 208.33C63.6129 208.833 63.897 209.235 64.272 209.534C64.6508 209.83 65.1205 209.977 65.6811 209.977ZM77.9822 199.364V211H76.6413V199.364H77.9822ZM83.9837 211.182C83.1958 211.182 82.5045 210.994 81.9098 210.619C81.3189 210.244 80.8568 209.72 80.5234 209.045C80.1939 208.371 80.0291 207.583 80.0291 206.682C80.0291 205.773 80.1939 204.979 80.5234 204.301C80.8568 203.623 81.3189 203.097 81.9098 202.722C82.5045 202.347 83.1958 202.159 83.9837 202.159C84.7715 202.159 85.4609 202.347 86.0518 202.722C86.6465 203.097 87.1087 203.623 87.4382 204.301C87.7715 204.979 87.9382 205.773 87.9382 206.682C87.9382 207.583 87.7715 208.371 87.4382 209.045C87.1087 209.72 86.6465 210.244 86.0518 210.619C85.4609 210.994 84.7715 211.182 83.9837 211.182ZM83.9837 209.977C84.5821 209.977 85.0746 209.824 85.4609 209.517C85.8473 209.21 86.1333 208.807 86.3189 208.307C86.5045 207.807 86.5973 207.265 86.5973 206.682C86.5973 206.098 86.5045 205.555 86.3189 205.051C86.1333 204.547 85.8473 204.14 85.4609 203.83C85.0746 203.519 84.5821 203.364 83.9837 203.364C83.3852 203.364 82.8928 203.519 82.5064 203.83C82.12 204.14 81.834 204.547 81.6484 205.051C81.4628 205.555 81.37 206.098 81.37 206.682C81.37 207.265 81.4628 207.807 81.6484 208.307C81.834 208.807 82.12 209.21 82.5064 209.517C82.8928 209.824 83.3852 209.977 83.9837 209.977ZM96.8089 202.273L93.5817 211H92.218L88.9908 202.273H90.4453L92.8544 209.227H92.9453L95.3544 202.273H96.8089ZM101.925 211.182C101.085 211.182 100.359 210.996 99.7493 210.625C99.1432 210.25 98.6754 209.727 98.3459 209.057C98.0201 208.383 97.8572 207.598 97.8572 206.705C97.8572 205.811 98.0201 205.023 98.3459 204.341C98.6754 203.655 99.1338 203.121 99.7209 202.739C100.312 202.352 101.001 202.159 101.789 202.159C102.244 202.159 102.692 202.235 103.136 202.386C103.579 202.538 103.982 202.784 104.346 203.125C104.71 203.462 104.999 203.909 105.215 204.466C105.431 205.023 105.539 205.708 105.539 206.523V207.091H98.8118V205.932H104.175C104.175 205.439 104.077 205 103.88 204.614C103.687 204.227 103.41 203.922 103.05 203.699C102.694 203.475 102.274 203.364 101.789 203.364C101.255 203.364 100.793 203.496 100.403 203.761C100.016 204.023 99.719 204.364 99.5107 204.784C99.3023 205.205 99.1982 205.655 99.1982 206.136V206.909C99.1982 207.568 99.3118 208.127 99.5391 208.585C99.7701 209.04 100.09 209.386 100.499 209.625C100.908 209.86 101.384 209.977 101.925 209.977C102.278 209.977 102.596 209.928 102.88 209.83C103.168 209.727 103.416 209.576 103.624 209.375C103.833 209.17 103.994 208.917 104.107 208.614L105.403 208.977C105.266 209.417 105.037 209.803 104.715 210.136C104.393 210.466 103.996 210.723 103.522 210.909C103.049 211.091 102.516 211.182 101.925 211.182ZM115.874 202.273V203.409H111.352V202.273H115.874ZM112.67 200.182H114.011V208.5C114.011 208.879 114.066 209.163 114.175 209.352C114.289 209.538 114.433 209.663 114.607 209.727C114.785 209.788 114.973 209.818 115.17 209.818C115.317 209.818 115.439 209.811 115.533 209.795C115.628 209.777 115.704 209.761 115.761 209.75L116.033 210.955C115.942 210.989 115.816 211.023 115.653 211.057C115.49 211.095 115.283 211.114 115.033 211.114C114.655 211.114 114.283 211.032 113.92 210.869C113.56 210.706 113.261 210.458 113.022 210.125C112.787 209.792 112.67 209.371 112.67 208.864V200.182ZM121.343 211.182C120.555 211.182 119.864 210.994 119.269 210.619C118.678 210.244 118.216 209.72 117.883 209.045C117.553 208.371 117.388 207.583 117.388 206.682C117.388 205.773 117.553 204.979 117.883 204.301C118.216 203.623 118.678 203.097 119.269 202.722C119.864 202.347 120.555 202.159 121.343 202.159C122.131 202.159 122.82 202.347 123.411 202.722C124.006 203.097 124.468 203.623 124.798 204.301C125.131 204.979 125.298 205.773 125.298 206.682C125.298 207.583 125.131 208.371 124.798 209.045C124.468 209.72 124.006 210.244 123.411 210.619C122.82 210.994 122.131 211.182 121.343 211.182ZM121.343 209.977C121.942 209.977 122.434 209.824 122.82 209.517C123.207 209.21 123.493 208.807 123.678 208.307C123.864 207.807 123.957 207.265 123.957 206.682C123.957 206.098 123.864 205.555 123.678 205.051C123.493 204.547 123.207 204.14 122.82 203.83C122.434 203.519 121.942 203.364 121.343 203.364C120.745 203.364 120.252 203.519 119.866 203.83C119.479 204.14 119.193 204.547 119.008 205.051C118.822 205.555 118.729 206.098 118.729 206.682C118.729 207.265 118.822 207.807 119.008 208.307C119.193 208.807 119.479 209.21 119.866 209.517C120.252 209.824 120.745 209.977 121.343 209.977ZM133.185 205.75V211H131.844V199.364H133.185V203.636H133.299C133.504 203.186 133.81 202.828 134.219 202.562C134.632 202.294 135.182 202.159 135.867 202.159C136.462 202.159 136.983 202.278 137.43 202.517C137.877 202.752 138.223 203.114 138.469 203.602C138.719 204.087 138.844 204.705 138.844 205.455V211H137.504V205.545C137.504 204.852 137.324 204.316 136.964 203.938C136.608 203.555 136.113 203.364 135.481 203.364C135.041 203.364 134.647 203.456 134.299 203.642C133.954 203.828 133.682 204.098 133.481 204.455C133.284 204.811 133.185 205.242 133.185 205.75ZM144.957 211.182C144.116 211.182 143.39 210.996 142.781 210.625C142.174 210.25 141.707 209.727 141.377 209.057C141.051 208.383 140.888 207.598 140.888 206.705C140.888 205.811 141.051 205.023 141.377 204.341C141.707 203.655 142.165 203.121 142.752 202.739C143.343 202.352 144.032 202.159 144.82 202.159C145.275 202.159 145.724 202.235 146.167 202.386C146.61 202.538 147.013 202.784 147.377 203.125C147.741 203.462 148.031 203.909 148.246 204.466C148.462 205.023 148.57 205.708 148.57 206.523V207.091H141.843V205.932H147.207C147.207 205.439 147.108 205 146.911 204.614C146.718 204.227 146.442 203.922 146.082 203.699C145.726 203.475 145.305 203.364 144.82 203.364C144.286 203.364 143.824 203.496 143.434 203.761C143.048 204.023 142.75 204.364 142.542 204.784C142.334 205.205 142.229 205.655 142.229 206.136V206.909C142.229 207.568 142.343 208.127 142.57 208.585C142.801 209.04 143.121 209.386 143.531 209.625C143.94 209.86 144.415 209.977 144.957 209.977C145.309 209.977 145.627 209.928 145.911 209.83C146.199 209.727 146.447 209.576 146.656 209.375C146.864 209.17 147.025 208.917 147.138 208.614L148.434 208.977C148.298 209.417 148.068 209.803 147.746 210.136C147.424 210.466 147.027 210.723 146.553 210.909C146.08 211.091 145.548 211.182 144.957 211.182ZM153.178 211.205C152.625 211.205 152.123 211.1 151.673 210.892C151.222 210.68 150.864 210.375 150.599 209.977C150.334 209.576 150.201 209.091 150.201 208.523C150.201 208.023 150.299 207.617 150.496 207.307C150.693 206.992 150.957 206.746 151.286 206.568C151.616 206.39 151.979 206.258 152.377 206.17C152.779 206.08 153.182 206.008 153.587 205.955C154.118 205.886 154.548 205.835 154.877 205.801C155.21 205.763 155.453 205.701 155.604 205.614C155.76 205.527 155.837 205.375 155.837 205.159V205.114C155.837 204.553 155.684 204.117 155.377 203.807C155.074 203.496 154.614 203.341 153.996 203.341C153.356 203.341 152.854 203.481 152.491 203.761C152.127 204.042 151.871 204.341 151.724 204.659L150.451 204.205C150.678 203.674 150.981 203.261 151.36 202.966C151.743 202.667 152.159 202.458 152.61 202.341C153.065 202.22 153.512 202.159 153.951 202.159C154.231 202.159 154.553 202.193 154.917 202.261C155.284 202.326 155.638 202.46 155.979 202.665C156.324 202.869 156.61 203.178 156.837 203.591C157.065 204.004 157.178 204.557 157.178 205.25V211H155.837V209.818H155.769C155.678 210.008 155.527 210.21 155.315 210.426C155.103 210.642 154.82 210.826 154.468 210.977C154.116 211.129 153.686 211.205 153.178 211.205ZM153.383 210C153.913 210 154.36 209.896 154.724 209.688C155.091 209.479 155.368 209.21 155.553 208.881C155.743 208.551 155.837 208.205 155.837 207.841V206.614C155.781 206.682 155.656 206.744 155.462 206.801C155.273 206.854 155.053 206.902 154.803 206.943C154.557 206.981 154.317 207.015 154.082 207.045C153.851 207.072 153.663 207.095 153.519 207.114C153.171 207.159 152.845 207.233 152.542 207.335C152.243 207.434 152 207.583 151.815 207.784C151.633 207.981 151.542 208.25 151.542 208.591C151.542 209.057 151.714 209.409 152.059 209.648C152.407 209.883 152.849 210 153.383 210ZM159.626 211V202.273H160.921V203.591H161.012C161.171 203.159 161.459 202.809 161.876 202.54C162.292 202.271 162.762 202.136 163.285 202.136C163.383 202.136 163.506 202.138 163.654 202.142C163.802 202.146 163.914 202.152 163.989 202.159V203.523C163.944 203.511 163.84 203.494 163.677 203.472C163.518 203.445 163.349 203.432 163.171 203.432C162.747 203.432 162.368 203.521 162.035 203.699C161.705 203.873 161.444 204.116 161.251 204.426C161.061 204.733 160.967 205.083 160.967 205.477V211H159.626ZM173.965 202.273V203.409H169.261V202.273H173.965ZM170.67 211V201.068C170.67 200.568 170.787 200.152 171.022 199.818C171.257 199.485 171.562 199.235 171.937 199.068C172.312 198.902 172.708 198.818 173.124 198.818C173.454 198.818 173.723 198.845 173.931 198.898C174.139 198.951 174.295 199 174.397 199.045L174.011 200.205C173.942 200.182 173.848 200.153 173.727 200.119C173.609 200.085 173.454 200.068 173.261 200.068C172.817 200.068 172.497 200.18 172.3 200.403C172.107 200.627 172.011 200.955 172.011 201.386V211H170.67ZM175.844 211V202.273H177.14V203.591H177.231C177.39 203.159 177.678 202.809 178.094 202.54C178.511 202.271 178.981 202.136 179.504 202.136C179.602 202.136 179.725 202.138 179.873 202.142C180.021 202.146 180.132 202.152 180.208 202.159V203.523C180.163 203.511 180.058 203.494 179.896 203.472C179.737 203.445 179.568 203.432 179.39 203.432C178.966 203.432 178.587 203.521 178.254 203.699C177.924 203.873 177.663 204.116 177.469 204.426C177.28 204.733 177.185 205.083 177.185 205.477V211H175.844ZM185.077 211.182C184.29 211.182 183.598 210.994 183.004 210.619C182.413 210.244 181.951 209.72 181.617 209.045C181.288 208.371 181.123 207.583 181.123 206.682C181.123 205.773 181.288 204.979 181.617 204.301C181.951 203.623 182.413 203.097 183.004 202.722C183.598 202.347 184.29 202.159 185.077 202.159C185.865 202.159 186.555 202.347 187.146 202.722C187.74 203.097 188.202 203.623 188.532 204.301C188.865 204.979 189.032 205.773 189.032 206.682C189.032 207.583 188.865 208.371 188.532 209.045C188.202 209.72 187.74 210.244 187.146 210.619C186.555 210.994 185.865 211.182 185.077 211.182ZM185.077 209.977C185.676 209.977 186.168 209.824 186.555 209.517C186.941 209.21 187.227 208.807 187.413 208.307C187.598 207.807 187.691 207.265 187.691 206.682C187.691 206.098 187.598 205.555 187.413 205.051C187.227 204.547 186.941 204.14 186.555 203.83C186.168 203.519 185.676 203.364 185.077 203.364C184.479 203.364 183.987 203.519 183.6 203.83C183.214 204.14 182.928 204.547 182.742 205.051C182.557 205.555 182.464 206.098 182.464 206.682C182.464 207.265 182.557 207.807 182.742 208.307C182.928 208.807 183.214 209.21 183.6 209.517C183.987 209.824 184.479 209.977 185.077 209.977ZM191.079 211V202.273H192.374V203.636H192.488C192.67 203.17 192.963 202.809 193.369 202.551C193.774 202.29 194.261 202.159 194.829 202.159C195.405 202.159 195.884 202.29 196.266 202.551C196.653 202.809 196.954 203.17 197.17 203.636H197.261C197.484 203.186 197.819 202.828 198.266 202.562C198.713 202.294 199.249 202.159 199.874 202.159C200.655 202.159 201.293 202.403 201.789 202.892C202.285 203.377 202.533 204.133 202.533 205.159V211H201.192V205.159C201.192 204.515 201.016 204.055 200.664 203.778C200.312 203.502 199.897 203.364 199.42 203.364C198.806 203.364 198.331 203.549 197.994 203.92C197.656 204.288 197.488 204.754 197.488 205.318V211H196.124V205.023C196.124 204.527 195.963 204.127 195.641 203.824C195.319 203.517 194.905 203.364 194.397 203.364C194.049 203.364 193.723 203.456 193.42 203.642C193.121 203.828 192.878 204.085 192.692 204.415C192.511 204.741 192.42 205.117 192.42 205.545V211H191.079ZM210.349 214.273C210.121 214.273 209.919 214.254 209.741 214.216C209.563 214.182 209.44 214.148 209.371 214.114L209.712 212.932C210.038 213.015 210.326 213.045 210.576 213.023C210.826 213 211.048 212.888 211.241 212.688C211.438 212.491 211.618 212.17 211.781 211.727L212.031 211.045L208.803 202.273H210.258L212.667 209.227H212.758L215.167 202.273H216.621L212.917 212.273C212.75 212.723 212.544 213.097 212.298 213.392C212.051 213.691 211.765 213.913 211.44 214.057C211.118 214.201 210.754 214.273 210.349 214.273ZM221.624 211.182C220.836 211.182 220.145 210.994 219.55 210.619C218.96 210.244 218.497 209.72 218.164 209.045C217.835 208.371 217.67 207.583 217.67 206.682C217.67 205.773 217.835 204.979 218.164 204.301C218.497 203.623 218.96 203.097 219.55 202.722C220.145 202.347 220.836 202.159 221.624 202.159C222.412 202.159 223.102 202.347 223.692 202.722C224.287 203.097 224.749 203.623 225.079 204.301C225.412 204.979 225.579 205.773 225.579 206.682C225.579 207.583 225.412 208.371 225.079 209.045C224.749 209.72 224.287 210.244 223.692 210.619C223.102 210.994 222.412 211.182 221.624 211.182ZM221.624 209.977C222.223 209.977 222.715 209.824 223.102 209.517C223.488 209.21 223.774 208.807 223.96 208.307C224.145 207.807 224.238 207.265 224.238 206.682C224.238 206.098 224.145 205.555 223.96 205.051C223.774 204.547 223.488 204.14 223.102 203.83C222.715 203.519 222.223 203.364 221.624 203.364C221.026 203.364 220.533 203.519 220.147 203.83C219.761 204.14 219.475 204.547 219.289 205.051C219.103 205.555 219.011 206.098 219.011 206.682C219.011 207.265 219.103 207.807 219.289 208.307C219.475 208.807 219.761 209.21 220.147 209.517C220.533 209.824 221.026 209.977 221.624 209.977ZM233.126 207.432V202.273H234.467V211H233.126V209.523H233.035C232.83 209.966 232.512 210.343 232.08 210.653C231.648 210.96 231.103 211.114 230.444 211.114C229.898 211.114 229.414 210.994 228.989 210.756C228.565 210.513 228.232 210.15 227.989 209.665C227.747 209.176 227.626 208.561 227.626 207.818V202.273H228.967V207.727C228.967 208.364 229.145 208.871 229.501 209.25C229.861 209.629 230.319 209.818 230.876 209.818C231.209 209.818 231.548 209.733 231.893 209.562C232.241 209.392 232.533 209.131 232.768 208.778C233.006 208.426 233.126 207.977 233.126 207.432ZM238.695 199.364L238.582 207.727H237.263L237.15 199.364H238.695ZM237.923 211.091C237.642 211.091 237.402 210.991 237.201 210.79C237 210.589 236.9 210.348 236.9 210.068C236.9 209.788 237 209.547 237.201 209.347C237.402 209.146 237.642 209.045 237.923 209.045C238.203 209.045 238.443 209.146 238.644 209.347C238.845 209.547 238.945 209.788 238.945 210.068C238.945 210.254 238.898 210.424 238.803 210.58C238.712 210.735 238.589 210.86 238.434 210.955C238.282 211.045 238.112 211.091 237.923 211.091ZM248.171 211L244.989 199.364H246.421L248.853 208.841H248.967L251.444 199.364H253.035L255.512 208.841H255.626L258.058 199.364H259.489L256.308 211H254.853L252.285 201.727H252.194L249.626 211H248.171ZM262.404 205.75V211H261.063V199.364H262.404V203.636H262.518C262.722 203.186 263.029 202.828 263.438 202.562C263.851 202.294 264.4 202.159 265.086 202.159C265.681 202.159 266.201 202.278 266.648 202.517C267.095 202.752 267.442 203.114 267.688 203.602C267.938 204.087 268.063 204.705 268.063 205.455V211H266.722V205.545C266.722 204.852 266.542 204.316 266.183 203.938C265.826 203.555 265.332 203.364 264.7 203.364C264.26 203.364 263.866 203.456 263.518 203.642C263.173 203.828 262.9 204.098 262.7 204.455C262.503 204.811 262.404 205.242 262.404 205.75ZM274.175 211.182C273.335 211.182 272.609 210.996 271.999 210.625C271.393 210.25 270.925 209.727 270.596 209.057C270.27 208.383 270.107 207.598 270.107 206.705C270.107 205.811 270.27 205.023 270.596 204.341C270.925 203.655 271.384 203.121 271.971 202.739C272.562 202.352 273.251 202.159 274.039 202.159C274.494 202.159 274.942 202.235 275.386 202.386C275.829 202.538 276.232 202.784 276.596 203.125C276.96 203.462 277.249 203.909 277.465 204.466C277.681 205.023 277.789 205.708 277.789 206.523V207.091H271.062V205.932H276.425C276.425 205.439 276.327 205 276.13 204.614C275.937 204.227 275.66 203.922 275.3 203.699C274.944 203.475 274.524 203.364 274.039 203.364C273.505 203.364 273.043 203.496 272.653 203.761C272.266 204.023 271.969 204.364 271.761 204.784C271.552 205.205 271.448 205.655 271.448 206.136V206.909C271.448 207.568 271.562 208.127 271.789 208.585C272.02 209.04 272.34 209.386 272.749 209.625C273.158 209.86 273.634 209.977 274.175 209.977C274.528 209.977 274.846 209.928 275.13 209.83C275.418 209.727 275.666 209.576 275.874 209.375C276.083 209.17 276.244 208.917 276.357 208.614L277.653 208.977C277.516 209.417 277.287 209.803 276.965 210.136C276.643 210.466 276.246 210.723 275.772 210.909C275.299 211.091 274.766 211.182 274.175 211.182ZM283.624 202.273V203.409H279.102V202.273H283.624ZM280.42 200.182H281.761V208.5C281.761 208.879 281.816 209.163 281.925 209.352C282.039 209.538 282.183 209.663 282.357 209.727C282.535 209.788 282.723 209.818 282.92 209.818C283.067 209.818 283.189 209.811 283.283 209.795C283.378 209.777 283.454 209.761 283.511 209.75L283.783 210.955C283.692 210.989 283.566 211.023 283.403 211.057C283.24 211.095 283.033 211.114 282.783 211.114C282.405 211.114 282.033 211.032 281.67 210.869C281.31 210.706 281.011 210.458 280.772 210.125C280.537 209.792 280.42 209.371 280.42 208.864V200.182ZM287.17 205.75V211H285.829V199.364H287.17V203.636H287.283C287.488 203.186 287.795 202.828 288.204 202.562C288.617 202.294 289.166 202.159 289.852 202.159C290.446 202.159 290.967 202.278 291.414 202.517C291.861 202.752 292.208 203.114 292.454 203.602C292.704 204.087 292.829 204.705 292.829 205.455V211H291.488V205.545C291.488 204.852 291.308 204.316 290.948 203.938C290.592 203.555 290.098 203.364 289.465 203.364C289.026 203.364 288.632 203.456 288.283 203.642C287.939 203.828 287.666 204.098 287.465 204.455C287.268 204.811 287.17 205.242 287.17 205.75ZM298.941 211.182C298.1 211.182 297.375 210.996 296.765 210.625C296.159 210.25 295.691 209.727 295.362 209.057C295.036 208.383 294.873 207.598 294.873 206.705C294.873 205.811 295.036 205.023 295.362 204.341C295.691 203.655 296.149 203.121 296.737 202.739C297.327 202.352 298.017 202.159 298.805 202.159C299.259 202.159 299.708 202.235 300.151 202.386C300.594 202.538 300.998 202.784 301.362 203.125C301.725 203.462 302.015 203.909 302.231 204.466C302.447 205.023 302.555 205.708 302.555 206.523V207.091H295.827V205.932H301.191C301.191 205.439 301.093 205 300.896 204.614C300.702 204.227 300.426 203.922 300.066 203.699C299.71 203.475 299.29 203.364 298.805 203.364C298.271 203.364 297.808 203.496 297.418 203.761C297.032 204.023 296.735 204.364 296.526 204.784C296.318 205.205 296.214 205.655 296.214 206.136V206.909C296.214 207.568 296.327 208.127 296.555 208.585C296.786 209.04 297.106 209.386 297.515 209.625C297.924 209.86 298.399 209.977 298.941 209.977C299.293 209.977 299.612 209.928 299.896 209.83C300.183 209.727 300.432 209.576 300.64 209.375C300.848 209.17 301.009 208.917 301.123 208.614L302.418 208.977C302.282 209.417 302.053 209.803 301.731 210.136C301.409 210.466 301.011 210.723 300.538 210.909C300.064 211.091 299.532 211.182 298.941 211.182ZM304.594 211V202.273H305.89V203.591H305.981C306.14 203.159 306.428 202.809 306.844 202.54C307.261 202.271 307.731 202.136 308.254 202.136C308.352 202.136 308.475 202.138 308.623 202.142C308.771 202.146 308.882 202.152 308.958 202.159V203.523C308.913 203.511 308.808 203.494 308.646 203.472C308.487 203.445 308.318 203.432 308.14 203.432C307.716 203.432 307.337 203.521 307.004 203.699C306.674 203.873 306.413 204.116 306.219 204.426C306.03 204.733 305.935 205.083 305.935 205.477V211H304.594ZM315.911 214.273C315.684 214.273 315.481 214.254 315.303 214.216C315.125 214.182 315.002 214.148 314.934 214.114L315.275 212.932C315.601 213.015 315.888 213.045 316.138 213.023C316.388 213 316.61 212.888 316.803 212.688C317 212.491 317.18 212.17 317.343 211.727L317.593 211.045L314.366 202.273H315.82L318.229 209.227H318.32L320.729 202.273H322.184L318.479 212.273C318.313 212.723 318.106 213.097 317.86 213.392C317.614 213.691 317.328 213.913 317.002 214.057C316.68 214.201 316.317 214.273 315.911 214.273ZM327.187 211.182C326.399 211.182 325.708 210.994 325.113 210.619C324.522 210.244 324.06 209.72 323.727 209.045C323.397 208.371 323.232 207.583 323.232 206.682C323.232 205.773 323.397 204.979 323.727 204.301C324.06 203.623 324.522 203.097 325.113 202.722C325.708 202.347 326.399 202.159 327.187 202.159C327.975 202.159 328.664 202.347 329.255 202.722C329.85 203.097 330.312 203.623 330.641 204.301C330.975 204.979 331.141 205.773 331.141 206.682C331.141 207.583 330.975 208.371 330.641 209.045C330.312 209.72 329.85 210.244 329.255 210.619C328.664 210.994 327.975 211.182 327.187 211.182ZM327.187 209.977C327.785 209.977 328.278 209.824 328.664 209.517C329.05 209.21 329.336 208.807 329.522 208.307C329.708 207.807 329.8 207.265 329.8 206.682C329.8 206.098 329.708 205.555 329.522 205.051C329.336 204.547 329.05 204.14 328.664 203.83C328.278 203.519 327.785 203.364 327.187 203.364C326.588 203.364 326.096 203.519 325.71 203.83C325.323 204.14 325.037 204.547 324.852 205.051C324.666 205.555 324.573 206.098 324.573 206.682C324.573 207.265 324.666 207.807 324.852 208.307C325.037 208.807 325.323 209.21 325.71 209.517C326.096 209.824 326.588 209.977 327.187 209.977ZM338.688 207.432V202.273H340.029V211H338.688V209.523H338.597C338.393 209.966 338.075 210.343 337.643 210.653C337.211 210.96 336.665 211.114 336.006 211.114C335.461 211.114 334.976 210.994 334.552 210.756C334.128 210.513 333.794 210.15 333.552 209.665C333.309 209.176 333.188 208.561 333.188 207.818V202.273H334.529V207.727C334.529 208.364 334.707 208.871 335.063 209.25C335.423 209.629 335.881 209.818 336.438 209.818C336.772 209.818 337.111 209.733 337.455 209.562C337.804 209.392 338.095 209.131 338.33 208.778C338.569 208.426 338.688 207.977 338.688 207.432ZM45.1854 231.75V237H43.8445V225.364H45.1854V229.636H45.299C45.5036 229.186 45.8104 228.828 46.2195 228.562C46.6323 228.294 47.1816 228.159 47.8672 228.159C48.4619 228.159 48.9827 228.278 49.4297 228.517C49.8767 228.752 50.2232 229.114 50.4695 229.602C50.7195 230.087 50.8445 230.705 50.8445 231.455V237H49.5036V231.545C49.5036 230.852 49.3236 230.316 48.9638 229.938C48.6077 229.555 48.1134 229.364 47.4808 229.364C47.0414 229.364 46.6475 229.456 46.299 229.642C45.9543 229.828 45.6816 230.098 45.4808 230.455C45.2839 230.811 45.1854 231.242 45.1854 231.75ZM55.8658 237.205C55.3127 237.205 54.8108 237.1 54.3601 236.892C53.9093 236.68 53.5514 236.375 53.2862 235.977C53.0211 235.576 52.8885 235.091 52.8885 234.523C52.8885 234.023 52.987 233.617 53.1839 233.307C53.3809 232.992 53.6442 232.746 53.9737 232.568C54.3033 232.39 54.6669 232.258 55.0646 232.17C55.4661 232.08 55.8696 232.008 56.2749 231.955C56.8052 231.886 57.2351 231.835 57.5646 231.801C57.898 231.763 58.1404 231.701 58.2919 231.614C58.4472 231.527 58.5249 231.375 58.5249 231.159V231.114C58.5249 230.553 58.3714 230.117 58.0646 229.807C57.7616 229.496 57.3014 229.341 56.6839 229.341C56.0438 229.341 55.5419 229.481 55.1783 229.761C54.8146 230.042 54.5589 230.341 54.4112 230.659L53.1385 230.205C53.3658 229.674 53.6688 229.261 54.0476 228.966C54.4302 228.667 54.8468 228.458 55.2976 228.341C55.7521 228.22 56.1991 228.159 56.6385 228.159C56.9188 228.159 57.2408 228.193 57.6044 228.261C57.9718 228.326 58.326 228.46 58.6669 228.665C59.0116 228.869 59.2976 229.178 59.5249 229.591C59.7521 230.004 59.8658 230.557 59.8658 231.25V237H58.5249V235.818H58.4567C58.3658 236.008 58.2143 236.21 58.0021 236.426C57.79 236.642 57.5078 236.826 57.1555 236.977C56.8033 237.129 56.3733 237.205 55.8658 237.205ZM56.0703 236C56.6006 236 57.0476 235.896 57.4112 235.688C57.7786 235.479 58.0552 235.21 58.2408 234.881C58.4302 234.551 58.5249 234.205 58.5249 233.841V232.614C58.468 232.682 58.343 232.744 58.1499 232.801C57.9605 232.854 57.7408 232.902 57.4908 232.943C57.2446 232.981 57.004 233.015 56.7692 233.045C56.5381 233.072 56.3506 233.095 56.2067 233.114C55.8582 233.159 55.5324 233.233 55.2294 233.335C54.9302 233.434 54.6877 233.583 54.5021 233.784C54.3203 233.981 54.2294 234.25 54.2294 234.591C54.2294 235.057 54.4018 235.409 54.7464 235.648C55.0949 235.883 55.5362 236 56.0703 236ZM69.1371 228.273L65.9098 237H64.5462L61.3189 228.273H62.7734L65.1825 235.227H65.2734L67.6825 228.273H69.1371ZM74.2536 237.182C73.4126 237.182 72.6873 236.996 72.0774 236.625C71.4714 236.25 71.0036 235.727 70.674 235.057C70.3482 234.383 70.1854 233.598 70.1854 232.705C70.1854 231.811 70.3482 231.023 70.674 230.341C71.0036 229.655 71.4619 229.121 72.049 228.739C72.6399 228.352 73.3293 228.159 74.1172 228.159C74.5717 228.159 75.0206 228.235 75.4638 228.386C75.907 228.538 76.3104 228.784 76.674 229.125C77.0376 229.462 77.3274 229.909 77.5433 230.466C77.7592 231.023 77.8672 231.708 77.8672 232.523V233.091H71.1399V231.932H76.5036C76.5036 231.439 76.4051 231 76.2081 230.614C76.0149 230.227 75.7384 229.922 75.3786 229.699C75.0225 229.475 74.602 229.364 74.1172 229.364C73.5831 229.364 73.121 229.496 72.7308 229.761C72.3445 230.023 72.0471 230.364 71.8388 230.784C71.6304 231.205 71.5263 231.655 71.5263 232.136V232.909C71.5263 233.568 71.6399 234.127 71.8672 234.585C72.0982 235.04 72.4183 235.386 72.8274 235.625C73.2365 235.86 73.7119 235.977 74.2536 235.977C74.6058 235.977 74.924 235.928 75.2081 235.83C75.496 235.727 75.7441 235.576 75.9524 235.375C76.1607 235.17 76.3217 234.917 76.4354 234.614L77.7308 234.977C77.5945 235.417 77.3653 235.803 77.0433 236.136C76.7214 236.466 76.3236 236.723 75.8501 236.909C75.3767 237.091 74.8445 237.182 74.2536 237.182ZM90.3615 240.273V235.659H90.2479C90.1494 235.818 90.0092 236.019 89.8274 236.261C89.6456 236.5 89.3861 236.714 89.049 236.903C88.7119 237.089 88.263 237.182 87.7024 237.182C86.9751 237.182 86.3331 236.998 85.7763 236.631C85.2195 236.259 84.7839 235.737 84.4695 235.062C84.1551 234.384 83.9979 233.583 83.9979 232.659C83.9979 231.742 84.1551 230.947 84.4695 230.273C84.7839 229.598 85.2214 229.078 85.782 228.71C86.3426 228.343 86.9903 228.159 87.7251 228.159C88.2933 228.159 88.7422 228.254 89.0717 228.443C89.4051 228.629 89.6589 228.841 89.8331 229.08C90.0111 229.314 90.1494 229.508 90.2479 229.659H90.407V228.273H91.7024V240.273H90.3615ZM87.8842 235.977C88.4221 235.977 88.8767 235.837 89.2479 235.557C89.6191 235.273 89.9013 234.881 90.0945 234.381C90.2876 233.877 90.3842 233.295 90.3842 232.636C90.3842 231.985 90.2895 231.415 90.1001 230.926C89.9107 230.434 89.6304 230.051 89.2592 229.778C88.888 229.502 88.4297 229.364 87.8842 229.364C87.3161 229.364 86.8426 229.509 86.4638 229.801C86.0888 230.089 85.8066 230.481 85.6172 230.977C85.4316 231.47 85.3388 232.023 85.3388 232.636C85.3388 233.258 85.4335 233.822 85.6229 234.33C85.8161 234.833 86.1001 235.235 86.4751 235.534C86.8539 235.83 87.3236 235.977 87.8842 235.977ZM99.657 233.432V228.273H100.998V237H99.657V235.523H99.5661C99.3615 235.966 99.0433 236.343 98.6115 236.653C98.1797 236.96 97.6342 237.114 96.9751 237.114C96.4297 237.114 95.9448 236.994 95.5206 236.756C95.0964 236.513 94.763 236.15 94.5206 235.665C94.2782 235.176 94.157 234.561 94.157 233.818V228.273H95.4979V233.727C95.4979 234.364 95.6759 234.871 96.032 235.25C96.3918 235.629 96.8501 235.818 97.407 235.818C97.7403 235.818 98.0793 235.733 98.424 235.562C98.7725 235.392 99.0642 235.131 99.299 234.778C99.5376 234.426 99.657 233.977 99.657 233.432ZM107.113 237.182C106.272 237.182 105.547 236.996 104.937 236.625C104.331 236.25 103.863 235.727 103.533 235.057C103.208 234.383 103.045 233.598 103.045 232.705C103.045 231.811 103.208 231.023 103.533 230.341C103.863 229.655 104.321 229.121 104.908 228.739C105.499 228.352 106.189 228.159 106.977 228.159C107.431 228.159 107.88 228.235 108.323 228.386C108.766 228.538 109.17 228.784 109.533 229.125C109.897 229.462 110.187 229.909 110.403 230.466C110.619 231.023 110.727 231.708 110.727 232.523V233.091H103.999V231.932H109.363C109.363 231.439 109.264 231 109.067 230.614C108.874 230.227 108.598 229.922 108.238 229.699C107.882 229.475 107.461 229.364 106.977 229.364C106.442 229.364 105.98 229.496 105.59 229.761C105.204 230.023 104.906 230.364 104.698 230.784C104.49 231.205 104.386 231.655 104.386 232.136V232.909C104.386 233.568 104.499 234.127 104.727 234.585C104.958 235.04 105.278 235.386 105.687 235.625C106.096 235.86 106.571 235.977 107.113 235.977C107.465 235.977 107.783 235.928 108.067 235.83C108.355 235.727 108.603 235.576 108.812 235.375C109.02 235.17 109.181 234.917 109.295 234.614L110.59 234.977C110.454 235.417 110.225 235.803 109.903 236.136C109.581 236.466 109.183 236.723 108.71 236.909C108.236 237.091 107.704 237.182 107.113 237.182ZM118.948 230.227L117.744 230.568C117.668 230.367 117.556 230.172 117.408 229.983C117.264 229.79 117.067 229.631 116.817 229.506C116.567 229.381 116.247 229.318 115.857 229.318C115.323 229.318 114.878 229.441 114.522 229.688C114.17 229.93 113.994 230.239 113.994 230.614C113.994 230.947 114.115 231.21 114.357 231.403C114.6 231.597 114.978 231.758 115.494 231.886L116.789 232.205C117.569 232.394 118.151 232.684 118.533 233.074C118.916 233.46 119.107 233.958 119.107 234.568C119.107 235.068 118.963 235.515 118.675 235.909C118.391 236.303 117.994 236.614 117.482 236.841C116.971 237.068 116.376 237.182 115.698 237.182C114.808 237.182 114.071 236.989 113.488 236.602C112.905 236.216 112.535 235.652 112.38 234.909L113.653 234.591C113.774 235.061 114.003 235.413 114.34 235.648C114.681 235.883 115.126 236 115.675 236C116.3 236 116.797 235.867 117.164 235.602C117.535 235.333 117.721 235.011 117.721 234.636C117.721 234.333 117.615 234.08 117.403 233.875C117.191 233.667 116.865 233.511 116.425 233.409L114.971 233.068C114.172 232.879 113.585 232.585 113.21 232.188C112.838 231.786 112.653 231.284 112.653 230.682C112.653 230.189 112.791 229.754 113.067 229.375C113.348 228.996 113.728 228.699 114.21 228.483C114.694 228.267 115.244 228.159 115.857 228.159C116.721 228.159 117.399 228.348 117.891 228.727C118.388 229.106 118.74 229.606 118.948 230.227ZM124.921 228.273V229.409H120.398V228.273H124.921ZM121.717 226.182H123.058V234.5C123.058 234.879 123.112 235.163 123.222 235.352C123.336 235.538 123.48 235.663 123.654 235.727C123.832 235.788 124.02 235.818 124.217 235.818C124.364 235.818 124.486 235.811 124.58 235.795C124.675 235.777 124.751 235.761 124.808 235.75L125.08 236.955C124.989 236.989 124.862 237.023 124.7 237.057C124.537 237.095 124.33 237.114 124.08 237.114C123.701 237.114 123.33 237.032 122.967 236.869C122.607 236.706 122.308 236.458 122.069 236.125C121.834 235.792 121.717 235.371 121.717 234.864V226.182ZM126.938 237V228.273H128.279V237H126.938ZM127.62 226.818C127.359 226.818 127.133 226.729 126.944 226.551C126.758 226.373 126.665 226.159 126.665 225.909C126.665 225.659 126.758 225.445 126.944 225.267C127.133 225.089 127.359 225 127.62 225C127.881 225 128.105 225.089 128.29 225.267C128.48 225.445 128.575 225.659 128.575 225.909C128.575 226.159 128.48 226.373 128.29 226.551C128.105 226.729 127.881 226.818 127.62 226.818ZM134.281 237.182C133.493 237.182 132.801 236.994 132.207 236.619C131.616 236.244 131.154 235.72 130.82 235.045C130.491 234.371 130.326 233.583 130.326 232.682C130.326 231.773 130.491 230.979 130.82 230.301C131.154 229.623 131.616 229.097 132.207 228.722C132.801 228.347 133.493 228.159 134.281 228.159C135.068 228.159 135.758 228.347 136.349 228.722C136.943 229.097 137.406 229.623 137.735 230.301C138.068 230.979 138.235 231.773 138.235 232.682C138.235 233.583 138.068 234.371 137.735 235.045C137.406 235.72 136.943 236.244 136.349 236.619C135.758 236.994 135.068 237.182 134.281 237.182ZM134.281 235.977C134.879 235.977 135.371 235.824 135.758 235.517C136.144 235.21 136.43 234.807 136.616 234.307C136.801 233.807 136.894 233.265 136.894 232.682C136.894 232.098 136.801 231.555 136.616 231.051C136.43 230.547 136.144 230.14 135.758 229.83C135.371 229.519 134.879 229.364 134.281 229.364C133.682 229.364 133.19 229.519 132.803 229.83C132.417 230.14 132.131 230.547 131.945 231.051C131.76 231.555 131.667 232.098 131.667 232.682C131.667 233.265 131.76 233.807 131.945 234.307C132.131 234.807 132.417 235.21 132.803 235.517C133.19 235.824 133.682 235.977 134.281 235.977ZM141.623 231.75V237H140.282V228.273H141.577V229.636H141.691C141.896 229.193 142.206 228.837 142.623 228.568C143.04 228.295 143.577 228.159 144.237 228.159C144.827 228.159 145.344 228.28 145.788 228.523C146.231 228.761 146.576 229.125 146.822 229.614C147.068 230.098 147.191 230.712 147.191 231.455V237H145.85V231.545C145.85 230.86 145.672 230.326 145.316 229.943C144.96 229.557 144.471 229.364 143.85 229.364C143.422 229.364 143.04 229.456 142.702 229.642C142.369 229.828 142.106 230.098 141.913 230.455C141.719 230.811 141.623 231.242 141.623 231.75ZM155.823 230.227L154.619 230.568C154.543 230.367 154.431 230.172 154.283 229.983C154.139 229.79 153.942 229.631 153.692 229.506C153.442 229.381 153.122 229.318 152.732 229.318C152.198 229.318 151.753 229.441 151.397 229.688C151.045 229.93 150.869 230.239 150.869 230.614C150.869 230.947 150.99 231.21 151.232 231.403C151.475 231.597 151.853 231.758 152.369 231.886L153.664 232.205C154.444 232.394 155.026 232.684 155.408 233.074C155.791 233.46 155.982 233.958 155.982 234.568C155.982 235.068 155.838 235.515 155.55 235.909C155.266 236.303 154.869 236.614 154.357 236.841C153.846 237.068 153.251 237.182 152.573 237.182C151.683 237.182 150.946 236.989 150.363 236.602C149.78 236.216 149.41 235.652 149.255 234.909L150.528 234.591C150.649 235.061 150.878 235.413 151.215 235.648C151.556 235.883 152.001 236 152.55 236C153.175 236 153.672 235.867 154.039 235.602C154.41 235.333 154.596 235.011 154.596 234.636C154.596 234.333 154.49 234.08 154.278 233.875C154.066 233.667 153.74 233.511 153.3 233.409L151.846 233.068C151.047 232.879 150.46 232.585 150.085 232.188C149.713 231.786 149.528 231.284 149.528 230.682C149.528 230.189 149.666 229.754 149.942 229.375C150.223 228.996 150.603 228.699 151.085 228.483C151.569 228.267 152.119 228.159 152.732 228.159C153.596 228.159 154.274 228.348 154.766 228.727C155.263 229.106 155.615 229.606 155.823 230.227ZM166.046 237.182C165.258 237.182 164.567 236.994 163.972 236.619C163.381 236.244 162.919 235.72 162.586 235.045C162.256 234.371 162.092 233.583 162.092 232.682C162.092 231.773 162.256 230.979 162.586 230.301C162.919 229.623 163.381 229.097 163.972 228.722C164.567 228.347 165.258 228.159 166.046 228.159C166.834 228.159 167.523 228.347 168.114 228.722C168.709 229.097 169.171 229.623 169.501 230.301C169.834 230.979 170.001 231.773 170.001 232.682C170.001 233.583 169.834 234.371 169.501 235.045C169.171 235.72 168.709 236.244 168.114 236.619C167.523 236.994 166.834 237.182 166.046 237.182ZM166.046 235.977C166.645 235.977 167.137 235.824 167.523 235.517C167.91 235.21 168.196 234.807 168.381 234.307C168.567 233.807 168.66 233.265 168.66 232.682C168.66 232.098 168.567 231.555 168.381 231.051C168.196 230.547 167.91 230.14 167.523 229.83C167.137 229.519 166.645 229.364 166.046 229.364C165.448 229.364 164.955 229.519 164.569 229.83C164.183 230.14 163.897 230.547 163.711 231.051C163.525 231.555 163.433 232.098 163.433 232.682C163.433 233.265 163.525 233.807 163.711 234.307C163.897 234.807 164.183 235.21 164.569 235.517C164.955 235.824 165.448 235.977 166.046 235.977ZM172.048 237V228.273H173.343V229.591H173.434C173.593 229.159 173.881 228.809 174.298 228.54C174.714 228.271 175.184 228.136 175.707 228.136C175.805 228.136 175.928 228.138 176.076 228.142C176.224 228.146 176.335 228.152 176.411 228.159V229.523C176.366 229.511 176.262 229.494 176.099 229.472C175.94 229.445 175.771 229.432 175.593 229.432C175.169 229.432 174.79 229.521 174.457 229.699C174.127 229.873 173.866 230.116 173.673 230.426C173.483 230.733 173.388 231.083 173.388 231.477V237H172.048ZM186.387 228.273V229.409H181.683V228.273H186.387ZM183.092 237V227.068C183.092 226.568 183.209 226.152 183.444 225.818C183.679 225.485 183.984 225.235 184.359 225.068C184.734 224.902 185.129 224.818 185.546 224.818C185.876 224.818 186.145 224.845 186.353 224.898C186.561 224.951 186.717 225 186.819 225.045L186.433 226.205C186.364 226.182 186.27 226.153 186.148 226.119C186.031 226.085 185.876 226.068 185.683 226.068C185.239 226.068 184.919 226.18 184.722 226.403C184.529 226.627 184.433 226.955 184.433 227.386V237H183.092ZM191.566 237.182C190.725 237.182 190 236.996 189.39 236.625C188.784 236.25 188.316 235.727 187.987 235.057C187.661 234.383 187.498 233.598 187.498 232.705C187.498 231.811 187.661 231.023 187.987 230.341C188.316 229.655 188.774 229.121 189.362 228.739C189.952 228.352 190.642 228.159 191.43 228.159C191.884 228.159 192.333 228.235 192.776 228.386C193.219 228.538 193.623 228.784 193.987 229.125C194.35 229.462 194.64 229.909 194.856 230.466C195.072 231.023 195.18 231.708 195.18 232.523V233.091H188.452V231.932H193.816C193.816 231.439 193.718 231 193.521 230.614C193.327 230.227 193.051 229.922 192.691 229.699C192.335 229.475 191.915 229.364 191.43 229.364C190.896 229.364 190.433 229.496 190.043 229.761C189.657 230.023 189.36 230.364 189.151 230.784C188.943 231.205 188.839 231.655 188.839 232.136V232.909C188.839 233.568 188.952 234.127 189.18 234.585C189.411 235.04 189.731 235.386 190.14 235.625C190.549 235.86 191.024 235.977 191.566 235.977C191.918 235.977 192.237 235.928 192.521 235.83C192.808 235.727 193.057 235.576 193.265 235.375C193.473 235.17 193.634 234.917 193.748 234.614L195.043 234.977C194.907 235.417 194.678 235.803 194.356 236.136C194.034 236.466 193.636 236.723 193.163 236.909C192.689 237.091 192.157 237.182 191.566 237.182ZM200.879 237.182C200.038 237.182 199.312 236.996 198.702 236.625C198.096 236.25 197.629 235.727 197.299 235.057C196.973 234.383 196.81 233.598 196.81 232.705C196.81 231.811 196.973 231.023 197.299 230.341C197.629 229.655 198.087 229.121 198.674 228.739C199.265 228.352 199.954 228.159 200.742 228.159C201.197 228.159 201.646 228.235 202.089 228.386C202.532 228.538 202.935 228.784 203.299 229.125C203.663 229.462 203.952 229.909 204.168 230.466C204.384 231.023 204.492 231.708 204.492 232.523V233.091H197.765V231.932H203.129C203.129 231.439 203.03 231 202.833 230.614C202.64 230.227 202.363 229.922 202.004 229.699C201.647 229.475 201.227 229.364 200.742 229.364C200.208 229.364 199.746 229.496 199.356 229.761C198.969 230.023 198.672 230.364 198.464 230.784C198.255 231.205 198.151 231.655 198.151 232.136V232.909C198.151 233.568 198.265 234.127 198.492 234.585C198.723 235.04 199.043 235.386 199.452 235.625C199.862 235.86 200.337 235.977 200.879 235.977C201.231 235.977 201.549 235.928 201.833 235.83C202.121 235.727 202.369 235.576 202.577 235.375C202.786 235.17 202.947 234.917 203.06 234.614L204.356 234.977C204.219 235.417 203.99 235.803 203.668 236.136C203.346 236.466 202.949 236.723 202.475 236.909C202.002 237.091 201.469 237.182 200.879 237.182ZM209.827 237.182C209.1 237.182 208.458 236.998 207.901 236.631C207.344 236.259 206.909 235.737 206.594 235.062C206.28 234.384 206.123 233.583 206.123 232.659C206.123 231.742 206.28 230.947 206.594 230.273C206.909 229.598 207.346 229.078 207.907 228.71C208.468 228.343 209.115 228.159 209.85 228.159C210.418 228.159 210.867 228.254 211.197 228.443C211.53 228.629 211.784 228.841 211.958 229.08C212.136 229.314 212.274 229.508 212.373 229.659H212.487V225.364H213.827V237H212.532V235.659H212.373C212.274 235.818 212.134 236.019 211.952 236.261C211.771 236.5 211.511 236.714 211.174 236.903C210.837 237.089 210.388 237.182 209.827 237.182ZM210.009 235.977C210.547 235.977 211.002 235.837 211.373 235.557C211.744 235.273 212.026 234.881 212.219 234.381C212.413 233.877 212.509 233.295 212.509 232.636C212.509 231.985 212.415 231.415 212.225 230.926C212.036 230.434 211.755 230.051 211.384 229.778C211.013 229.502 210.555 229.364 210.009 229.364C209.441 229.364 208.968 229.509 208.589 229.801C208.214 230.089 207.932 230.481 207.742 230.977C207.557 231.47 207.464 232.023 207.464 232.636C207.464 233.258 207.558 233.822 207.748 234.33C207.941 234.833 208.225 235.235 208.6 235.534C208.979 235.83 209.449 235.977 210.009 235.977ZM216.651 237V225.364H217.992V229.659H218.106C218.204 229.508 218.341 229.314 218.515 229.08C218.693 228.841 218.947 228.629 219.276 228.443C219.61 228.254 220.06 228.159 220.629 228.159C221.363 228.159 222.011 228.343 222.572 228.71C223.132 229.078 223.57 229.598 223.884 230.273C224.199 230.947 224.356 231.742 224.356 232.659C224.356 233.583 224.199 234.384 223.884 235.062C223.57 235.737 223.134 236.259 222.577 236.631C222.021 236.998 221.379 237.182 220.651 237.182C220.091 237.182 219.642 237.089 219.305 236.903C218.968 236.714 218.708 236.5 218.526 236.261C218.344 236.019 218.204 235.818 218.106 235.659H217.947V237H216.651ZM217.969 232.636C217.969 233.295 218.066 233.877 218.259 234.381C218.452 234.881 218.735 235.273 219.106 235.557C219.477 235.837 219.932 235.977 220.469 235.977C221.03 235.977 221.498 235.83 221.873 235.534C222.252 235.235 222.536 234.833 222.725 234.33C222.918 233.822 223.015 233.258 223.015 232.636C223.015 232.023 222.92 231.47 222.731 230.977C222.545 230.481 222.263 230.089 221.884 229.801C221.509 229.509 221.038 229.364 220.469 229.364C219.924 229.364 219.466 229.502 219.094 229.778C218.723 230.051 218.443 230.434 218.254 230.926C218.064 231.415 217.969 231.985 217.969 232.636ZM228.975 237.205C228.422 237.205 227.92 237.1 227.469 236.892C227.019 236.68 226.661 236.375 226.396 235.977C226.13 235.576 225.998 235.091 225.998 234.523C225.998 234.023 226.096 233.617 226.293 233.307C226.49 232.992 226.754 232.746 227.083 232.568C227.413 232.39 227.776 232.258 228.174 232.17C228.576 232.08 228.979 232.008 229.384 231.955C229.915 231.886 230.344 231.835 230.674 231.801C231.007 231.763 231.25 231.701 231.401 231.614C231.557 231.527 231.634 231.375 231.634 231.159V231.114C231.634 230.553 231.481 230.117 231.174 229.807C230.871 229.496 230.411 229.341 229.793 229.341C229.153 229.341 228.651 229.481 228.288 229.761C227.924 230.042 227.668 230.341 227.521 230.659L226.248 230.205C226.475 229.674 226.778 229.261 227.157 228.966C227.54 228.667 227.956 228.458 228.407 228.341C228.862 228.22 229.308 228.159 229.748 228.159C230.028 228.159 230.35 228.193 230.714 228.261C231.081 228.326 231.435 228.46 231.776 228.665C232.121 228.869 232.407 229.178 232.634 229.591C232.862 230.004 232.975 230.557 232.975 231.25V237H231.634V235.818H231.566C231.475 236.008 231.324 236.21 231.112 236.426C230.899 236.642 230.617 236.826 230.265 236.977C229.913 237.129 229.483 237.205 228.975 237.205ZM229.18 236C229.71 236 230.157 235.896 230.521 235.688C230.888 235.479 231.165 235.21 231.35 234.881C231.54 234.551 231.634 234.205 231.634 233.841V232.614C231.577 232.682 231.452 232.744 231.259 232.801C231.07 232.854 230.85 232.902 230.6 232.943C230.354 232.981 230.113 233.015 229.879 233.045C229.647 233.072 229.46 233.095 229.316 233.114C228.968 233.159 228.642 233.233 228.339 233.335C228.04 233.434 227.797 233.583 227.612 233.784C227.43 233.981 227.339 234.25 227.339 234.591C227.339 235.057 227.511 235.409 227.856 235.648C228.204 235.883 228.646 236 229.18 236ZM238.968 237.182C238.15 237.182 237.445 236.989 236.854 236.602C236.263 236.216 235.809 235.684 235.491 235.006C235.173 234.328 235.013 233.553 235.013 232.682C235.013 231.795 235.176 231.013 235.502 230.335C235.832 229.653 236.29 229.121 236.877 228.739C237.468 228.352 238.157 228.159 238.945 228.159C239.559 228.159 240.112 228.273 240.604 228.5C241.097 228.727 241.5 229.045 241.815 229.455C242.129 229.864 242.324 230.341 242.4 230.886H241.059C240.957 230.489 240.729 230.136 240.377 229.83C240.029 229.519 239.559 229.364 238.968 229.364C238.445 229.364 237.987 229.5 237.593 229.773C237.203 230.042 236.898 230.422 236.678 230.915C236.462 231.403 236.354 231.977 236.354 232.636C236.354 233.311 236.46 233.898 236.673 234.398C236.888 234.898 237.192 235.286 237.582 235.562C237.976 235.839 238.438 235.977 238.968 235.977C239.317 235.977 239.633 235.917 239.917 235.795C240.201 235.674 240.442 235.5 240.638 235.273C240.835 235.045 240.976 234.773 241.059 234.455H242.4C242.324 234.97 242.137 235.434 241.837 235.847C241.542 236.256 241.15 236.581 240.661 236.824C240.176 237.062 239.612 237.182 238.968 237.182ZM245.61 233.818L245.587 232.159H245.86L249.678 228.273H251.337L247.269 232.386H247.156L245.61 233.818ZM244.36 237V225.364H245.701V237H244.36ZM249.906 237L246.496 232.682L247.451 231.75L251.61 237H249.906ZM255.063 235.409L254.972 236.023C254.908 236.455 254.809 236.917 254.677 237.409C254.548 237.902 254.414 238.366 254.273 238.801C254.133 239.237 254.018 239.583 253.927 239.841H252.904C252.953 239.598 253.018 239.278 253.097 238.881C253.177 238.483 253.256 238.038 253.336 237.545C253.419 237.057 253.487 236.557 253.54 236.045L253.609 235.409H255.063ZM262.048 237V228.273H263.343V229.591H263.434C263.593 229.159 263.881 228.809 264.298 228.54C264.714 228.271 265.184 228.136 265.707 228.136C265.805 228.136 265.928 228.138 266.076 228.142C266.224 228.146 266.335 228.152 266.411 228.159V229.523C266.366 229.511 266.262 229.494 266.099 229.472C265.94 229.445 265.771 229.432 265.593 229.432C265.169 229.432 264.79 229.521 264.457 229.699C264.127 229.873 263.866 230.116 263.673 230.426C263.483 230.733 263.388 231.083 263.388 231.477V237H262.048ZM271.394 237.182C270.553 237.182 269.828 236.996 269.218 236.625C268.612 236.25 268.144 235.727 267.815 235.057C267.489 234.383 267.326 233.598 267.326 232.705C267.326 231.811 267.489 231.023 267.815 230.341C268.144 229.655 268.603 229.121 269.19 228.739C269.781 228.352 270.47 228.159 271.258 228.159C271.712 228.159 272.161 228.235 272.604 228.386C273.048 228.538 273.451 228.784 273.815 229.125C274.178 229.462 274.468 229.909 274.684 230.466C274.9 231.023 275.008 231.708 275.008 232.523V233.091H268.281V231.932H273.644C273.644 231.439 273.546 231 273.349 230.614C273.156 230.227 272.879 229.922 272.519 229.699C272.163 229.475 271.743 229.364 271.258 229.364C270.724 229.364 270.262 229.496 269.871 229.761C269.485 230.023 269.188 230.364 268.979 230.784C268.771 231.205 268.667 231.655 268.667 232.136V232.909C268.667 233.568 268.781 234.127 269.008 234.585C269.239 235.04 269.559 235.386 269.968 235.625C270.377 235.86 270.853 235.977 271.394 235.977C271.746 235.977 272.065 235.928 272.349 235.83C272.637 235.727 272.885 235.576 273.093 235.375C273.301 235.17 273.462 234.917 273.576 234.614L274.871 234.977C274.735 235.417 274.506 235.803 274.184 236.136C273.862 236.466 273.464 236.723 272.991 236.909C272.517 237.091 271.985 237.182 271.394 237.182ZM279.616 237.205C279.063 237.205 278.561 237.1 278.11 236.892C277.659 236.68 277.301 236.375 277.036 235.977C276.771 235.576 276.638 235.091 276.638 234.523C276.638 234.023 276.737 233.617 276.934 233.307C277.131 232.992 277.394 232.746 277.724 232.568C278.053 232.39 278.417 232.258 278.815 232.17C279.216 232.08 279.62 232.008 280.025 231.955C280.555 231.886 280.985 231.835 281.315 231.801C281.648 231.763 281.89 231.701 282.042 231.614C282.197 231.527 282.275 231.375 282.275 231.159V231.114C282.275 230.553 282.121 230.117 281.815 229.807C281.512 229.496 281.051 229.341 280.434 229.341C279.794 229.341 279.292 229.481 278.928 229.761C278.565 230.042 278.309 230.341 278.161 230.659L276.888 230.205C277.116 229.674 277.419 229.261 277.798 228.966C278.18 228.667 278.597 228.458 279.048 228.341C279.502 228.22 279.949 228.159 280.388 228.159C280.669 228.159 280.991 228.193 281.354 228.261C281.722 228.326 282.076 228.46 282.417 228.665C282.762 228.869 283.048 229.178 283.275 229.591C283.502 230.004 283.616 230.557 283.616 231.25V237H282.275V235.818H282.207C282.116 236.008 281.964 236.21 281.752 236.426C281.54 236.642 281.258 236.826 280.906 236.977C280.553 237.129 280.123 237.205 279.616 237.205ZM279.82 236C280.351 236 280.798 235.896 281.161 235.688C281.529 235.479 281.805 235.21 281.991 234.881C282.18 234.551 282.275 234.205 282.275 233.841V232.614C282.218 232.682 282.093 232.744 281.9 232.801C281.71 232.854 281.491 232.902 281.241 232.943C280.995 232.981 280.754 233.015 280.519 233.045C280.288 233.072 280.101 233.095 279.957 233.114C279.608 233.159 279.282 233.233 278.979 233.335C278.68 233.434 278.438 233.583 278.252 233.784C278.07 233.981 277.979 234.25 277.979 234.591C277.979 235.057 278.152 235.409 278.496 235.648C278.845 235.883 279.286 236 279.82 236ZM289.609 237.182C288.79 237.182 288.086 236.989 287.495 236.602C286.904 236.216 286.45 235.684 286.131 235.006C285.813 234.328 285.654 233.553 285.654 232.682C285.654 231.795 285.817 231.013 286.143 230.335C286.472 229.653 286.931 229.121 287.518 228.739C288.109 228.352 288.798 228.159 289.586 228.159C290.2 228.159 290.753 228.273 291.245 228.5C291.737 228.727 292.141 229.045 292.455 229.455C292.77 229.864 292.965 230.341 293.04 230.886H291.7C291.597 230.489 291.37 230.136 291.018 229.83C290.669 229.519 290.2 229.364 289.609 229.364C289.086 229.364 288.628 229.5 288.234 229.773C287.844 230.042 287.539 230.422 287.319 230.915C287.103 231.403 286.995 231.977 286.995 232.636C286.995 233.311 287.101 233.898 287.313 234.398C287.529 234.898 287.832 235.286 288.222 235.562C288.616 235.839 289.078 235.977 289.609 235.977C289.957 235.977 290.273 235.917 290.558 235.795C290.842 235.674 291.082 235.5 291.279 235.273C291.476 235.045 291.616 234.773 291.7 234.455H293.04C292.965 234.97 292.777 235.434 292.478 235.847C292.183 236.256 291.79 236.581 291.302 236.824C290.817 237.062 290.253 237.182 289.609 237.182ZM296.342 231.75V237H295.001V225.364H296.342V229.636H296.455C296.66 229.186 296.967 228.828 297.376 228.562C297.789 228.294 298.338 228.159 299.023 228.159C299.618 228.159 300.139 228.278 300.586 228.517C301.033 228.752 301.379 229.114 301.626 229.602C301.876 230.087 302.001 230.705 302.001 231.455V237H300.66V231.545C300.66 230.852 300.48 230.316 300.12 229.938C299.764 229.555 299.27 229.364 298.637 229.364C298.198 229.364 297.804 229.456 297.455 229.642C297.111 229.828 296.838 230.098 296.637 230.455C296.44 230.811 296.342 231.242 296.342 231.75ZM312.499 237.182C311.711 237.182 311.02 236.994 310.425 236.619C309.835 236.244 309.372 235.72 309.039 235.045C308.71 234.371 308.545 233.583 308.545 232.682C308.545 231.773 308.71 230.979 309.039 230.301C309.372 229.623 309.835 229.097 310.425 228.722C311.02 228.347 311.711 228.159 312.499 228.159C313.287 228.159 313.977 228.347 314.567 228.722C315.162 229.097 315.624 229.623 315.954 230.301C316.287 230.979 316.454 231.773 316.454 232.682C316.454 233.583 316.287 234.371 315.954 235.045C315.624 235.72 315.162 236.244 314.567 236.619C313.977 236.994 313.287 237.182 312.499 237.182ZM312.499 235.977C313.098 235.977 313.59 235.824 313.977 235.517C314.363 235.21 314.649 234.807 314.835 234.307C315.02 233.807 315.113 233.265 315.113 232.682C315.113 232.098 315.02 231.555 314.835 231.051C314.649 230.547 314.363 230.14 313.977 229.83C313.59 229.519 313.098 229.364 312.499 229.364C311.901 229.364 311.408 229.519 311.022 229.83C310.636 230.14 310.35 230.547 310.164 231.051C309.978 231.555 309.886 232.098 309.886 232.682C309.886 233.265 309.978 233.807 310.164 234.307C310.35 234.807 310.636 235.21 311.022 235.517C311.408 235.824 311.901 235.977 312.499 235.977ZM324.001 233.432V228.273H325.342V237H324.001V235.523H323.91C323.705 235.966 323.387 236.343 322.955 236.653C322.523 236.96 321.978 237.114 321.319 237.114C320.773 237.114 320.289 236.994 319.864 236.756C319.44 236.513 319.107 236.15 318.864 235.665C318.622 235.176 318.501 234.561 318.501 233.818V228.273H319.842V233.727C319.842 234.364 320.02 234.871 320.376 235.25C320.736 235.629 321.194 235.818 321.751 235.818C322.084 235.818 322.423 235.733 322.768 235.562C323.116 235.392 323.408 235.131 323.643 234.778C323.881 234.426 324.001 233.977 324.001 233.432ZM331.593 228.273V229.409H327.07V228.273H331.593ZM328.388 226.182H329.729V234.5C329.729 234.879 329.784 235.163 329.894 235.352C330.008 235.538 330.152 235.663 330.326 235.727C330.504 235.788 330.692 235.818 330.888 235.818C331.036 235.818 331.157 235.811 331.252 235.795C331.347 235.777 331.423 235.761 331.479 235.75L331.752 236.955C331.661 236.989 331.534 237.023 331.371 237.057C331.209 237.095 331.002 237.114 330.752 237.114C330.373 237.114 330.002 237.032 329.638 236.869C329.279 236.706 328.979 236.458 328.741 236.125C328.506 235.792 328.388 235.371 328.388 234.864V226.182ZM159.194 263.205C158.641 263.205 158.139 263.1 157.688 262.892C157.237 262.68 156.879 262.375 156.614 261.977C156.349 261.576 156.217 261.091 156.217 260.523C156.217 260.023 156.315 259.617 156.512 259.307C156.709 258.992 156.972 258.746 157.302 258.568C157.631 258.39 157.995 258.258 158.393 258.17C158.794 258.08 159.198 258.008 159.603 257.955C160.133 257.886 160.563 257.835 160.893 257.801C161.226 257.763 161.469 257.701 161.62 257.614C161.775 257.527 161.853 257.375 161.853 257.159V257.114C161.853 256.553 161.7 256.117 161.393 255.807C161.09 255.496 160.629 255.341 160.012 255.341C159.372 255.341 158.87 255.481 158.506 255.761C158.143 256.042 157.887 256.341 157.739 256.659L156.467 256.205C156.694 255.674 156.997 255.261 157.376 254.966C157.758 254.667 158.175 254.458 158.626 254.341C159.08 254.22 159.527 254.159 159.967 254.159C160.247 254.159 160.569 254.193 160.933 254.261C161.3 254.326 161.654 254.46 161.995 254.665C162.34 254.869 162.626 255.178 162.853 255.591C163.08 256.004 163.194 256.557 163.194 257.25V263H161.853V261.818H161.785C161.694 262.008 161.542 262.21 161.33 262.426C161.118 262.642 160.836 262.826 160.484 262.977C160.131 263.129 159.701 263.205 159.194 263.205ZM159.398 262C159.929 262 160.376 261.896 160.739 261.688C161.107 261.479 161.383 261.21 161.569 260.881C161.758 260.551 161.853 260.205 161.853 259.841V258.614C161.796 258.682 161.671 258.744 161.478 258.801C161.289 258.854 161.069 258.902 160.819 258.943C160.573 258.981 160.332 259.015 160.097 259.045C159.866 259.072 159.679 259.095 159.535 259.114C159.186 259.159 158.861 259.233 158.558 259.335C158.258 259.434 158.016 259.583 157.83 259.784C157.648 259.981 157.558 260.25 157.558 260.591C157.558 261.057 157.73 261.409 158.075 261.648C158.423 261.883 158.864 262 159.398 262ZM166.982 257.75V263H165.641V254.273H166.937V255.636H167.05C167.255 255.193 167.566 254.837 167.982 254.568C168.399 254.295 168.937 254.159 169.596 254.159C170.187 254.159 170.704 254.28 171.147 254.523C171.59 254.761 171.935 255.125 172.181 255.614C172.427 256.098 172.55 256.712 172.55 257.455V263H171.21V257.545C171.21 256.86 171.031 256.326 170.675 255.943C170.319 255.557 169.831 255.364 169.21 255.364C168.781 255.364 168.399 255.456 168.062 255.642C167.728 255.828 167.465 256.098 167.272 256.455C167.079 256.811 166.982 257.242 166.982 257.75ZM175.552 266.273C175.325 266.273 175.122 266.254 174.944 266.216C174.766 266.182 174.643 266.148 174.575 266.114L174.915 264.932C175.241 265.015 175.529 265.045 175.779 265.023C176.029 265 176.251 264.888 176.444 264.688C176.641 264.491 176.821 264.17 176.984 263.727L177.234 263.045L174.006 254.273H175.461L177.87 261.227H177.961L180.37 254.273H181.825L178.12 264.273C177.953 264.723 177.747 265.097 177.501 265.392C177.254 265.691 176.969 265.913 176.643 266.057C176.321 266.201 175.957 266.273 175.552 266.273ZM187.39 254.273V255.409H182.867V254.273H187.39ZM184.185 252.182H185.526V260.5C185.526 260.879 185.581 261.163 185.691 261.352C185.805 261.538 185.949 261.663 186.123 261.727C186.301 261.788 186.488 261.818 186.685 261.818C186.833 261.818 186.954 261.811 187.049 261.795C187.144 261.777 187.219 261.761 187.276 261.75L187.549 262.955C187.458 262.989 187.331 263.023 187.168 263.057C187.005 263.095 186.799 263.114 186.549 263.114C186.17 263.114 185.799 263.032 185.435 262.869C185.076 262.706 184.776 262.458 184.538 262.125C184.303 261.792 184.185 261.371 184.185 260.864V252.182ZM189.407 263V254.273H190.748V263H189.407ZM190.089 252.818C189.827 252.818 189.602 252.729 189.413 252.551C189.227 252.373 189.134 252.159 189.134 251.909C189.134 251.659 189.227 251.445 189.413 251.267C189.602 251.089 189.827 251 190.089 251C190.35 251 190.574 251.089 190.759 251.267C190.949 251.445 191.043 251.659 191.043 251.909C191.043 252.159 190.949 252.373 190.759 252.551C190.574 252.729 190.35 252.818 190.089 252.818ZM193.204 263V254.273H194.499V255.636H194.613C194.795 255.17 195.088 254.809 195.494 254.551C195.899 254.29 196.386 254.159 196.954 254.159C197.53 254.159 198.009 254.29 198.391 254.551C198.778 254.809 199.079 255.17 199.295 255.636H199.386C199.609 255.186 199.944 254.828 200.391 254.562C200.838 254.294 201.374 254.159 201.999 254.159C202.78 254.159 203.418 254.403 203.914 254.892C204.41 255.377 204.658 256.133 204.658 257.159V263H203.317V257.159C203.317 256.515 203.141 256.055 202.789 255.778C202.437 255.502 202.022 255.364 201.545 255.364C200.931 255.364 200.456 255.549 200.119 255.92C199.781 256.288 199.613 256.754 199.613 257.318V263H198.249V257.023C198.249 256.527 198.088 256.127 197.766 255.824C197.444 255.517 197.03 255.364 196.522 255.364C196.174 255.364 195.848 255.456 195.545 255.642C195.246 255.828 195.003 256.085 194.817 256.415C194.636 256.741 194.545 257.117 194.545 257.545V263H193.204ZM210.769 263.182C209.928 263.182 209.203 262.996 208.593 262.625C207.987 262.25 207.519 261.727 207.19 261.057C206.864 260.383 206.701 259.598 206.701 258.705C206.701 257.811 206.864 257.023 207.19 256.341C207.519 255.655 207.978 255.121 208.565 254.739C209.156 254.352 209.845 254.159 210.633 254.159C211.087 254.159 211.536 254.235 211.979 254.386C212.423 254.538 212.826 254.784 213.19 255.125C213.553 255.462 213.843 255.909 214.059 256.466C214.275 257.023 214.383 257.708 214.383 258.523V259.091H207.656V257.932H213.019C213.019 257.439 212.921 257 212.724 256.614C212.531 256.227 212.254 255.922 211.894 255.699C211.538 255.475 211.118 255.364 210.633 255.364C210.099 255.364 209.637 255.496 209.246 255.761C208.86 256.023 208.563 256.364 208.354 256.784C208.146 257.205 208.042 257.655 208.042 258.136V258.909C208.042 259.568 208.156 260.127 208.383 260.585C208.614 261.04 208.934 261.386 209.343 261.625C209.752 261.86 210.228 261.977 210.769 261.977C211.121 261.977 211.44 261.928 211.724 261.83C212.012 261.727 212.26 261.576 212.468 261.375C212.676 261.17 212.837 260.917 212.951 260.614L214.246 260.977C214.11 261.417 213.881 261.803 213.559 262.136C213.237 262.466 212.839 262.723 212.366 262.909C211.892 263.091 211.36 263.182 210.769 263.182ZM217.4 263.091C217.12 263.091 216.879 262.991 216.678 262.79C216.478 262.589 216.377 262.348 216.377 262.068C216.377 261.788 216.478 261.547 216.678 261.347C216.879 261.146 217.12 261.045 217.4 261.045C217.68 261.045 217.921 261.146 218.121 261.347C218.322 261.547 218.423 261.788 218.423 262.068C218.423 262.254 218.375 262.424 218.281 262.58C218.19 262.735 218.067 262.86 217.911 262.955C217.76 263.045 217.589 263.091 217.4 263.091Z" fill="#2A58B7" fill-opacity="0.9"/>
<defs>
<linearGradient id="paint0_linear_113_923" x1="0" y1="159" x2="375" y2="159" gradientUnits="userSpaceOnUse">
<stop offset="0.09" stop-color="#F96803"/>
<stop offset="0.44" stop-color="#FEDF5F"/>
<stop offset="0.97" stop-color="#F3AB0C"/>
</linearGradient>
</defs>
</svg>
