<svg width="60" height="60" viewBox="0 0 60 60" fill="none" xmlns="http://www.w3.org/2000/svg">
<g filter="url(#filter0_dd_73_4594)">
<path d="M6 26C6 12.7452 16.7452 2 30 2C43.2548 2 54 12.7452 54 26C54 39.2548 43.2548 50 30 50C16.7452 50 6 39.2548 6 26Z" fill="white"/>
<path d="M38.5781 25.4539C38.5781 30.4285 35.1715 33.9688 30.1406 33.9688C25.3172 33.9688 21.4219 30.0734 21.4219 25.25C21.4219 20.4266 25.3172 16.5312 30.1406 16.5312C32.4891 16.5312 34.4648 17.3926 35.9871 18.8129L33.6141 21.0945C30.5098 18.0992 24.7371 20.3492 24.7371 25.25C24.7371 28.291 27.1664 30.7555 30.1406 30.7555C33.593 30.7555 34.8867 28.2805 35.0906 26.9973H30.1406V23.9984H38.441C38.5219 24.4449 38.5781 24.8738 38.5781 25.4539Z" fill="#EF4444"/>
</g>
<defs>
<filter id="filter0_dd_73_4594" x="0" y="0" width="60" height="60" filterUnits="userSpaceOnUse" color-interpolation-filters="sRGB">
<feFlood flood-opacity="0" result="BackgroundImageFix"/>
<feColorMatrix in="SourceAlpha" type="matrix" values="0 0 0 0 0 0 0 0 0 0 0 0 0 0 0 0 0 0 127 0" result="hardAlpha"/>
<feOffset dy="4"/>
<feGaussianBlur stdDeviation="3"/>
<feColorMatrix type="matrix" values="0 0 0 0 0 0 0 0 0 0 0 0 0 0 0 0 0 0 0.1 0"/>
<feBlend mode="normal" in2="BackgroundImageFix" result="effect1_dropShadow_73_4594"/>
<feColorMatrix in="SourceAlpha" type="matrix" values="0 0 0 0 0 0 0 0 0 0 0 0 0 0 0 0 0 0 127 0" result="hardAlpha"/>
<feOffset dy="2"/>
<feGaussianBlur stdDeviation="2"/>
<feColorMatrix type="matrix" values="0 0 0 0 0 0 0 0 0 0 0 0 0 0 0 0 0 0 0.1 0"/>
<feBlend mode="normal" in2="effect1_dropShadow_73_4594" result="effect2_dropShadow_73_4594"/>
<feBlend mode="normal" in="SourceGraphic" in2="effect2_dropShadow_73_4594" result="shape"/>
</filter>
</defs>
</svg>
