<svg width="48" height="48" viewBox="0 0 48 48" fill="none" xmlns="http://www.w3.org/2000/svg">
<path d="M0 12C0 5.37258 5.37258 0 12 0H36C42.6274 0 48 5.37258 48 12V36C48 42.6274 42.6274 48 36 48H12C5.37258 48 0 42.6274 0 36V12Z" fill="#22C55E"/>
<path d="M24.8332 31.8C26.6367 29.543 30.75 24.0727 30.75 21C30.75 17.2734 27.7266 14.25 24 14.25C20.2734 14.25 17.25 17.2734 17.25 21C17.25 24.0727 21.3633 29.543 23.1668 31.8C23.5992 32.3379 24.4008 32.3379 24.8332 31.8ZM24 18.75C24.5967 18.75 25.169 18.9871 25.591 19.409C26.0129 19.831 26.25 20.4033 26.25 21C26.25 21.5967 26.0129 22.169 25.591 22.591C25.169 23.0129 24.5967 23.25 24 23.25C23.4033 23.25 22.831 23.0129 22.409 22.591C21.9871 22.169 21.75 21.5967 21.75 21C21.75 20.4033 21.9871 19.831 22.409 19.409C22.831 18.9871 23.4033 18.75 24 18.75Z" fill="white"/>
</svg>
