<svg width="184" height="175" viewBox="0 0 184 175" fill="none" xmlns="http://www.w3.org/2000/svg">
<path d="M84.3171 29.5986C84.3171 29.5986 59.6523 30.6845 46.586 56.4745C33.5198 82.2645 20.029 74.2146 12.0616 97.479C4.09421 120.743 20.1604 147.198 30.93 150.065C41.6995 152.931 164.712 150.065 164.712 150.065C164.712 150.065 180.966 138.952 182.24 110.089C183.515 81.2262 159.295 71.5863 149.256 67.4829C139.218 63.3791 123.748 28.9613 84.3171 29.5986Z" fill="#F3F5F4"/>
<path d="M119.658 100.131C148.071 81.0144 153.58 71.1985 167.604 69.3731C201.761 64.9277 176.735 153.222 98.5161 172.089C61.353 181.054 15.3186 156.604 8.73504 137.607C2.37031 119.241 19.5063 112.352 44.8093 122.202C70.1131 132.053 105.182 109.872 119.658 100.131Z" stroke="#BBBFBD" stroke-miterlimit="10"/>
<path d="M153.002 81.2461C154.615 79.4833 154.493 76.7469 152.73 75.1341C150.968 73.5214 148.231 73.643 146.618 75.4058C145.006 77.1686 145.127 79.9051 146.89 81.5178C148.653 83.1306 151.389 83.0089 153.002 81.2461Z" fill="#D9D9D9"/>
<path d="M151.127 166.393C152.817 164.704 152.817 161.964 151.127 160.275C149.438 158.586 146.699 158.586 145.009 160.275C143.32 161.964 143.32 164.704 145.009 166.393C146.699 168.082 149.438 168.082 151.127 166.393Z" stroke="#BBBFBD" stroke-miterlimit="10"/>
<path d="M91.7246 69.2539C94.1138 69.2539 96.0507 67.317 96.0507 64.9277C96.0507 62.5384 94.1138 60.6016 91.7246 60.6016C89.3353 60.6016 87.3984 62.5384 87.3984 64.9277C87.3984 67.317 89.3353 69.2539 91.7246 69.2539Z" stroke="#BBBFBD" stroke-miterlimit="10"/>
<path d="M79.4829 82.2109L75.0947 88.3193H83.4343L79.4829 82.2109Z" stroke="#BBBFBD" stroke-miterlimit="10" stroke-linecap="round" stroke-linejoin="round"/>
<path d="M58.861 159.805L56.1025 165.116H64.4416L58.861 159.805Z" fill="#D9D9D9"/>
<path d="M17.9603 94.4995C19.0077 90.0636 16.2609 85.6185 11.825 84.5711C7.3891 83.5237 2.94399 86.2705 1.89655 90.7064C0.849115 95.1423 3.596 99.5874 8.03188 100.635C12.4678 101.682 16.9129 98.9354 17.9603 94.4995Z" stroke="#BBBFBD" stroke-miterlimit="10" stroke-linecap="round" stroke-linejoin="round"/>
<path d="M13.3665 109.8V109.648C13.3834 108.037 13.5521 106.756 13.8725 105.803C14.193 104.85 14.6483 104.078 15.2387 103.488C15.829 102.898 16.5373 102.354 17.3637 101.856C17.8613 101.553 18.3082 101.194 18.7046 100.781C19.1009 100.359 19.4129 99.8744 19.6406 99.3262C19.8768 98.7781 19.9948 98.1709 19.9948 97.5047C19.9948 96.6783 19.8009 95.9615 19.4129 95.3543C19.025 94.7472 18.5064 94.2791 17.8571 93.9503C17.2077 93.6214 16.4867 93.4569 15.694 93.4569C15.0025 93.4569 14.3363 93.6003 13.6954 93.887C13.0545 94.1737 12.519 94.6249 12.089 95.2405C11.6589 95.8561 11.4101 96.6614 11.3426 97.6565H8.15501C8.22247 96.2229 8.59352 94.9959 9.26815 93.9756C9.95122 92.9552 10.8493 92.1751 11.9625 91.6354C13.084 91.0957 14.3279 90.8259 15.694 90.8259C17.1782 90.8259 18.4685 91.121 19.5647 91.7113C20.6694 92.3016 21.5212 93.1112 22.1199 94.14C22.7271 95.1688 23.0307 96.341 23.0307 97.6565C23.0307 98.5841 22.8873 99.4232 22.6006 100.174C22.3223 100.924 21.9175 101.595 21.3862 102.185C20.8634 102.775 20.2309 103.298 19.4888 103.754C18.7467 104.217 18.1522 104.706 17.7053 105.221C17.2583 105.727 16.9337 106.33 16.7313 107.03C16.5289 107.73 16.4193 108.602 16.4024 109.648V109.8H13.3665ZM14.9857 117.288C14.3616 117.288 13.8261 117.065 13.3792 116.618C12.9323 116.171 12.7088 115.635 12.7088 115.011C12.7088 114.387 12.9323 113.852 13.3792 113.405C13.8261 112.958 14.3616 112.735 14.9857 112.735C15.6097 112.735 16.1452 112.958 16.5921 113.405C17.0391 113.852 17.2626 114.387 17.2626 115.011C17.2626 115.425 17.1571 115.804 16.9463 116.15C16.7439 116.496 16.4699 116.774 16.1241 116.985C15.7868 117.187 15.4073 117.288 14.9857 117.288Z" fill="#1A1A2E"/>
<path d="M100.754 38.1014C103.977 34.8784 103.977 29.6529 100.754 26.4299C97.5308 23.2069 92.3053 23.2069 89.0823 26.4299C85.8593 29.6529 85.8593 34.8784 89.0823 38.1014C92.3053 41.3243 97.5308 41.3243 100.754 38.1014Z" fill="#1A1A2E"/>
<path d="M98.3529 49.4679V49.3161C98.3697 47.7054 98.5384 46.4236 98.8588 45.4707C99.1793 44.5178 99.6347 43.7461 100.225 43.1558C100.815 42.5655 101.524 42.0216 102.35 41.5241C102.848 41.2205 103.295 40.8621 103.691 40.4489C104.087 40.0272 104.399 39.5423 104.627 38.9942C104.863 38.4461 104.981 37.8389 104.981 37.1727C104.981 36.3463 104.787 35.6295 104.399 35.0223C104.011 34.4151 103.493 33.9471 102.843 33.6182C102.194 33.2893 101.473 33.1249 100.68 33.1249C99.9889 33.1249 99.3227 33.2683 98.6818 33.555C98.0409 33.8417 97.5054 34.2929 97.0753 34.9085C96.6452 35.5241 96.3964 36.3294 96.329 37.3245H93.1413C93.2088 35.8909 93.5798 34.6639 94.2545 33.6435C94.9375 32.6231 95.8357 31.8431 96.9488 31.3034C98.0704 30.7637 99.3142 30.4938 100.68 30.4938C102.165 30.4938 103.455 30.789 104.551 31.3793C105.656 31.9696 106.507 32.7791 107.106 33.808C107.713 34.8368 108.017 36.009 108.017 37.3245C108.017 38.2521 107.874 39.0912 107.587 39.8417C107.309 40.5922 106.904 41.2627 106.373 41.853C105.85 42.4433 105.217 42.9661 104.475 43.4215C103.733 43.8853 103.139 44.3744 102.692 44.8888C102.245 45.3948 101.92 45.9977 101.718 46.6977C101.515 47.3976 101.406 48.2704 101.389 49.3161V49.4679H98.3529ZM99.972 56.9563C99.348 56.9563 98.8125 56.7328 98.3655 56.2859C97.9186 55.8389 97.6951 55.3034 97.6951 54.6794C97.6951 54.0554 97.9186 53.5199 98.3655 53.0729C98.8125 52.626 99.348 52.4025 99.972 52.4025C100.596 52.4025 101.132 52.626 101.578 53.0729C102.025 53.5199 102.249 54.0554 102.249 54.6794C102.249 55.0926 102.143 55.4721 101.933 55.8179C101.73 56.1636 101.456 56.4419 101.11 56.6527C100.773 56.8551 100.394 56.9563 99.972 56.9563Z" fill="white"/>
<path d="M35.4401 96.9982C35.9653 94.7633 34.5794 92.5258 32.3446 92.0006C30.1098 91.4753 27.8723 92.8612 27.347 95.0961C26.8218 97.3309 28.2077 99.5684 30.4425 100.094C32.6773 100.619 34.9148 99.233 35.4401 96.9982Z" fill="#D9D9D9"/>
<path d="M178.639 21.7617H141.443C139.32 21.7617 137.599 23.4827 137.599 25.6061V47.9929C137.599 50.1162 139.32 51.8373 141.443 51.8373H149.014L147.513 55.7166C147.078 56.84 148.379 57.8351 149.35 57.1218L156.54 51.8368H178.64C180.763 51.8368 182.484 50.1158 182.484 47.9925V25.6056C182.484 23.4827 180.762 21.7617 178.639 21.7617Z" fill="#2A58B7"/>
<path d="M141.986 28.0371H177.567" stroke="white" stroke-miterlimit="10" stroke-linecap="round" stroke-linejoin="round"/>
<path d="M141.986 31.2695H177.567" stroke="white" stroke-miterlimit="10" stroke-linecap="round" stroke-linejoin="round"/>
<path d="M141.986 34.5H177.567" stroke="white" stroke-miterlimit="10" stroke-linecap="round" stroke-linejoin="round"/>
<path d="M141.986 37.7324H177.567" stroke="white" stroke-miterlimit="10" stroke-linecap="round" stroke-linejoin="round"/>
<path d="M141.986 40.9648H177.567" stroke="white" stroke-miterlimit="10" stroke-linecap="round" stroke-linejoin="round"/>
<path d="M141.986 44.1973H177.567" stroke="white" stroke-miterlimit="10" stroke-linecap="round" stroke-linejoin="round"/>
<path d="M62.3361 92.9262C62.3361 92.9262 61.9573 89.7467 61.4655 88.2322C60.9732 86.7183 58.8914 83.8414 58.8914 83.8414C58.8914 83.8414 58.0588 85.6206 59.2701 87.0965C59.2701 87.0965 59.1945 89.4435 59.3081 90.2761C59.3081 90.2761 55.3729 86.9148 54.6159 86.5741C54.1359 86.191 53.5501 85.7241 52.835 85.1541C50.2234 83.0722 48.4823 83.7156 48.709 83.8672C48.8653 83.9712 51.8522 86.3867 53.7012 87.8841L53.4592 88.2305C52.8975 87.7823 52.0029 87.0682 50.6772 86.0115C48.0655 83.9297 46.324 84.5731 46.5511 84.7247C46.7411 84.8513 51.1132 88.3926 52.5389 89.5479L52.1182 90.1507C51.5652 89.7095 50.6453 88.9753 49.2384 87.854C46.6267 85.7721 44.8856 86.4156 45.1123 86.5671C45.3067 86.6969 49.8875 90.408 51.1975 91.4694L50.7515 92.1085C50.2653 91.6669 48.9147 90.4674 47.6108 89.5575C45.9833 88.4218 44.8096 88.9517 44.8096 88.9517C44.8096 88.9517 44.8096 88.9517 45.5286 89.5951C46.2475 90.2385 49.9949 93.1913 49.9949 93.1913C49.9949 93.1913 55.7162 98.3015 57.152 98.7934L58.552 100.129L63.7033 94.5533L62.3361 92.9262Z" fill="#FEE2E2"/>
<path d="M103.523 128.224C100.451 132.653 96.1548 135.389 90.4426 134.227C75.1461 131.117 57.0845 101.425 57.0845 101.425L57.9935 100.441L64.7347 93.1479L88.1966 114.468L95.5231 103.862L102.68 93.5048L106.217 88.3867C106.217 88.3867 108.288 91.6619 109.591 102.073C110.405 108.597 108.687 120.794 103.523 128.224Z" fill="#FFB300"/>
<path d="M103.523 128.224C100.451 132.653 96.1548 135.389 90.4426 134.226C75.1461 131.117 57.0845 101.425 57.0845 101.425L57.9935 100.441L58.5539 100.129C58.5539 100.129 80.0772 129.739 89.1475 125.335C94.7557 122.611 95.6564 111.756 95.5236 103.861L102.68 93.5039L103.523 128.224Z" fill="#2A58B7"/>
<path d="M160.978 125.334L159.584 149.877H154.179L156.303 125.334H160.978Z" fill="#1A1A2E"/>
<path d="M127.896 125.334L126.502 149.877H121.097L123.222 125.334H127.896Z" fill="#FEE2E2"/>
<path d="M161.531 129.583H118.71C114.454 129.583 111.003 126.132 111.003 121.876V97.9234C111.003 93.6671 114.454 90.2168 118.71 90.2168H161.531C165.787 90.2168 169.237 93.6671 169.237 97.9234V121.876C169.237 126.132 165.787 129.583 161.531 129.583Z" fill="#1A1A2E"/>
<path d="M157.919 129.583H115.099C110.842 129.583 107.392 126.132 107.392 121.876V97.9234C107.392 93.6671 110.842 90.2168 115.099 90.2168H157.919C162.176 90.2168 165.626 93.6671 165.626 97.9234V121.876C165.626 126.132 162.175 129.583 157.919 129.583Z" fill="#2A58B7"/>
<path d="M125.643 79.1662C125.643 79.1662 134.089 77.8099 145.45 89.564L148.071 149.877H100.587C100.587 149.877 95.4018 109.188 101.445 94.7175C107.49 80.2469 118.345 78.5193 125.643 79.1662Z" fill="#FEE2E2"/>
<path d="M109.076 46.4561L111.161 43.6016L128.936 49.5526L128.781 56.2288H129.955C132.339 56.2288 134.272 58.1613 134.272 60.5454C134.272 62.9295 132.339 64.8619 129.955 64.8619H128.582L128.372 73.9235V81.8865L115.504 83.656L115.189 78.33L115.022 75.5318L113.155 74.6403C107.81 72.0898 104.405 66.6943 104.405 60.7716C104.405 55.6234 106.042 50.611 109.076 46.4561Z" fill="#F5D9D9"/>
<path d="M115.022 75.5302L115.189 78.3284C115.662 78.2721 116.157 78.1987 116.671 78.1052C124.619 76.6563 127.73 69.4726 127.408 65.7715C127.408 65.7715 124.728 74.6728 115.022 75.5302Z" fill="#D37A57"/>
<path d="M130.088 59.3077C129.755 59.5598 129.449 59.893 129.339 60.3098C129.339 60.3098 130.002 60.5308 130.063 61.2751C130.123 62.019 129.339 62.3409 129.339 62.3409C129.339 62.3409 129.942 63.3464 130.948 62.8035C131.953 62.2605 131.786 60.3652 130.787 59.9682C130.787 59.9682 132.376 59.7873 132.958 60.3705C132.958 60.3705 133.091 59.7856 132.428 59.2684C131.743 58.7342 130.779 58.784 130.088 59.3077Z" fill="#D37A57"/>
<path d="M109.077 46.4558C109.077 46.4558 111.483 50.5985 114.593 51.9391C117.703 53.2796 121.028 51.3284 124.138 53.1084C127.248 54.8884 125.264 58.2243 125.961 59.8274C126.658 61.43 127.431 61.6445 127.431 61.6445C127.431 61.6445 127.849 57.0868 128.782 56.229C128.782 56.229 131.574 56.2054 132.444 57.0191C132.444 57.0191 134.004 53.8697 134.272 51.4031C134.54 48.9364 131.805 48.1323 131.805 48.1323C131.805 48.1323 131.162 42.2341 123.923 40.0356C116.684 37.8371 111.162 41.3224 108.266 40.0356C105.371 38.7488 102.743 40.6795 102.583 43.6017C102.422 46.5235 104.406 47.5963 104.406 47.5963C104.406 47.5963 103.065 48.7263 103.602 50.467C104.138 52.2077 105.821 52.6096 105.821 52.6096C105.821 52.6096 107.801 48.1956 109.077 46.4558Z" fill="#3F2D1F"/>
<path d="M110.518 67.6551L117.888 67.293C117.888 67.293 116.182 69.9475 113.754 69.9221C111.517 69.8985 110.518 67.6551 110.518 67.6551Z" fill="white"/>
<path d="M118.99 55.6507C118.897 55.6507 118.803 55.6197 118.726 55.5559C117.171 54.2744 115.641 55.3629 115.625 55.3747C115.44 55.5105 115.18 55.4695 115.045 55.2843C114.91 55.099 114.95 54.8396 115.136 54.7042C115.843 54.1874 117.615 53.5654 119.254 54.9151C119.431 55.061 119.456 55.3227 119.31 55.4996C119.228 55.5992 119.11 55.6507 118.99 55.6507Z" fill="#3F2D1F"/>
<path d="M109.824 55.6507C109.731 55.6507 109.638 55.6197 109.561 55.5559C108.005 54.2744 106.475 55.3629 106.46 55.3747C106.275 55.5105 106.015 55.4695 105.88 55.2843C105.745 55.099 105.785 54.8396 105.97 54.7042C106.678 54.1874 108.45 53.5654 110.088 54.9151C110.266 55.061 110.291 55.3227 110.145 55.4996C110.063 55.5992 109.944 55.6507 109.824 55.6507Z" fill="#3F2D1F"/>
<path d="M130.733 79.7958L128.4 76.7617L119.136 80.0264L117.636 82.6294L116.621 80.2911L115.214 78.7549L113.754 81.5705C113.754 81.5705 113.798 84.3941 117.372 85.1441C120.945 85.8941 128.753 82.9823 130.733 79.7958Z" fill="#9C897A"/>
<path d="M132.443 57.0193C132.443 57.0193 131.003 56.4694 129.636 57.7265C128.269 58.9836 128.732 60.2189 128.732 60.2189C128.732 60.2189 129.364 58.7294 130.717 58.8919C132.071 59.0544 133.055 62.7113 131.247 63.3954C129.438 64.079 127.129 63.0372 127.21 60.2189C127.291 57.4011 128.324 55.8072 130.028 55.5647C131.731 55.3219 132.405 56.7533 132.443 57.0193Z" fill="#2A58B7"/>
<path d="M119.654 71.1843C119.479 71.1843 119.323 71.0607 119.289 70.8829C119.25 70.6811 119.382 70.4863 119.584 70.4474C126.591 69.0999 128.965 62.5015 128.988 62.4351C129.055 62.2416 129.266 62.1389 129.461 62.2062C129.655 62.2734 129.757 62.4849 129.69 62.6788C129.665 62.7496 127.161 69.7472 119.724 71.1773C119.701 71.1822 119.677 71.1843 119.654 71.1843Z" fill="#2A58B7"/>
<path d="M118.091 70.9392C118.091 71.805 118.793 72.5069 119.659 72.5069C120.525 72.5069 121.227 71.805 121.227 70.9392C121.227 70.0735 120.525 69.3711 119.659 69.3711C118.793 69.3711 118.091 70.073 118.091 70.9392Z" fill="#FEE2E2"/>
<path d="M130.54 59.5676C130.54 59.5676 130.342 61.2996 130.722 62.2265C131.103 63.153 131.698 62.6733 131.814 61.5481C131.929 60.4229 130.805 58.8447 130.54 59.5676Z" fill="#FEE2E2"/>
<path d="M115.631 58.9866C115.631 58.9866 115.634 60.6032 117.75 60.8714C119.867 61.1396 120.252 58.9866 120.252 58.9866C120.252 58.9866 119.05 57.8601 117.497 57.8269C115.943 57.7932 115.631 58.9866 115.631 58.9866Z" fill="white"/>
<path d="M105.963 58.9866C105.963 58.9866 105.966 60.6032 108.037 60.8714C110.107 61.1396 110.385 58.9883 110.385 58.9883C110.385 58.9883 109.308 57.8601 107.788 57.8269C106.268 57.7932 105.963 58.9866 105.963 58.9866Z" fill="white"/>
<path d="M110.384 58.9869C110.384 58.9869 109.275 57.7686 108.088 57.5498C106.902 57.3309 106.087 57.9088 105.963 58.9869C105.963 58.9869 106.199 58.0967 107.386 57.9875C108.573 57.8778 110.384 58.9869 110.384 58.9869Z" fill="#3F2D1F"/>
<path d="M120.252 58.9852C120.252 58.9852 119.094 57.7119 117.853 57.4834C116.612 57.255 115.761 57.8586 115.632 58.9852C115.632 58.9852 115.878 58.0548 117.118 57.9403C118.359 57.8263 120.252 58.9852 120.252 58.9852Z" fill="#3F2D1F"/>
<path d="M112.418 59.0312L111.442 64.9225C111.442 64.9225 110.665 64.9823 109.589 64.5442C109.589 64.5442 112.139 59.693 112.418 59.0312Z" fill="#D37A57"/>
<path d="M83.3775 149.876C83.3775 149.876 83.2189 145.172 88.5165 143.698C93.8146 142.224 100.268 146.534 101.304 149.876H83.3775Z" fill="#FEE2E2"/>
<path d="M117.663 61.0798C118.396 61.0798 118.99 60.3278 118.99 59.4002C118.99 58.4726 118.396 57.7207 117.663 57.7207C116.93 57.7207 116.335 58.4726 116.335 59.4002C116.335 60.3278 116.93 61.0798 117.663 61.0798Z" fill="#3F2D1F"/>
<path d="M109.683 59.4533C109.683 60.3518 109.103 61.0804 108.388 61.0804C107.673 61.0804 107.093 60.3518 107.093 59.4533C107.093 58.5548 107.673 57.8262 108.388 57.8262C109.103 57.8262 109.683 58.5543 109.683 59.4533Z" fill="#3F2D1F"/>
<path d="M123.532 63.5992C123.532 64.3317 122.665 64.9253 121.595 64.9253C120.525 64.9253 119.658 64.3317 119.658 63.5992C119.658 62.8671 120.525 62.2734 121.595 62.2734C122.665 62.273 123.532 62.8666 123.532 63.5992Z" fill="#D37A57"/>
<path d="M107.717 62.9648C107.717 63.6969 106.85 64.2905 105.78 64.2905C104.71 64.2905 103.843 63.6969 103.843 62.9648C103.843 62.2323 104.71 61.6387 105.78 61.6387C106.85 61.6387 107.717 62.2323 107.717 62.9648Z" fill="#D37A57"/>
<path d="M158.499 134.901C157.158 138.936 154.705 141.987 151.8 144.146C149.82 145.611 147.632 146.661 145.448 147.321C136.333 150.086 102.572 149.874 102.572 149.874L103.842 139.675L141.646 131.178C141.646 131.178 136.756 115.665 136.972 103.133C137.167 91.4683 140.645 86.6612 144.564 88.9322C144.859 89.1064 145.153 89.3139 145.448 89.5629C145.448 89.5629 151.417 98.4585 157.577 116.728C160.098 124.2 160.052 130.211 158.499 134.901Z" fill="#2A58B7"/>
<path d="M100.002 141.03L91.9822 139.569C91.9822 139.569 90.5084 139.316 89.0342 139.954C87.5604 140.591 85.887 143.699 85.887 143.699C85.887 143.699 87.2415 143.719 88.1575 142.893C89.0739 142.066 89.1932 141.349 89.1932 141.349L92.1364 141.578L92.1888 142.261C91.206 142.476 88.4078 143.114 87.0423 143.699C85.3693 144.417 84.4927 146.607 84.4927 146.607C84.4927 146.607 86.6837 146.289 87.7989 144.934L92.3548 144.417L92.3875 144.843C91.4484 144.907 89.7715 145.117 88.1977 145.811C85.8472 146.846 85.1304 148.241 85.1304 148.241C85.1304 148.241 87.4809 148.241 89.1338 146.966L90.2468 146.874C89.1469 147.579 88.1977 149.277 88.1977 149.277C88.1977 149.277 88.6756 149.397 89.7514 148.918C90.8268 148.44 91.1059 147.895 91.1059 147.895L94.2405 148.13C95.868 148.362 98.3303 148.591 99.7373 148.122L102.735 148.583L103.676 141.032H100.002V141.03Z" fill="#FEE2E2"/>
<path d="M166.769 154.813H15.9597C14.5968 154.813 13.4917 153.708 13.4917 152.345C13.4917 150.982 14.5968 149.877 15.9597 149.877H166.77C168.133 149.877 169.238 150.982 169.238 152.345C169.237 153.708 168.133 154.813 166.769 154.813Z" fill="#1A1A2E"/>
<path d="M108.959 154.813H14.9725C14.1548 154.813 13.4917 153.708 13.4917 152.345C13.4917 150.982 14.1548 149.877 14.9725 149.877H61.9656H108.959C109.776 149.877 110.44 150.982 110.44 152.345C110.44 153.708 109.776 154.813 108.959 154.813Z" fill="#2A58B7"/>
<path d="M80.5376 140.365H28.6011C26.8495 140.365 25.3333 139.147 24.9564 137.436L18.2431 106.947C17.9137 105.452 19.0525 104.035 20.5835 104.035H73.1057C74.6581 104.035 76.0018 105.115 76.3355 106.631L83.0698 137.215C83.4258 138.833 82.194 140.365 80.5376 140.365Z" fill="#2A58B7"/>
<path d="M37.118 135.2C36.6842 137.385 34.1346 138.72 31.4229 138.182C28.7111 137.643 26.8648 135.436 27.2985 133.251C27.7323 131.066 30.2819 129.731 32.9936 130.27C35.7053 130.808 37.5517 133.015 37.118 135.2Z" fill="#2A58B7"/>
<path d="M83.0697 137.216L76.3354 106.631C76.0017 105.115 74.6581 104.035 73.1056 104.035H70.0781C71.6305 104.035 72.9742 105.115 73.3079 106.631L80.0422 137.216C80.3986 138.833 79.1668 140.366 77.51 140.366H80.5375C82.1943 140.366 83.4261 138.833 83.0697 137.216Z" fill="#1A1A2E"/>
<path d="M74.0817 148.651C74.0817 149.328 73.5352 149.874 72.8586 149.874H29.7443C29.0529 149.874 28.4243 149.592 27.9709 149.138C27.5135 148.685 27.2349 148.06 27.2349 147.365C27.2349 146.87 27.3834 146.387 27.6586 145.974L38.3294 129.987C38.6342 129.537 39.1401 129.266 39.6826 129.266H58.3395C59.0087 129.266 59.4289 129.991 59.0904 130.571L50.0817 146.134C49.7471 146.71 50.1634 147.428 50.8251 147.428H72.8582C73.1967 147.428 73.5016 147.566 73.7243 147.789C73.9441 148.008 74.0817 148.313 74.0817 148.651Z" fill="#1A1A2E"/>
<path d="M61.2817 121.989H34.8308C34.5228 121.989 34.2729 121.739 34.2729 121.431C34.2729 121.123 34.5228 120.873 34.8308 120.873H61.2817C61.5896 120.873 61.8395 121.123 61.8395 121.431C61.8395 121.739 61.5896 121.989 61.2817 121.989Z" fill="#FEE2E2"/>
<path d="M62.5565 125.334H36.1052C35.7972 125.334 35.5474 125.085 35.5474 124.777C35.5474 124.469 35.7972 124.219 36.1052 124.219H62.5561C62.864 124.219 63.1139 124.469 63.1139 124.777C63.1139 125.085 62.8645 125.334 62.5565 125.334Z" fill="#FEE2E2"/>
<path d="M18.7911 105.841H74.8038C75.2594 105.841 75.6971 105.925 76.1012 106.075C75.5971 104.858 74.4015 104.035 73.0466 104.035H20.5243C19.3585 104.035 18.4224 104.857 18.1865 105.909C18.3796 105.865 18.5818 105.841 18.7911 105.841Z" fill="#2A58B7"/>
<path d="M76.3343 135.2C75.9005 137.385 73.3509 138.72 70.6392 138.182C67.9275 137.643 66.0811 135.436 66.5148 133.251C66.9486 131.066 69.4982 129.731 72.2099 130.27C74.9212 130.808 76.7676 133.015 76.3343 135.2Z" fill="#2A58B7"/>
<path d="M74.0788 148.742C74.0325 149.393 73.4463 149.876 72.7932 149.876H48.2569C47.2662 149.876 46.4629 149.073 46.4629 148.083C46.4629 147.744 46.559 147.412 46.7398 147.125L58.0125 129.268H58.3397C59.0089 129.268 59.4291 129.993 59.0906 130.573L50.0818 146.136C49.7473 146.712 50.1635 147.43 50.8253 147.43H72.8583C73.1969 147.43 73.5017 147.568 73.7245 147.791C73.9635 148.028 74.105 148.368 74.0788 148.742Z" fill="#1A1A2E"/>
<path d="M145.448 147.323C136.333 150.088 102.572 149.876 102.572 149.876L146.192 138.269C150.753 137.055 153.658 132.592 152.916 127.931C150.999 115.88 147.288 94.2583 144.564 88.9336C144.859 89.1079 145.153 89.3154 145.448 89.5643C145.448 89.5643 151.417 98.4599 157.577 116.729C163.738 135.002 154.569 144.562 145.448 147.323Z" fill="#FFB300"/>
<path d="M142.876 131.606C142.876 131.606 149.113 131.518 154.178 136.143" stroke="#9C897A" stroke-miterlimit="10" stroke-linecap="round" stroke-linejoin="round"/>
<path d="M129.825 80.8848C129.825 80.8848 138.032 83.6755 142.074 88.4603" stroke="#2A58B7" stroke-miterlimit="10" stroke-linecap="round" stroke-linejoin="round"/>
<path d="M88.9712 115.861C88.9712 115.861 93.5035 121.732 94.0836 128.493" stroke="#9C897A" stroke-miterlimit="10" stroke-linecap="round" stroke-linejoin="round"/>
<path d="M112.415 81.6138C112.415 81.6138 110.691 86.4484 117.888 87.0416C125.086 87.6348 132.974 80.5742 132.974 80.5742" stroke="#2A58B7" stroke-miterlimit="10" stroke-linecap="round" stroke-linejoin="round"/>
<path d="M102.572 141.031L100.887 148.298L102.734 148.582L103.675 141.031H102.572Z" fill="#D37A57"/>
<path d="M117.371 85.1445C117.371 85.1445 115.237 91.2249 113.753 106.95" stroke="#2A58B7" stroke-miterlimit="10" stroke-linecap="round" stroke-linejoin="round"/>
<path d="M131.154 48.1997C131.154 48.1997 127.792 47.4043 124.75 48.574" stroke="#543E2F" stroke-miterlimit="10" stroke-linecap="round" stroke-linejoin="round"/>
<path d="M109.077 46.4551C109.077 46.4551 108.738 51.3779 114.966 52.0812" stroke="#543E2F" stroke-miterlimit="10" stroke-linecap="round" stroke-linejoin="round"/>
<path d="M131.708 44.9531C131.708 44.9531 132.433 46.9096 131.805 48.1309" stroke="#543E2F" stroke-miterlimit="10" stroke-linecap="round" stroke-linejoin="round"/>
<path d="M103.503 42.957C103.503 42.957 103.222 45.9802 106.311 47.1692" stroke="#543E2F" stroke-miterlimit="10" stroke-linecap="round" stroke-linejoin="round"/>
<path d="M104.626 48.5742C104.626 48.5742 104.053 50.8369 106.188 51.8114" stroke="#543E2F" stroke-miterlimit="10" stroke-linecap="round" stroke-linejoin="round"/>
<path d="M114.594 40.8508C114.594 40.8508 118.577 39.104 124.235 41.6463C129.338 43.9395 129.825 46.7945 129.825 46.7945" stroke="#543E2F" stroke-miterlimit="10" stroke-linecap="round" stroke-linejoin="round"/>
<path d="M131.708 49.416C131.708 49.416 132.831 49.9463 132.831 51.5376C132.831 53.1289 132.061 54.7512 132.061 54.7512" stroke="#543E2F" stroke-miterlimit="10" stroke-linecap="round" stroke-linejoin="round"/>
<path d="M113.003 48.8535C113.003 48.8535 113.797 50.9594 118.431 51.1935C123.065 51.4276 124.563 51.4276 125.826 52.925C127.09 54.4228 126.669 56.0608 126.669 56.0608" stroke="#543E2F" stroke-miterlimit="10" stroke-linecap="round" stroke-linejoin="round"/>
<path d="M111.267 0H69.0961C66.6539 0 64.6743 1.98005 64.6743 4.42225V11.6427C64.6743 14.0849 66.6539 16.0645 69.0961 16.0645H74.6816L73.3821 20.5523C73.1401 21.3879 74.0609 22.0785 74.7952 21.6124L83.5401 16.0645H111.267C113.71 16.0645 115.689 14.0849 115.689 11.6427V4.42225C115.69 1.98005 113.71 0 111.267 0Z" fill="#2A58B7"/>
<path d="M70.4097 4.32227H110.201" stroke="white" stroke-miterlimit="10" stroke-linecap="round" stroke-linejoin="round"/>
<path d="M70.4097 7.69922H110.201" stroke="white" stroke-miterlimit="10" stroke-linecap="round" stroke-linejoin="round"/>
<path d="M70.4097 11.0742H110.201" stroke="white" stroke-miterlimit="10" stroke-linecap="round" stroke-linejoin="round"/>
<path d="M42.563 79.6884C62.3926 79.6884 78.4677 63.6133 78.4677 43.7837C78.4677 23.954 62.3926 7.87891 42.563 7.87891C22.7333 7.87891 6.6582 23.954 6.6582 43.7837C6.6582 63.6133 22.7333 79.6884 42.563 79.6884Z" stroke="#BBBFBD" stroke-miterlimit="10"/>
<path d="M76.1889 43.78C76.1889 56.3286 69.3148 67.2711 59.128 73.0492C57.9866 73.6965 56.8033 74.2823 55.5872 74.7925C51.5813 76.4777 47.1813 77.4077 42.5656 77.4077C42.2585 77.4077 41.9553 77.4033 41.6522 77.395C41.4652 77.3906 41.2787 77.3823 41.0918 77.3701C40.959 77.3701 40.8301 77.3662 40.6973 77.3535C40.4981 77.3452 40.299 77.3325 40.1037 77.3164C40.0207 77.312 39.9377 77.3081 39.8547 77.2954C39.618 77.2827 39.3856 77.2583 39.1532 77.2373C38.8833 77.2085 38.6177 77.1792 38.3521 77.146L46.6667 65.1203L24.5787 41.1727L10.1662 52.8167C10.0168 52.2772 9.87964 51.7373 9.75515 51.1852C9.70972 50.9777 9.66386 50.7659 9.62236 50.5584C9.56427 50.2845 9.5101 50.0063 9.46467 49.7324C9.43148 49.5498 9.39828 49.3672 9.37338 49.1846C9.32752 48.923 9.29039 48.6574 9.25282 48.3918C9.23186 48.2424 9.21133 48.097 9.19473 47.9476C9.16546 47.7191 9.13663 47.4867 9.11566 47.2544L9.103 47.1172C9.0781 46.8682 9.0532 46.6192 9.0366 46.3659C9.01564 46.0877 8.99511 45.8098 8.98244 45.5272V45.5106C8.96584 45.2241 8.95317 44.938 8.94924 44.6471C8.94094 44.3605 8.93701 44.07 8.93701 43.7796C8.93701 38.1963 10.2985 32.9327 12.7062 28.2999C17.7086 18.6701 27.2353 11.7668 38.4722 10.4013C39.8132 10.2392 41.1787 10.1562 42.5651 10.1562C48.2104 10.1562 53.5364 11.551 58.2063 14.0124L43.5615 25.839L53.3372 55.4816L72.2952 28.068C74.7815 32.755 76.1889 38.1054 76.1889 43.78Z" fill="#2A58B7"/>
<path d="M12.6174 28.2715L24.4894 41.1438L10.0769 52.7878C9.9275 52.2483 9.79034 51.7084 9.66585 51.1563C9.62042 50.9488 9.57456 50.737 9.53306 50.5295C9.47496 50.2556 9.4208 49.9774 9.37537 49.7035C9.34217 49.5209 9.30898 49.3383 9.28408 49.1557C9.23865 48.8941 9.20109 48.6285 9.16352 48.3629C9.14255 48.2135 9.12202 48.0681 9.10542 47.9187C9.07616 47.6902 9.04733 47.4578 9.02636 47.2255L9.01413 47.0883C8.98923 46.8393 8.96434 46.5903 8.94774 46.337C8.92721 46.0587 8.90624 45.7809 8.89357 45.4983V45.4817C8.87697 45.1952 8.86474 44.9091 8.86038 44.6182C8.85208 44.3316 8.84814 44.0411 8.84814 43.7507C8.84814 38.1674 10.2097 32.9038 12.6174 28.2715Z" fill="#2A58B7"/>
<path d="M55.4983 74.764C51.4923 76.4492 47.0923 77.3792 42.4761 77.3792C42.1691 77.3792 41.8659 77.3748 41.5628 77.3665C41.3758 77.3622 41.1893 77.3539 41.0024 77.3416C40.8696 77.3416 40.7407 77.3373 40.6079 77.325C40.4087 77.3167 40.2096 77.3041 40.0143 77.2879C39.9313 77.2835 39.8483 77.2796 39.7653 77.2669C39.5286 77.2547 39.2962 77.2298 39.0638 77.2088C38.7939 77.18 38.5283 77.1508 38.2627 77.1176L46.5773 65.0918L55.4983 74.764Z" fill="#2A58B7"/>
<path d="M58.1179 13.9831L43.473 25.8097L38.3838 10.372C39.7248 10.2099 41.0903 10.127 42.4767 10.127C48.122 10.1265 53.4476 11.5212 58.1179 13.9831Z" fill="#2A58B7"/>
<path d="M76.0997 43.7506C76.0997 56.2992 69.2256 67.2417 59.0388 73.0198L53.248 55.4527L72.206 28.0391C74.6927 32.7256 76.0997 38.076 76.0997 43.7506Z" fill="#2A58B7"/>
<path d="M46.5778 65.0915L38.2631 77.1172C38.0513 77.0923 37.8398 77.0635 37.628 77.0299C37.4537 77.005 37.2794 76.9801 37.1051 76.9512C36.9099 76.9224 36.719 76.8888 36.5237 76.8516C36.2665 76.8062 36.0092 76.7603 35.7515 76.7062C35.5313 76.6608 35.3116 76.6149 35.0954 76.5651C34.9582 76.5358 34.8215 76.5026 34.6843 76.4694C34.5018 76.4279 34.3231 76.3821 34.1405 76.3366C33.5469 76.1873 32.9616 76.0169 32.3806 75.8343C32.1688 75.7679 31.9574 75.7015 31.7499 75.6308C31.4677 75.5351 31.1894 75.4399 30.9156 75.3359C30.6583 75.2446 30.401 75.145 30.1477 75.0454C29.8904 74.9458 29.637 74.8419 29.388 74.734C29.1391 74.63 28.8901 74.5221 28.645 74.4103C28.645 74.4103 28.6411 74.4103 28.6367 74.406C28.3878 74.2937 28.1427 74.1775 27.8977 74.0613C27.1503 73.7044 26.4239 73.3183 25.7101 72.9073C25.486 72.7745 25.262 72.6417 25.0418 72.5089C24.577 72.2306 24.1201 71.9362 23.6759 71.6331C23.4518 71.4837 23.2317 71.33 23.012 71.1723C22.7918 71.0185 22.5721 70.8569 22.3559 70.6948C22.3476 70.6905 22.3393 70.6822 22.327 70.6739C22.1235 70.5201 21.916 70.3624 21.7168 70.2047C21.5382 70.0636 21.3639 69.9265 21.1896 69.7815C20.9323 69.574 20.679 69.3582 20.43 69.142C20.2391 68.976 20.0521 68.81 19.8656 68.6396C19.6787 68.4693 19.4922 68.295 19.3052 68.1207C19.2842 68.0998 19.2637 68.0832 19.2471 68.0666C19.0645 67.8879 18.8819 67.7097 18.6994 67.5271C18.5417 67.3694 18.384 67.2074 18.2263 67.0457C18.0105 66.8217 17.7947 66.5932 17.5868 66.3608C17.4042 66.1616 17.2256 65.9581 17.0513 65.7545C16.9102 65.5968 16.7774 65.4348 16.6446 65.2732C16.5616 65.1819 16.4869 65.0906 16.4122 64.9949C16.2794 64.8329 16.1506 64.6712 16.0222 64.5092C15.8767 64.3266 15.7356 64.144 15.5989 63.9571C15.4119 63.712 15.2293 63.4674 15.0551 63.2141C14.8974 62.9939 14.7436 62.7742 14.5942 62.5497C14.4863 62.392 14.3824 62.2343 14.2789 62.0722C14.2125 61.9766 14.15 61.877 14.088 61.7774C13.8058 61.3375 13.5319 60.885 13.2703 60.4281C13.1497 60.2123 13.0296 59.9965 12.909 59.7764C12.6351 59.274 12.3735 58.7634 12.1285 58.2445C12.0206 58.0287 11.921 57.8086 11.8214 57.5888C11.7174 57.3565 11.6139 57.1241 11.5143 56.8917C11.506 56.8751 11.5021 56.8541 11.4938 56.8375C11.3898 56.5925 11.2863 56.3435 11.1867 56.0945C11.1867 56.0862 11.1823 56.0779 11.1784 56.0657C11.0788 55.8167 10.9831 55.5634 10.8918 55.3104C10.8006 55.0698 10.7132 54.8247 10.6302 54.5757C10.5555 54.3556 10.4808 54.1315 10.41 53.9074C10.3603 53.7414 10.3061 53.5711 10.2563 53.4051C10.2524 53.3924 10.248 53.3841 10.248 53.3719C10.1899 53.1766 10.1318 52.9818 10.0776 52.7866L24.4901 41.1426L46.5778 65.0915Z" fill="url(#paint0_linear_113_561)"/>
<path d="M72.2058 28.04L53.2479 55.4536L43.4722 25.811L58.117 13.9844C64.1157 17.139 69.039 22.0496 72.2058 28.04Z" fill="url(#paint1_linear_113_561)"/>
<path d="M53.2483 55.4536L46.5778 65.0923L24.4897 41.1447L43.4726 25.8105L53.2483 55.4536Z" fill="#2A58B7"/>
<path d="M48.7009 39.0737L48.8066 37.3033L49.9882 36.7394C53.37 35.1254 55.5243 31.7117 55.5243 27.9639C55.5243 24.7066 54.489 21.535 52.5688 18.9058L51.2497 17.0996L40.0032 20.8649L40.101 25.0893H39.3585C37.8502 25.0893 36.6271 26.3119 36.6271 27.8206C36.6271 29.3289 37.8497 30.552 39.3585 30.552H40.2273L40.3596 36.286V38.2988C40.3596 38.2988 38.3285 40.2557 34.4736 41.916C34.4736 41.916 38.7714 47.3123 45.8735 47.6683C52.9755 48.0243 53.249 43.7536 53.249 43.7536C53.249 43.7536 50.304 41.9907 48.6153 40.5304L48.7009 39.0737Z" fill="#FEE2E2"/>
<path d="M48.8065 37.3021L48.7008 39.0725C48.4016 39.0371 48.088 38.9904 47.7625 38.931C42.7336 38.0141 40.7649 33.4687 40.9689 31.127C40.9689 31.127 42.665 36.7596 48.8065 37.3021Z" fill="#D37A57"/>
<path d="M39.2734 27.0373C39.4839 27.1968 39.6778 27.4077 39.7473 27.6711C39.7473 27.6711 39.3275 27.8109 39.2891 28.2818C39.2511 28.7527 39.7473 28.9562 39.7473 28.9562C39.7473 28.9562 39.3655 29.5922 38.7295 29.2489C38.0935 28.9056 38.1988 27.7061 38.8313 27.4549C38.8313 27.4549 37.8262 27.3405 37.4571 27.7096C37.4571 27.7096 37.3728 27.3396 37.793 27.012C38.2263 26.6748 38.8357 26.7058 39.2734 27.0373Z" fill="#D37A57"/>
<path d="M48.5649 23.711C48.5064 23.7128 48.4479 23.7342 48.3998 23.7757C47.4397 24.6152 46.4521 23.9548 46.442 23.9478C46.3224 23.8657 46.159 23.8963 46.0769 24.0159C45.9948 24.1356 46.0253 24.299 46.1446 24.3811C46.6019 24.6947 47.7341 25.0555 48.7453 24.1714C48.8545 24.0762 48.8659 23.9102 48.7702 23.801C48.7169 23.739 48.6405 23.7089 48.5649 23.711Z" fill="#3F2D1F"/>
<path d="M54.4738 24.3568C54.4222 24.3284 54.3611 24.317 54.2991 24.3288C53.0454 24.5634 52.5304 23.4928 52.5256 23.4819C52.4645 23.3499 52.3081 23.2936 52.1766 23.3547C52.0451 23.4159 51.9883 23.5723 52.0495 23.7038C52.2841 24.2065 53.0756 25.0924 54.3956 24.8456C54.5384 24.8189 54.6323 24.6818 54.6053 24.5389C54.59 24.4581 54.5402 24.3935 54.4738 24.3568Z" fill="#3F2D1F"/>
<path d="M48.4211 26.8339C48.4211 26.8339 48.4193 27.8569 47.0801 28.0264C45.7408 28.1958 45.4971 26.8339 45.4971 26.8339C45.4971 26.8339 46.2575 26.121 47.2408 26.1C48.2236 26.0791 48.4211 26.8339 48.4211 26.8339Z" fill="white"/>
<path d="M54.5385 26.8343C54.5385 26.8343 54.5368 27.8573 53.2268 28.0268C51.9168 28.1967 51.7412 26.8352 51.7412 26.8352C51.7412 26.8352 52.4222 26.121 53.384 26.1C54.3455 26.0795 54.5385 26.8343 54.5385 26.8343Z" fill="white"/>
<path d="M51.7407 26.835C51.7407 26.835 52.4422 26.064 53.1935 25.9255C53.9444 25.787 54.4599 26.1527 54.5385 26.835C54.5385 26.835 54.3895 26.2715 53.6382 26.2025C52.8873 26.1334 51.7407 26.835 51.7407 26.835Z" fill="#3F2D1F"/>
<path d="M45.4971 26.8339C45.4971 26.8339 46.2305 26.0284 47.0154 25.8838C47.8004 25.7392 48.3389 26.1214 48.4206 26.8339C48.4206 26.8339 48.2651 26.245 47.4802 26.173C46.6952 26.1009 45.4971 26.8339 45.4971 26.8339Z" fill="#3F2D1F"/>
<path d="M50.4541 26.8633L51.0717 30.591C51.0717 30.591 51.5632 30.629 52.2437 30.3516C52.2437 30.3516 50.6306 27.2822 50.4541 26.8633Z" fill="#D37A57"/>
<path d="M46.2959 27.096C46.2959 27.683 46.672 28.1587 47.1359 28.1587C47.5998 28.1587 47.9759 27.683 47.9759 27.096C47.9759 26.5093 47.5998 26.0332 47.1359 26.0332C46.672 26.0332 46.2959 26.5093 46.2959 27.096Z" fill="#3F2D1F"/>
<path d="M52.1855 27.1292C52.1855 27.6979 52.5525 28.1587 53.005 28.1587C53.4575 28.1587 53.824 27.6979 53.824 27.1292C53.824 26.5604 53.4571 26.0996 53.005 26.0996C52.552 26.0996 52.1855 26.5604 52.1855 27.1292Z" fill="#3F2D1F"/>
<path d="M44.6476 30.5923C45.3243 30.5923 45.8729 30.2166 45.8729 29.7532C45.8729 29.2897 45.3243 28.9141 44.6476 28.9141C43.9709 28.9141 43.4224 29.2897 43.4224 29.7532C43.4224 30.2166 43.9709 30.5923 44.6476 30.5923Z" fill="#D37A57"/>
<path d="M54.6544 30.1899C55.3313 30.1899 55.8801 29.8143 55.8801 29.3508C55.8801 28.8874 55.3313 28.5117 54.6544 28.5117C53.9775 28.5117 53.4287 28.8874 53.4287 29.3508C53.4287 29.8143 53.9775 30.1899 54.6544 30.1899Z" fill="#D37A57"/>
<path d="M50.8997 32.0263C50.8997 32.0263 48.9205 32.0931 48.1199 32.827C47.3192 33.5608 50.2768 33.7831 50.8997 33.494C51.5222 33.2052 51.7991 31.9337 50.8997 32.0263Z" fill="white"/>
<path d="M46.0752 26.4329C46.0752 26.4329 45.6808 26.6198 45.251 26.3438C45.251 26.3438 45.2912 26.7482 45.4973 26.8338L46.0752 26.4329Z" fill="#3F2D1F"/>
<path d="M54.085 26.1582C54.085 26.1582 54.5506 26.5435 54.9044 26.4251C55.0346 26.3814 54.5397 26.8348 54.5397 26.8348C54.4217 26.405 54.085 26.1582 54.085 26.1582Z" fill="#3F2D1F"/>
<path d="M56.7882 45.9102C56.7882 45.9102 63.0861 57.4209 65.4877 67.0735L58.9941 70.855C58.9941 70.855 56.413 65.6958 55.5241 57.7791C54.6356 49.862 56.7882 45.9102 56.7882 45.9102Z" fill="#847062"/>
<path d="M53.2482 19.9189C53.2482 19.9189 46.9555 25.8744 41.2036 25.2222C41.2036 25.2222 40.5807 29.4029 41.6186 31.0042C41.6186 31.0042 41.1739 31.445 40.551 29.7716C39.9281 28.0981 40.42 25.7866 40.0998 25.0894C40.0998 25.0894 38.1805 24.6347 36.9194 26.589C35.6583 28.5433 38.4185 30.9295 40.226 30.5517L40.309 34.1453C40.309 34.1453 38.2381 34.918 36.4887 33.4355C34.7393 31.953 35.5994 30.4408 35.5994 30.4408C35.5994 30.4408 32.9606 27.8361 32.8418 24.2189C32.723 20.6017 35.7326 18.3285 35.7326 18.3285C35.7326 18.3285 36.7259 12.9767 43.3379 12.9173C49.9498 12.8579 51.877 14.8445 51.877 14.8445C51.877 14.8445 56.1451 15.5709 57.3476 20.1076C58.5501 24.6443 55.5235 27.0703 55.5235 27.0703C55.5235 27.0703 54.6486 21.2577 53.2482 19.9189Z" fill="#3F2D1F"/>
<path d="M36.845 17.7061C36.845 17.7061 36.527 13.8193 32.8386 13.9836C29.1506 14.1478 28.439 18.3731 30.0399 20.33C31.6413 22.2869 33.7314 21.8422 35.2882 20.33C36.845 18.8182 36.845 17.7061 36.845 17.7061Z" fill="#3F2D1F"/>
<path d="M41.6585 33.0002L39.3339 37.8405C39.2509 38.0148 39.0307 38.0646 38.8774 37.9484L38.7817 37.8737L31.1647 31.9872C31.0485 31.896 31.0109 31.7339 31.0817 31.6011L33.7091 26.7901L33.7715 26.6778C33.8589 26.5119 34.0786 26.4704 34.2241 26.5905L41.5799 32.6385C41.6834 32.7263 41.7166 32.8757 41.6585 33.0002Z" fill="white"/>
<path d="M57.6898 73.7882C53.1444 76.0836 48.0054 77.3748 42.5632 77.3748C38.0841 77.3748 33.8087 76.499 29.9023 74.9051L27.4155 46.4243C27.4155 46.4243 27.9262 44.4609 30.9729 43.34C34.435 42.0615 34.4722 41.916 34.4722 41.916C47.6686 48.5577 53.2475 43.7506 53.2475 43.7506L56.1531 45.2283C56.4397 45.3738 56.6638 45.6145 56.7882 45.9093C57.4732 47.5491 59.7437 53.2359 59.9721 57.1545C60.1512 60.2768 58.6735 68.6657 57.6898 73.7882Z" fill="url(#paint2_linear_113_561)"/>
<path d="M28.8725 44.4922C28.8725 44.4922 25.6545 45.7698 24.4895 54.1906C23.3241 62.6114 24.5682 67.073 24.5682 67.073L30.974 59.4686C30.974 59.4686 33.1667 47.8111 28.8725 44.4922Z" fill="#9C897A"/>
<path d="M38.4373 32.1769C37.8232 32.5316 36.2245 33.6498 35.9388 34.1207C35.8016 34.3474 35.7444 34.6055 35.7208 34.8143L35.319 34.6138C35.5216 33.7472 35.896 32.881 35.896 32.881C35.896 32.881 36.5333 32.5399 36.8893 32.0358C37.2453 31.5317 37.1116 31.129 37.1116 31.129C36.8688 31.2692 36.4778 31.5247 36.0703 31.8139C36.0759 31.806 36.0829 31.799 36.0886 31.7907C36.4442 31.2867 36.311 30.8839 36.311 30.8839C35.6732 31.2521 34.0133 32.4132 33.7167 32.9024C33.5569 33.1662 33.5018 33.4703 33.4835 33.697L33.3712 33.6411C33.5617 32.7242 33.9836 31.7462 33.9836 31.7462C33.9836 31.7462 34.6209 31.405 34.9769 30.901C35.3325 30.3969 35.1993 29.9941 35.1993 29.9941C34.5615 30.3624 32.9017 31.5234 32.6051 32.0126C32.3085 32.5019 32.3679 33.1392 32.3679 33.1392L32.6051 37.3199L32.8388 41.9155C32.8388 41.9155 24.3918 61.2478 24.4896 65.9622C24.5875 70.6767 27.4162 72.5445 27.4162 72.5445C27.4162 72.5445 30.4407 72.1885 32.3679 69.2112C34.2951 66.2339 36.0742 43.5461 36.0742 43.5461C36.0742 43.5461 37.0824 42.0042 37.2601 40.5295C37.4379 39.0548 36.7609 35.3328 36.7609 35.3328C36.9618 34.5697 37.2667 33.863 37.2667 33.863C37.2667 33.863 37.8808 33.5345 38.2233 33.0492C38.5658 32.5643 38.4373 32.1769 38.4373 32.1769Z" fill="#FEE2E2"/>
<path d="M41.6585 32.9998L39.3338 37.84C39.2508 38.0143 39.0306 38.0641 38.8773 37.9479L38.7816 37.8732L41.1312 32.8216L33.709 26.7901L33.7714 26.6778C33.8588 26.5119 34.0785 26.4704 34.224 26.5905L41.5798 32.6385C41.6834 32.7259 41.7165 32.8753 41.6585 32.9998Z" fill="#D9D9D9"/>
<path d="M33.7091 27.7578L33.3867 28.3916L34.9881 29.6811L35.355 29.0695L33.7091 27.7578Z" fill="#D9D9D9"/>
<path d="M80.0164 46.8406L78.222 47.1743L78.1735 47.0153C78.6924 46.838 79.9116 46.3583 80.4052 45.6184C81.0394 44.667 81.2617 43.7471 81.2617 43.7471C81.2617 43.7471 80.1623 44.3224 79.739 45.4205L78.889 45.5786C79.2297 45.3677 79.5455 45.1121 79.7438 44.8147C80.3781 43.8628 80.6004 42.9434 80.6004 42.9434C80.6004 42.9434 79.501 43.5186 79.0777 44.6168L78.0058 44.816C78.4504 44.467 78.9161 44.0118 79.1105 43.5195C79.5307 42.4559 79.5543 41.5098 79.5543 41.5098C79.5543 41.5098 78.6007 42.3034 78.4177 43.4658L77.2392 43.9581L72.0813 45.569L72.1202 44.8243C72.1202 44.8243 72.3146 44.7076 72.8593 44.2796C73.404 43.8515 74.0837 42.075 74.0837 42.075C74.0837 42.075 71.3807 43.3457 70.722 44.7461C70.0633 46.1465 69.4356 49.6091 69.4356 49.6091C69.4356 49.6091 63.2369 64.5256 62.1361 68.6351C62.1361 68.6351 60.0071 69.4585 58.9941 70.8532C58.9941 70.8532 61.1585 74.8264 62.8782 75.2414C62.8782 75.2414 67.8596 74.2927 70.2315 68.4809C72.6033 62.6692 73.5591 50.9308 73.5591 50.9308L78.5382 48.2078C78.5382 48.2078 80.0426 47.7797 80.5611 47.0018C81.08 46.2238 81.2613 45.4716 81.2613 45.4716C81.2613 45.4716 80.3624 45.9429 80.0164 46.8406Z" fill="#FEE2E2"/>
<path d="M57.8393 63.7707C57.8393 63.7707 54.9227 63.209 49.9309 63.209C44.9391 63.209 39.9468 64.1451 39.9468 64.1451" stroke="#847062" stroke-miterlimit="10" stroke-linecap="round" stroke-linejoin="round"/>
<path d="M52.583 16.4082C52.583 16.4082 53.3863 17.889 53.3173 18.9041" stroke="#543E2F" stroke-miterlimit="10" stroke-linecap="round" stroke-linejoin="round"/>
<path d="M51.3493 15.2852C51.3493 15.2852 48.0899 16.3462 46.2959 18.9045" stroke="#543E2F" stroke-miterlimit="10" stroke-linecap="round" stroke-linejoin="round"/>
<path d="M36.2337 16.9375C36.2337 16.9375 35.7035 18.123 35.672 18.5598C35.672 18.5598 33.93 20.1821 33.709 21.1182" stroke="#543E2F" stroke-miterlimit="10" stroke-linecap="round" stroke-linejoin="round"/>
<path d="M29.6816 21.3379C29.8066 21.4314 31.5293 22.7365 33.2967 21.6367" stroke="#543E2F" stroke-miterlimit="10" stroke-linecap="round" stroke-linejoin="round"/>
<path d="M38.3833 16.4075C38.3833 16.4075 42.4268 12.6789 49.1196 14.6446" stroke="#543E2F" stroke-miterlimit="10" stroke-linecap="round" stroke-linejoin="round"/>
<path d="M39.1978 24.1081C39.1978 24.1081 40.9345 24.8083 44.6474 24.1081C48.3602 23.4079 51.7407 19.6055 51.7407 19.6055" stroke="#543E2F" stroke-miterlimit="10" stroke-linecap="round" stroke-linejoin="round"/>
<path d="M37.6982 44.4922C37.6982 44.4922 42.7757 46.6098 47.9759 46.2979C53.1761 45.9861 53.8239 45.05 53.8239 45.05" stroke="#847062" stroke-miterlimit="10" stroke-linecap="round" stroke-linejoin="round"/>
<defs>
<linearGradient id="paint0_linear_113_561" x1="10.0776" y1="59.1299" x2="46.5778" y2="59.1299" gradientUnits="userSpaceOnUse">
<stop offset="0.09" stop-color="#F96803"/>
<stop offset="0.44" stop-color="#FEDF5F"/>
<stop offset="0.97" stop-color="#F3AB0C"/>
</linearGradient>
<linearGradient id="paint1_linear_113_561" x1="43.4722" y1="34.719" x2="72.2058" y2="34.719" gradientUnits="userSpaceOnUse">
<stop offset="0.09" stop-color="#F96803"/>
<stop offset="0.44" stop-color="#FEDF5F"/>
<stop offset="0.97" stop-color="#F3AB0C"/>
</linearGradient>
<linearGradient id="paint2_linear_113_561" x1="27.4155" y1="59.6454" x2="59.987" y2="59.6454" gradientUnits="userSpaceOnUse">
<stop offset="0.09" stop-color="#F96803"/>
<stop offset="0.44" stop-color="#FEDF5F"/>
<stop offset="0.97" stop-color="#F3AB0C"/>
</linearGradient>
</defs>
</svg>
