<svg width="25" height="40" viewBox="0 0 25 40" fill="none" xmlns="http://www.w3.org/2000/svg">
<path d="M0 12.3672C0 5.53698 5.53698 0 12.3672 0C19.1974 0 24.7344 5.53698 24.7344 12.3672V27.6328C24.7344 34.463 19.1974 40 12.3672 40C5.53698 40 0 34.463 0 27.6328V12.3672Z" fill="#DC2626" fill-opacity="0.1"/>
<path d="M5.84687 20.3877L11.4938 25.6595C11.7281 25.8783 12.0375 26.0002 12.3594 26.0002C12.6812 26.0002 12.9906 25.8783 13.225 25.6595L18.8719 20.3877C19.8219 19.5033 20.3594 18.2627 20.3594 16.9658V16.7845C20.3594 14.6002 18.7812 12.7377 16.6281 12.3783C15.2031 12.1408 13.7531 12.6064 12.7344 13.6252L12.3594 14.0002L11.9844 13.6252C10.9656 12.6064 9.51562 12.1408 8.09063 12.3783C5.9375 12.7377 4.35938 14.6002 4.35938 16.7845V16.9658C4.35938 18.2627 4.89687 19.5033 5.84687 20.3877Z" fill="#DC2626"/>
</svg>
