<svg width="63" height="104" viewBox="0 0 63 104" fill="none" xmlns="http://www.w3.org/2000/svg">
<path d="M0 12C0 5.37259 5.37258 0 12 0H50.75C57.3774 0 62.75 5.37258 62.75 12V92C62.75 98.6274 57.3774 104 50.75 104H12C5.37258 104 0 98.6274 0 92V12Z" fill="#FDF2F8"/>
<path d="M7.375 28C7.375 21.3726 12.7476 16 19.375 16H43.375C50.0024 16 55.375 21.3726 55.375 28V52C55.375 58.6274 50.0024 64 43.375 64H19.375C12.7476 64 7.375 58.6274 7.375 52V28Z" fill="url(#paint0_linear_113_995)"/>
<path d="M31.3789 35.0078C28.8945 35.0078 26.8906 37.0117 26.8906 39.4961C26.8906 41.9805 28.8945 43.9844 31.3789 43.9844C33.8633 43.9844 35.8672 41.9805 35.8672 39.4961C35.8672 37.0117 33.8633 35.0078 31.3789 35.0078ZM31.3789 42.4141C29.7734 42.4141 28.4609 41.1055 28.4609 39.4961C28.4609 37.8867 29.7695 36.5781 31.3789 36.5781C32.9883 36.5781 34.2969 37.8867 34.2969 39.4961C34.2969 41.1055 32.9844 42.4141 31.3789 42.4141ZM37.0977 34.8242C37.0977 35.4062 36.6289 35.8711 36.0508 35.8711C35.4688 35.8711 35.0039 35.4023 35.0039 34.8242C35.0039 34.2461 35.4727 33.7773 36.0508 33.7773C36.6289 33.7773 37.0977 34.2461 37.0977 34.8242ZM40.0703 35.8867C40.0039 34.4844 39.6836 33.2422 38.6562 32.2187C37.6328 31.1953 36.3906 30.875 34.9883 30.8047C33.543 30.7227 29.2109 30.7227 27.7656 30.8047C26.3672 30.8711 25.125 31.1914 24.0977 32.2148C23.0703 33.2383 22.7539 34.4805 22.6836 35.8828C22.6016 37.3281 22.6016 41.6602 22.6836 43.1055C22.75 44.5078 23.0703 45.75 24.0977 46.7734C25.125 47.7969 26.3633 48.1172 27.7656 48.1875C29.2109 48.2695 33.543 48.2695 34.9883 48.1875C36.3906 48.1211 37.6328 47.8008 38.6562 46.7734C39.6797 45.75 40 44.5078 40.0703 43.1055C40.1523 41.6602 40.1523 37.332 40.0703 35.8867ZM38.2031 44.6562C37.8984 45.4219 37.3086 46.0117 36.5391 46.3203C35.3867 46.7773 32.6523 46.6719 31.3789 46.6719C30.1055 46.6719 27.3672 46.7734 26.2188 46.3203C25.4531 46.0156 24.8633 45.4258 24.5547 44.6562C24.0977 43.5039 24.2031 40.7695 24.2031 39.4961C24.2031 38.2227 24.1016 35.4844 24.5547 34.3359C24.8594 33.5703 25.4492 32.9805 26.2188 32.6719C27.3711 32.2148 30.1055 32.3203 31.3789 32.3203C32.6523 32.3203 35.3906 32.2187 36.5391 32.6719C37.3047 32.9766 37.8945 33.5664 38.2031 34.3359C38.6602 35.4883 38.5547 38.2227 38.5547 39.4961C38.5547 40.7695 38.6602 43.5078 38.2031 44.6562Z" fill="white"/>
<path d="M4.94744 75.2727V84H3.63068V75.2727H4.94744ZM8.03693 80.1136V84H6.76278V77.4545H7.9858V78.5199H8.06676C8.21733 78.1733 8.45313 77.8949 8.77415 77.6847C9.09801 77.4744 9.50568 77.3693 9.99716 77.3693C10.4432 77.3693 10.8338 77.4631 11.169 77.6506C11.5043 77.8352 11.7642 78.1108 11.9489 78.4773C12.1335 78.8437 12.2259 79.2969 12.2259 79.8366V84H10.9517V79.9901C10.9517 79.5156 10.8281 79.1449 10.581 78.8778C10.3338 78.608 9.99432 78.473 9.5625 78.473C9.26705 78.473 9.00426 78.5369 8.77415 78.6648C8.54688 78.7926 8.36648 78.9801 8.23295 79.2273C8.10227 79.4716 8.03693 79.767 8.03693 80.1136ZM18.8395 79.0526L17.6847 79.2571C17.6364 79.1094 17.5597 78.9687 17.4545 78.8352C17.3523 78.7017 17.2131 78.5923 17.0369 78.5071C16.8608 78.4219 16.6406 78.3793 16.3764 78.3793C16.0156 78.3793 15.7145 78.4602 15.473 78.6222C15.2315 78.7812 15.1108 78.9872 15.1108 79.2401C15.1108 79.4588 15.1918 79.6349 15.3537 79.7685C15.5156 79.902 15.777 80.0114 16.1378 80.0966L17.1776 80.3352C17.7798 80.4744 18.2287 80.6889 18.5241 80.9787C18.8196 81.2685 18.9673 81.6449 18.9673 82.108C18.9673 82.5 18.8537 82.8494 18.6264 83.1562C18.402 83.4602 18.0881 83.6989 17.6847 83.8722C17.2841 84.0455 16.8196 84.1321 16.2912 84.1321C15.5582 84.1321 14.9602 83.9759 14.4972 83.6634C14.0341 83.348 13.75 82.9006 13.6449 82.321L14.8764 82.1335C14.9531 82.4545 15.1108 82.6974 15.3494 82.8622C15.5881 83.0241 15.8991 83.1051 16.2827 83.1051C16.7003 83.1051 17.0341 83.0185 17.2841 82.8452C17.5341 82.669 17.6591 82.4545 17.6591 82.2017C17.6591 81.9972 17.5824 81.8253 17.429 81.6861C17.2784 81.5469 17.0469 81.4418 16.7344 81.3707L15.6264 81.1278C15.0156 80.9886 14.5639 80.767 14.2713 80.4631C13.9815 80.1591 13.8366 79.7741 13.8366 79.3082C13.8366 78.9219 13.9446 78.5838 14.1605 78.294C14.3764 78.0043 14.6747 77.7784 15.0554 77.6165C15.4361 77.4517 15.8722 77.3693 16.3636 77.3693C17.071 77.3693 17.6278 77.5227 18.0341 77.8295C18.4403 78.1335 18.7088 78.5412 18.8395 79.0526ZM23.4237 77.4545V78.4773H19.8484V77.4545H23.4237ZM20.8072 75.8864H22.0813V82.0781C22.0813 82.3253 22.1183 82.5114 22.1921 82.6364C22.266 82.7585 22.3612 82.8423 22.4776 82.8878C22.5969 82.9304 22.7262 82.9517 22.8654 82.9517C22.9677 82.9517 23.0572 82.9446 23.1339 82.9304C23.2106 82.9162 23.2702 82.9048 23.3129 82.8963L23.543 83.9489C23.4691 83.9773 23.364 84.0057 23.2276 84.0341C23.0913 84.0653 22.9208 84.0824 22.7163 84.0852C22.381 84.0909 22.0685 84.0312 21.7788 83.9062C21.489 83.7812 21.2546 83.5881 21.0756 83.3267C20.8967 83.0653 20.8072 82.7372 20.8072 82.3423V75.8864ZM26.7379 84.1449C26.3232 84.1449 25.9482 84.0682 25.6129 83.9148C25.2777 83.7585 25.0121 83.5327 24.8161 83.2372C24.6229 82.9418 24.5263 82.5795 24.5263 82.1506C24.5263 81.7812 24.5973 81.4773 24.7393 81.2386C24.8814 81 25.0732 80.8111 25.3146 80.6719C25.5561 80.5327 25.826 80.4276 26.1243 80.3565C26.4226 80.2855 26.7266 80.2315 27.0362 80.1946C27.4283 80.1491 27.7464 80.1122 27.9908 80.0838C28.2351 80.0526 28.4126 80.0028 28.5234 79.9347C28.6342 79.8665 28.6896 79.7557 28.6896 79.6023V79.5724C28.6896 79.2003 28.5845 78.9119 28.3743 78.7074C28.1669 78.5028 27.8572 78.4006 27.4453 78.4006C27.0163 78.4006 26.6783 78.4957 26.4311 78.6861C26.1868 78.8736 26.0178 79.0824 25.924 79.3125L24.7266 79.0398C24.8686 78.642 25.076 78.321 25.3487 78.0767C25.6243 77.8295 25.9411 77.6506 26.299 77.5398C26.657 77.4261 27.0334 77.3693 27.4283 77.3693C27.6896 77.3693 27.9666 77.4006 28.2592 77.4631C28.5547 77.5227 28.8303 77.6335 29.0859 77.7955C29.3445 77.9574 29.5561 78.1889 29.7209 78.4901C29.8857 78.7884 29.968 79.1761 29.968 79.6534V84H28.7237V83.1051H28.6726C28.5902 83.2699 28.4666 83.4318 28.3018 83.5909C28.1371 83.75 27.9254 83.8821 27.6669 83.9872C27.4084 84.0923 27.0987 84.1449 26.7379 84.1449ZM27.0149 83.1222C27.3672 83.1222 27.6683 83.0526 27.9183 82.9134C28.1712 82.7741 28.3629 82.5923 28.4936 82.3679C28.6271 82.1406 28.6939 81.8977 28.6939 81.6392V80.7955C28.6484 80.8409 28.5604 80.8835 28.4297 80.9233C28.3018 80.9602 28.1555 80.9929 27.9908 81.0213C27.826 81.0469 27.6655 81.071 27.5092 81.0938C27.353 81.1136 27.2223 81.1307 27.1172 81.1449C26.87 81.1761 26.6442 81.2287 26.4396 81.3026C26.2379 81.3764 26.076 81.483 25.9538 81.6222C25.8345 81.7585 25.7749 81.9403 25.7749 82.1676C25.7749 82.483 25.8913 82.7216 26.1243 82.8835C26.3572 83.0426 26.6541 83.1222 27.0149 83.1222ZM34.4094 86.5909C33.8896 86.5909 33.4421 86.5227 33.0671 86.3864C32.695 86.25 32.391 86.0696 32.1552 85.8452C31.9194 85.6207 31.7433 85.375 31.6268 85.108L32.7219 84.6562C32.7987 84.7812 32.9009 84.9134 33.0288 85.0526C33.1594 85.1946 33.3356 85.3153 33.5572 85.4148C33.7816 85.5142 34.07 85.5639 34.4222 85.5639C34.9052 85.5639 35.3043 85.446 35.6197 85.2102C35.935 84.9773 36.0927 84.6051 36.0927 84.0938V82.8068H36.0117C35.935 82.946 35.8242 83.1009 35.6793 83.2713C35.5373 83.4418 35.3413 83.5895 35.0913 83.7145C34.8413 83.8395 34.516 83.902 34.1154 83.902C33.5984 83.902 33.1325 83.7812 32.7177 83.5398C32.3058 83.2955 31.979 82.9361 31.7376 82.4616C31.4989 81.9844 31.3796 81.3977 31.3796 80.7017C31.3796 80.0057 31.4975 79.4091 31.7333 78.9119C31.9719 78.4148 32.2987 78.0341 32.7134 77.7699C33.1282 77.5028 33.5984 77.3693 34.1239 77.3693C34.5302 77.3693 34.8583 77.4375 35.1083 77.5739C35.3583 77.7074 35.5529 77.8636 35.6921 78.0426C35.8342 78.2216 35.9435 78.3793 36.0202 78.5156H36.114V77.4545H37.3626V84.1449C37.3626 84.7074 37.2319 85.169 36.9705 85.5298C36.7092 85.8906 36.3555 86.1577 35.9094 86.331C35.4663 86.5043 34.9663 86.5909 34.4094 86.5909ZM34.3967 82.8452C34.7631 82.8452 35.0728 82.7599 35.3256 82.5895C35.5813 82.4162 35.7745 82.169 35.9052 81.848C36.0387 81.5241 36.1055 81.1364 36.1055 80.6847C36.1055 80.2443 36.0401 79.8565 35.9094 79.5213C35.7788 79.1861 35.587 78.9247 35.3342 78.7372C35.0813 78.5469 34.7688 78.4517 34.3967 78.4517C34.0131 78.4517 33.6935 78.5511 33.4379 78.75C33.1822 78.946 32.989 79.2131 32.8583 79.5511C32.7305 79.8892 32.6665 80.267 32.6665 80.6847C32.6665 81.1136 32.7319 81.4901 32.8626 81.8139C32.9933 82.1378 33.1864 82.3906 33.4421 82.5724C33.7006 82.7543 34.0188 82.8452 34.3967 82.8452ZM39.0714 84V77.4545H40.3029V78.4943H40.3711C40.4904 78.142 40.7006 77.8651 41.0018 77.6634C41.3058 77.4588 41.6495 77.3565 42.033 77.3565C42.1126 77.3565 42.2063 77.3594 42.3143 77.3651C42.4251 77.3707 42.5117 77.3778 42.5742 77.3864V78.6051C42.5231 78.5909 42.4322 78.5753 42.3015 78.5582C42.1708 78.5384 42.0401 78.5284 41.9094 78.5284C41.6083 78.5284 41.3398 78.5923 41.104 78.7202C40.8711 78.8452 40.6864 79.0199 40.5501 79.2443C40.4137 79.4659 40.3455 79.7187 40.3455 80.0028V84H39.0714ZM45.5231 84.1449C45.1083 84.1449 44.7333 84.0682 44.3981 83.9148C44.0629 83.7585 43.7972 83.5327 43.6012 83.2372C43.408 82.9418 43.3114 82.5795 43.3114 82.1506C43.3114 81.7812 43.3825 81.4773 43.5245 81.2386C43.6665 81 43.8583 80.8111 44.0998 80.6719C44.3413 80.5327 44.6112 80.4276 44.9094 80.3565C45.2077 80.2855 45.5117 80.2315 45.8214 80.1946C46.2134 80.1491 46.5316 80.1122 46.7759 80.0838C47.0202 80.0526 47.1978 80.0028 47.3086 79.9347C47.4194 79.8665 47.4748 79.7557 47.4748 79.6023V79.5724C47.4748 79.2003 47.3697 78.9119 47.1594 78.7074C46.9521 78.5028 46.6424 78.4006 46.2305 78.4006C45.8015 78.4006 45.4634 78.4957 45.2163 78.6861C44.9719 78.8736 44.8029 79.0824 44.7092 79.3125L43.5117 79.0398C43.6538 78.642 43.8612 78.321 44.1339 78.0767C44.4094 77.8295 44.7262 77.6506 45.0842 77.5398C45.4421 77.4261 45.8185 77.3693 46.2134 77.3693C46.4748 77.3693 46.7518 77.4006 47.0444 77.4631C47.3398 77.5227 47.6154 77.6335 47.8711 77.7955C48.1296 77.9574 48.3413 78.1889 48.506 78.4901C48.6708 78.7884 48.7532 79.1761 48.7532 79.6534V84H47.5089V83.1051H47.4577C47.3754 83.2699 47.2518 83.4318 47.087 83.5909C46.9222 83.75 46.7106 83.8821 46.4521 83.9872C46.1935 84.0923 45.8839 84.1449 45.5231 84.1449ZM45.8001 83.1222C46.1523 83.1222 46.4535 83.0526 46.7035 82.9134C46.9563 82.7741 47.1481 82.5923 47.2788 82.3679C47.4123 82.1406 47.479 81.8977 47.479 81.6392V80.7955C47.4336 80.8409 47.3455 80.8835 47.2148 80.9233C47.087 80.9602 46.9407 80.9929 46.7759 81.0213C46.6112 81.0469 46.4506 81.071 46.2944 81.0938C46.1381 81.1136 46.0075 81.1307 45.9023 81.1449C45.6552 81.1761 45.4293 81.2287 45.2248 81.3026C45.0231 81.3764 44.8612 81.483 44.739 81.6222C44.6197 81.7585 44.56 81.9403 44.56 82.1676C44.56 82.483 44.6765 82.7216 44.9094 82.8835C45.1424 83.0426 45.4393 83.1222 45.8001 83.1222ZM50.4503 84V77.4545H51.6733V78.5199H51.7543C51.8906 78.1591 52.1136 77.8778 52.4233 77.6761C52.733 77.4716 53.1037 77.3693 53.5355 77.3693C53.973 77.3693 54.3395 77.4716 54.6349 77.6761C54.9332 77.8807 55.1534 78.1619 55.2955 78.5199H55.3636C55.5199 78.1705 55.7685 77.892 56.1094 77.6847C56.4503 77.4744 56.8565 77.3693 57.3281 77.3693C57.9219 77.3693 58.4062 77.5554 58.7812 77.9276C59.1591 78.2997 59.348 78.8608 59.348 79.6108V84H58.0739V79.7301C58.0739 79.2869 57.9531 78.9659 57.7116 78.767C57.4702 78.5682 57.1818 78.4688 56.8466 78.4688C56.4318 78.4688 56.1094 78.5966 55.8793 78.8523C55.6491 79.1051 55.5341 79.4304 55.5341 79.8281V84H54.2642V79.6491C54.2642 79.294 54.1534 79.0085 53.9318 78.7926C53.7102 78.5767 53.4219 78.4688 53.0668 78.4688C52.8253 78.4688 52.6023 78.5327 52.3977 78.6605C52.196 78.7855 52.0327 78.9602 51.9077 79.1847C51.7855 79.4091 51.7244 79.669 51.7244 79.9645V84H50.4503Z" fill="#374151"/>
<defs>
<linearGradient id="paint0_linear_113_995" x1="-9.59556" y1="32.9706" x2="24.3456" y2="66.9117" gradientUnits="userSpaceOnUse">
<stop stop-color="#9333EA"/>
<stop offset="1" stop-color="#DB2777"/>
</linearGradient>
</defs>
</svg>
