<svg width="97" height="90" viewBox="0 0 97 90" fill="none" xmlns="http://www.w3.org/2000/svg">
<g filter="url(#filter0_dd_104_393)">
<path d="M0 18C0 9.16344 7.16344 2 16 2H74.2969C83.1334 2 90.2969 9.16344 90.2969 18V74C90.2969 82.8366 83.1334 90 74.2969 90H16C7.16344 90 0 82.8366 0 74V18Z" fill="url(#paint0_linear_104_393)"/>
<path d="M45.1454 27.6098C42.1642 27.6098 39.7595 30.0145 39.7595 32.9957C39.7595 35.977 42.1642 38.3816 45.1454 38.3816C48.1267 38.3816 50.5313 35.977 50.5313 32.9957C50.5313 30.0145 48.1267 27.6098 45.1454 27.6098ZM45.1454 36.4973C43.2188 36.4973 41.6438 34.927 41.6438 32.9957C41.6438 31.0645 43.2142 29.4941 45.1454 29.4941C47.0767 29.4941 48.647 31.0645 48.647 32.9957C48.647 34.927 47.072 36.4973 45.1454 36.4973ZM52.0079 27.3895C52.0079 28.0879 51.4454 28.6457 50.7517 28.6457C50.0532 28.6457 49.4954 28.0832 49.4954 27.3895C49.4954 26.6957 50.0579 26.1332 50.7517 26.1332C51.4454 26.1332 52.0079 26.6957 52.0079 27.3895ZM55.5751 28.6645C55.4954 26.9816 55.111 25.491 53.8782 24.2629C52.6501 23.0348 51.1595 22.6504 49.4767 22.566C47.7423 22.4676 42.5438 22.4676 40.8095 22.566C39.1313 22.6457 37.6407 23.0301 36.4079 24.2582C35.1751 25.4863 34.7954 26.977 34.711 28.6598C34.6126 30.3941 34.6126 35.5926 34.711 37.327C34.7907 39.0098 35.1751 40.5004 36.4079 41.7285C37.6407 42.9566 39.1267 43.341 40.8095 43.4254C42.5438 43.5238 47.7423 43.5238 49.4767 43.4254C51.1595 43.3457 52.6501 42.9613 53.8782 41.7285C55.1063 40.5004 55.4907 39.0098 55.5751 37.327C55.6735 35.5926 55.6735 30.3988 55.5751 28.6645ZM53.3345 39.1879C52.9688 40.1066 52.261 40.8145 51.3376 41.1848C49.9548 41.7332 46.6735 41.6066 45.1454 41.6066C43.6173 41.6066 40.3313 41.7285 38.9532 41.1848C38.0345 40.8191 37.3267 40.1113 36.9563 39.1879C36.4079 37.8051 36.5345 34.5238 36.5345 32.9957C36.5345 31.4676 36.4126 28.1816 36.9563 26.8035C37.322 25.8848 38.0298 25.177 38.9532 24.8066C40.336 24.2582 43.6173 24.3848 45.1454 24.3848C46.6735 24.3848 49.9595 24.2629 51.3376 24.8066C52.2563 25.1723 52.9642 25.8801 53.3345 26.8035C53.8829 28.1863 53.7563 31.4676 53.7563 32.9957C53.7563 34.5238 53.8829 37.8098 53.3345 39.1879Z" fill="white"/>
<path d="M18.7211 61.2727V70H17.1401V61.2727H18.7211ZM21.9075 66.1648V70H20.3649V63.4545H21.8393V64.5668H21.916C22.0666 64.2003 22.3066 63.9091 22.6362 63.6932C22.9686 63.4773 23.3791 63.3693 23.8677 63.3693C24.3194 63.3693 24.7129 63.4659 25.0481 63.6591C25.3862 63.8523 25.6475 64.1321 25.8322 64.4986C26.0197 64.8651 26.112 65.3097 26.1092 65.8324V70H24.5666V66.071C24.5666 65.6335 24.4529 65.2912 24.2257 65.044C24.0012 64.7969 23.6902 64.6733 23.2924 64.6733C23.0225 64.6733 22.7825 64.733 22.5723 64.8523C22.3649 64.9687 22.2015 65.1378 22.0822 65.3594C21.9657 65.581 21.9075 65.8494 21.9075 66.1648ZM32.8507 65.1847L31.4444 65.3381C31.4047 65.196 31.335 65.0625 31.2356 64.9375C31.139 64.8125 31.0083 64.7116 30.8436 64.6349C30.6788 64.5582 30.4771 64.5199 30.2385 64.5199C29.9174 64.5199 29.6475 64.5895 29.4288 64.7287C29.2129 64.8679 29.1064 65.0483 29.1092 65.2699C29.1064 65.4602 29.176 65.6151 29.318 65.7344C29.4629 65.8537 29.7015 65.9517 30.0339 66.0284L31.1504 66.267C31.7697 66.4006 32.2299 66.6122 32.5311 66.902C32.835 67.1918 32.9885 67.571 32.9913 68.0398C32.9885 68.4517 32.8677 68.8153 32.6291 69.1307C32.3933 69.4432 32.0652 69.6875 31.6447 69.8636C31.2243 70.0398 30.7413 70.1278 30.1958 70.1278C29.3947 70.1278 28.7498 69.9602 28.2612 69.625C27.7725 69.2869 27.4814 68.8168 27.3876 68.2145L28.8919 68.0696C28.96 68.3651 29.1049 68.5881 29.3265 68.7386C29.5481 68.8892 29.8365 68.9645 30.1916 68.9645C30.5581 68.9645 30.8521 68.8892 31.0737 68.7386C31.2981 68.5881 31.4103 68.402 31.4103 68.1804C31.4103 67.9929 31.3379 67.8381 31.193 67.7159C31.051 67.5937 30.8294 67.5 30.5282 67.4347L29.4118 67.2003C28.7839 67.0696 28.3194 66.8494 28.0183 66.5398C27.7172 66.2273 27.568 65.8324 27.5708 65.3551C27.568 64.9517 27.6774 64.6023 27.899 64.3068C28.1234 64.0085 28.4345 63.7784 28.8322 63.6165C29.2328 63.4517 29.6944 63.3693 30.2172 63.3693C30.9842 63.3693 31.5879 63.5327 32.0282 63.8594C32.4714 64.1861 32.7456 64.6278 32.8507 65.1847ZM37.5318 63.4545V64.6477H33.769V63.4545H37.5318ZM34.698 61.8864H36.2406V68.0312C36.2406 68.2386 36.2718 68.3977 36.3343 68.5085C36.3997 68.6165 36.4849 68.6903 36.59 68.7301C36.6951 68.7699 36.8116 68.7898 36.9395 68.7898C37.036 68.7898 37.1241 68.7827 37.2037 68.7685C37.286 68.7543 37.3485 68.7415 37.3912 68.7301L37.6511 69.9361C37.5687 69.9645 37.4508 69.9957 37.2974 70.0298C37.1468 70.0639 36.9622 70.0838 36.7434 70.0895C36.3571 70.1009 36.0091 70.0426 35.6994 69.9148C35.3897 69.7841 35.144 69.5824 34.9622 69.3097C34.7832 69.0369 34.6951 68.696 34.698 68.2869V61.8864ZM40.7054 70.1321C40.2907 70.1321 39.9171 70.0582 39.5847 69.9105C39.2551 69.7599 38.9938 69.5384 38.8006 69.2457C38.6103 68.9531 38.5151 68.5923 38.5151 68.1634C38.5151 67.794 38.5833 67.4886 38.7196 67.2472C38.856 67.0057 39.0421 66.8125 39.2779 66.6676C39.5137 66.5227 39.7793 66.4134 40.0748 66.3395C40.373 66.2628 40.6813 66.2074 40.9995 66.1733C41.383 66.1335 41.6941 66.098 41.9327 66.0668C42.1713 66.0327 42.3446 65.9815 42.4526 65.9134C42.5634 65.8423 42.6188 65.733 42.6188 65.5852V65.5597C42.6188 65.2386 42.5236 64.9901 42.3333 64.8139C42.1429 64.6378 41.8688 64.5497 41.5108 64.5497C41.133 64.5497 40.8333 64.6321 40.6117 64.7969C40.3929 64.9616 40.2452 65.1562 40.1685 65.3807L38.7282 65.1761C38.8418 64.7784 39.0293 64.446 39.2907 64.179C39.552 63.9091 39.8716 63.7074 40.2495 63.5739C40.6273 63.4375 41.0449 63.3693 41.5023 63.3693C41.8176 63.3693 42.1316 63.4062 42.4441 63.4801C42.7566 63.554 43.0421 63.6761 43.3006 63.8466C43.5591 64.0142 43.7665 64.2429 43.9228 64.5327C44.0819 64.8224 44.1614 65.1847 44.1614 65.6193V70H42.6784V69.1009H42.6273C42.5336 69.2827 42.4015 69.4531 42.231 69.6122C42.0634 69.7685 41.8517 69.8949 41.5961 69.9915C41.3432 70.0852 41.0463 70.1321 40.7054 70.1321ZM41.106 68.9986C41.4157 68.9986 41.6841 68.9375 41.9114 68.8153C42.1387 68.6903 42.3134 68.5256 42.4355 68.321C42.5605 68.1165 42.623 67.8935 42.623 67.652V66.8807C42.5748 66.9205 42.4924 66.9574 42.3759 66.9915C42.2623 67.0256 42.1344 67.0554 41.9924 67.081C41.8503 67.1065 41.7097 67.1293 41.5705 67.1491C41.4313 67.169 41.3105 67.1861 41.2083 67.2003C40.9782 67.2315 40.7722 67.2827 40.5904 67.3537C40.4086 67.4247 40.2651 67.5241 40.16 67.652C40.0549 67.777 40.0023 67.9389 40.0023 68.1378C40.0023 68.4219 40.106 68.6364 40.3134 68.7812C40.5208 68.9261 40.785 68.9986 41.106 68.9986ZM48.5591 72.5909C48.0051 72.5909 47.5293 72.5156 47.1316 72.3651C46.7338 72.2173 46.4142 72.0185 46.1728 71.7685C45.9313 71.5185 45.7637 71.2415 45.6699 70.9375L47.0591 70.6009C47.1216 70.7287 47.2125 70.8551 47.3319 70.9801C47.4512 71.108 47.6117 71.2131 47.8134 71.2955C48.0179 71.3807 48.275 71.4233 48.5847 71.4233C49.0222 71.4233 49.3844 71.3168 49.6713 71.1037C49.9583 70.8935 50.1017 70.5469 50.1017 70.0639V68.8239H50.025C49.9455 68.983 49.829 69.1463 49.6756 69.3139C49.525 69.4815 49.3248 69.6222 49.0748 69.7358C48.8276 69.8494 48.5165 69.9062 48.1415 69.9062C47.6387 69.9062 47.1827 69.7884 46.7736 69.5526C46.3674 69.3139 46.0435 68.9588 45.802 68.4872C45.5634 68.0128 45.4441 67.419 45.4441 66.706C45.4441 65.9872 45.5634 65.3807 45.802 64.8864C46.0435 64.3892 46.3688 64.0128 46.7779 63.7571C47.187 63.4986 47.6429 63.3693 48.1458 63.3693C48.5293 63.3693 48.8446 63.4347 49.0918 63.5653C49.3418 63.6932 49.5407 63.848 49.6884 64.0298C49.8361 64.2088 49.9483 64.3778 50.025 64.5369H50.1103V63.4545H51.6316V70.1065C51.6316 70.6662 51.498 71.1293 51.231 71.4957C50.964 71.8622 50.5989 72.1364 50.1358 72.3182C49.6728 72.5 49.1472 72.5909 48.5591 72.5909ZM48.5719 68.696C48.8986 68.696 49.177 68.6165 49.4071 68.4574C49.6373 68.2983 49.812 68.0696 49.9313 67.7713C50.0506 67.473 50.1103 67.1151 50.1103 66.6974C50.1103 66.2855 50.0506 65.9247 49.9313 65.6151C49.8148 65.3054 49.6415 65.0653 49.4114 64.8949C49.1841 64.7216 48.9043 64.6349 48.5719 64.6349C48.2282 64.6349 47.9412 64.7244 47.7111 64.9034C47.481 65.0824 47.3077 65.3281 47.1912 65.6406C47.0748 65.9503 47.0165 66.3026 47.0165 66.6974C47.0165 67.098 47.0748 67.4489 47.1912 67.75C47.3105 68.0483 47.4853 68.2812 47.7154 68.4489C47.9483 68.6136 48.2338 68.696 48.5719 68.696ZM53.2125 70V63.4545H54.7083V64.5455H54.7765C54.8958 64.1676 55.1003 63.8764 55.3901 63.6719C55.6827 63.4645 56.0165 63.3608 56.3915 63.3608C56.4767 63.3608 56.5719 63.3651 56.677 63.3736C56.785 63.3793 56.8745 63.3892 56.9455 63.4034V64.8224C56.8801 64.7997 56.7765 64.7798 56.6344 64.7628C56.4952 64.7429 56.3603 64.733 56.2296 64.733C55.9483 64.733 55.6955 64.794 55.4711 64.9162C55.2495 65.0355 55.0748 65.2017 54.9469 65.4148C54.8191 65.6278 54.7551 65.8736 54.7551 66.152V70H53.2125ZM59.7367 70.1321C59.3219 70.1321 58.9483 70.0582 58.6159 69.9105C58.2864 69.7599 58.025 69.5384 57.8319 69.2457C57.6415 68.9531 57.5463 68.5923 57.5463 68.1634C57.5463 67.794 57.6145 67.4886 57.7509 67.2472C57.8873 67.0057 58.0733 66.8125 58.3091 66.6676C58.5449 66.5227 58.8105 66.4134 59.106 66.3395C59.4043 66.2628 59.7125 66.2074 60.0307 66.1733C60.4142 66.1335 60.7253 66.098 60.964 66.0668C61.2026 66.0327 61.3759 65.9815 61.4838 65.9134C61.5946 65.8423 61.65 65.733 61.65 65.5852V65.5597C61.65 65.2386 61.5549 64.9901 61.3645 64.8139C61.1742 64.6378 60.9 64.5497 60.5421 64.5497C60.1642 64.5497 59.8645 64.6321 59.6429 64.7969C59.4242 64.9616 59.2765 65.1562 59.1998 65.3807L57.7594 65.1761C57.873 64.7784 58.0605 64.446 58.3219 64.179C58.5833 63.9091 58.9029 63.7074 59.2807 63.5739C59.6586 63.4375 60.0762 63.3693 60.5336 63.3693C60.8489 63.3693 61.1628 63.4062 61.4753 63.4801C61.7878 63.554 62.0733 63.6761 62.3319 63.8466C62.5904 64.0142 62.7978 64.2429 62.954 64.5327C63.1131 64.8224 63.1926 65.1847 63.1926 65.6193V70H61.7097V69.1009H61.6586C61.5648 69.2827 61.4327 69.4531 61.2623 69.6122C61.0946 69.7685 60.883 69.8949 60.6273 69.9915C60.3745 70.0852 60.0776 70.1321 59.7367 70.1321ZM60.1373 68.9986C60.4469 68.9986 60.7154 68.9375 60.9426 68.8153C61.1699 68.6903 61.3446 68.5256 61.4668 68.321C61.5918 68.1165 61.6543 67.8935 61.6543 67.652V66.8807C61.606 66.9205 61.5236 66.9574 61.4071 66.9915C61.2935 67.0256 61.1657 67.0554 61.0236 67.081C60.8816 67.1065 60.7409 67.1293 60.6017 67.1491C60.4625 67.169 60.3418 67.1861 60.2395 67.2003C60.0094 67.2315 59.8034 67.2827 59.6216 67.3537C59.4398 67.4247 59.2963 67.5241 59.1912 67.652C59.0861 67.777 59.0336 67.9389 59.0336 68.1378C59.0336 68.4219 59.1373 68.6364 59.3446 68.7812C59.552 68.9261 59.8162 68.9986 60.1373 68.9986ZM64.7438 70V63.4545H66.2182V64.5668H66.2949C66.4313 64.1918 66.6571 63.8991 66.9725 63.6889C67.2878 63.4759 67.6642 63.3693 68.1017 63.3693C68.5449 63.3693 68.9185 63.4773 69.2225 63.6932C69.5293 63.9062 69.7452 64.1974 69.8702 64.5668H69.9384C70.0833 64.2031 70.3276 63.9134 70.6713 63.6974C71.0179 63.4787 71.4284 63.3693 71.9029 63.3693C72.5051 63.3693 72.9966 63.5597 73.3773 63.9403C73.758 64.321 73.9483 64.8764 73.9483 65.6065V70H72.4015V65.8452C72.4015 65.4389 72.2935 65.142 72.0776 64.9545C71.8617 64.7642 71.5975 64.669 71.285 64.669C70.9128 64.669 70.6216 64.7855 70.4114 65.0185C70.204 65.2486 70.1003 65.5483 70.1003 65.9176V70H68.5875V65.7812C68.5875 65.4432 68.4853 65.1733 68.2807 64.9716C68.079 64.7699 67.8148 64.669 67.4881 64.669C67.2665 64.669 67.0648 64.7259 66.883 64.8395C66.7012 64.9503 66.5563 65.108 66.4483 65.3125C66.3404 65.5142 66.2864 65.75 66.2864 66.0199V70H64.7438Z" fill="white"/>
</g>
<defs>
<filter id="filter0_dd_104_393" x="-6" y="0" width="102.297" height="100" filterUnits="userSpaceOnUse" color-interpolation-filters="sRGB">
<feFlood flood-opacity="0" result="BackgroundImageFix"/>
<feColorMatrix in="SourceAlpha" type="matrix" values="0 0 0 0 0 0 0 0 0 0 0 0 0 0 0 0 0 0 127 0" result="hardAlpha"/>
<feOffset dy="4"/>
<feGaussianBlur stdDeviation="3"/>
<feColorMatrix type="matrix" values="0 0 0 0 0 0 0 0 0 0 0 0 0 0 0 0 0 0 0.1 0"/>
<feBlend mode="normal" in2="BackgroundImageFix" result="effect1_dropShadow_104_393"/>
<feColorMatrix in="SourceAlpha" type="matrix" values="0 0 0 0 0 0 0 0 0 0 0 0 0 0 0 0 0 0 127 0" result="hardAlpha"/>
<feOffset dy="2"/>
<feGaussianBlur stdDeviation="2"/>
<feColorMatrix type="matrix" values="0 0 0 0 0 0 0 0 0 0 0 0 0 0 0 0 0 0 0.1 0"/>
<feBlend mode="normal" in2="effect1_dropShadow_104_393" result="effect2_dropShadow_104_393"/>
<feBlend mode="normal" in="SourceGraphic" in2="effect2_dropShadow_104_393" result="shape"/>
</filter>
<linearGradient id="paint0_linear_104_393" x1="-31.9248" y1="33.1127" x2="30.28" y2="96.941" gradientUnits="userSpaceOnUse">
<stop stop-color="#EC4899"/>
<stop offset="1" stop-color="#9333EA"/>
</linearGradient>
</defs>
</svg>
