<svg width="48" height="48" viewBox="0 0 48 48" fill="none" xmlns="http://www.w3.org/2000/svg">
<path d="M0 12C0 5.37258 5.37258 0 12 0H36C42.6274 0 48 5.37258 48 12V36C48 42.6274 42.6274 48 36 48H12C5.37258 48 0 42.6274 0 36V12Z" fill="#FCF8FF"/>
<path d="M19.9414 14.9925C20.3281 15.3402 20.3594 15.93 20.0117 16.3167L17.1992 19.4417C17.0273 19.6332 16.7852 19.7464 16.5273 19.7503C16.2695 19.7542 16.0234 19.6566 15.8398 19.4769L14.2734 17.9144C13.9102 17.5472 13.9102 16.9535 14.2734 16.5863C14.6367 16.2191 15.2344 16.2191 15.5977 16.5863L16.4609 17.4496L18.6133 15.0589C18.9609 14.6722 19.5508 14.641 19.9375 14.9886L19.9414 14.9925ZM19.9414 21.2425C20.3281 21.5902 20.3594 22.18 20.0117 22.5667L17.1992 25.6917C17.0273 25.8832 16.7852 25.9964 16.5273 26.0003C16.2695 26.0042 16.0234 25.9066 15.8398 25.7269L14.2734 24.1644C13.9062 23.7972 13.9062 23.2035 14.2734 22.8402C14.6406 22.4769 15.2344 22.473 15.5977 22.8402L16.4609 23.7035L18.6133 21.3128C18.9609 20.9261 19.5508 20.8949 19.9375 21.2425H19.9414ZM22.75 17.2503C22.75 16.5589 23.3086 16.0003 24 16.0003H32.75C33.4414 16.0003 34 16.5589 34 17.2503C34 17.9417 33.4414 18.5003 32.75 18.5003H24C23.3086 18.5003 22.75 17.9417 22.75 17.2503ZM22.75 23.5003C22.75 22.8089 23.3086 22.2503 24 22.2503H32.75C33.4414 22.2503 34 22.8089 34 23.5003C34 24.1917 33.4414 24.7503 32.75 24.7503H24C23.3086 24.7503 22.75 24.1917 22.75 23.5003ZM20.25 29.7503C20.25 29.0589 20.8086 28.5003 21.5 28.5003H32.75C33.4414 28.5003 34 29.0589 34 29.7503C34 30.4417 33.4414 31.0003 32.75 31.0003H21.5C20.8086 31.0003 20.25 30.4417 20.25 29.7503ZM15.875 27.8753C16.3723 27.8753 16.8492 28.0729 17.2008 28.4245C17.5525 28.7761 17.75 29.2531 17.75 29.7503C17.75 30.2476 17.5525 30.7245 17.2008 31.0762C16.8492 31.4278 16.3723 31.6253 15.875 31.6253C15.3777 31.6253 14.9008 31.4278 14.5492 31.0762C14.1975 30.7245 14 30.2476 14 29.7503C14 29.2531 14.1975 28.7761 14.5492 28.4245C14.9008 28.0729 15.3777 27.8753 15.875 27.8753Z" fill="#FFB300"/>
</svg>
