<svg width="200" height="200" viewBox="0 0 200 200" fill="none" xmlns="http://www.w3.org/2000/svg">
<path d="M99.9539 11.4893L2.77271 57.9813V69.5295H10.3098V62.7306L99.9559 19.8436L189.69 62.7316V69.5295H197.227V57.9803L99.9539 11.4893ZM189.69 137.268L99.9559 180.157L10.3098 137.269V130.471H2.77271V142.019L99.9539 188.511L197.227 142.02V130.471H189.69V137.268Z" fill="url(#paint0_linear_84_57)"/>
<path d="M22.9813 79.8453C21.675 78.2339 19.6004 77.4277 16.7566 77.4277H6.25464V115.751H16.4955C19.4973 115.751 21.674 114.813 23.0233 112.937C24.3727 111.06 25.0479 108.205 25.0479 104.372L24.9609 86.4732C24.9459 83.6664 24.2857 81.4568 22.9793 79.8453H22.9813ZM17.4278 106.73C17.4278 108.093 16.6986 108.774 15.2412 108.774C15.0971 108.774 14.9061 108.766 14.667 108.75C14.4289 108.734 14.2659 108.726 14.1799 108.726C14.0498 108.726 13.9638 108.734 13.9198 108.75V84.2116C14.3239 84.1796 14.605 84.1636 14.764 84.1636C15.7453 84.1636 16.4345 84.4246 16.8316 84.9458C17.2287 85.4669 17.4268 86.4252 17.4268 87.8206V106.73H17.4278ZM36.4461 99.5369H43.6341V92.3438H36.4461V84.8618H43.9372V77.4277H28.6949V115.751H44.4353V108.269H36.4461V99.5369ZM46.2618 84.8137H50.7871V115.751H58.4082V84.8137H62.9335V77.4277H46.2618V84.8137ZM83.5653 81.7219C83.2842 80.7516 82.8981 79.9744 82.407 79.3882C81.9158 78.8031 81.2446 78.3299 80.3934 77.9688C79.5422 77.6077 78.5169 77.4277 77.3195 77.4277H65.6273V115.751H73.3354V98.3095C73.8986 98.3095 74.3167 98.3255 74.5908 98.3575C74.8649 98.3895 75.1499 98.4816 75.446 98.6346C75.7421 98.7877 75.9442 99.0397 76.0522 99.3928C76.1602 99.7459 76.2152 100.219 76.2152 100.812V115.751H83.6633C83.7203 112.463 83.7503 107.652 83.7503 101.317C83.7503 100.708 83.7143 100.159 83.6423 99.6699C83.5703 99.1808 83.4333 98.6476 83.2312 98.0704C83.0291 97.4933 82.697 97.0082 82.2349 96.615C81.7728 96.2219 81.1886 95.9539 80.4814 95.8088C81.1886 95.5678 81.7908 95.2237 82.2889 94.7745C82.7871 94.3254 83.1582 93.8683 83.4042 93.4031C83.6493 92.938 83.8404 92.3569 83.9784 91.6587C84.1164 90.9605 84.1945 90.3833 84.2165 89.9262C84.2385 89.469 84.2495 88.8799 84.2495 88.1577C84.2495 86.7783 84.2065 85.604 84.1194 84.6337C84.0324 83.6634 83.8484 82.6931 83.5673 81.7229L83.5653 81.7219ZM75.284 91.6697H73.3784V84.5247H73.7896C75.0019 84.5247 75.8061 84.7407 76.2032 85.1738C76.6003 85.607 76.7994 86.6012 76.7994 88.1567C76.7994 90.4983 76.2943 91.6687 75.284 91.6687V91.6697ZM96.4459 77.0186C93.328 77.0666 90.9934 77.9688 89.4419 79.7253C87.8905 81.4818 87.1143 83.9555 87.1143 87.1474V105.407C87.1143 106.962 87.2903 108.377 87.6444 109.653C87.9975 110.928 88.5357 112.062 89.2579 113.057C89.9791 114.051 90.9574 114.821 92.1917 115.366C93.426 115.911 94.8875 116.161 96.5759 116.113C98.1784 116.161 99.5968 115.911 100.83 115.366C102.064 114.821 103.042 114.051 103.764 113.057C104.485 112.062 105.023 110.928 105.377 109.653C105.73 108.377 105.908 106.962 105.908 105.407V87.1474C105.908 83.9565 105.131 81.4818 103.58 79.7253C102.028 77.9688 99.6498 77.0666 96.4459 77.0186ZM98.2534 88.3977C98.2464 88.6868 98.2424 88.8789 98.2424 88.9749V104.564C98.2424 104.917 98.2384 105.193 98.2314 105.395C98.2234 105.596 98.2064 105.884 98.1774 106.261C98.1484 106.638 98.0974 106.939 98.0263 107.163C97.9543 107.388 97.8563 107.624 97.7343 107.872C97.6112 108.121 97.4452 108.305 97.2361 108.425C97.0271 108.545 96.785 108.605 96.5109 108.605C96.2078 108.605 95.9448 108.537 95.7207 108.401C95.4966 108.265 95.3206 108.061 95.1905 107.788C95.0605 107.516 94.9555 107.255 94.8764 107.006C94.7964 106.758 94.7424 106.433 94.7144 106.032C94.6854 105.631 94.6674 105.326 94.6604 105.117C94.6524 104.909 94.6494 104.628 94.6494 104.275V87.7116C94.6494 87.5435 94.6634 87.2624 94.6924 86.8693C94.7214 86.4762 94.7794 86.1801 94.8654 85.9791C94.9525 85.779 95.0605 85.5539 95.1905 85.3059C95.3206 85.0578 95.4976 84.8768 95.7207 84.7647C95.9448 84.6527 96.2078 84.5967 96.5109 84.5967C96.727 84.5967 96.922 84.6247 97.0951 84.6807C97.2681 84.7367 97.4122 84.8337 97.5282 84.9698C97.6432 85.1058 97.7443 85.2349 97.8313 85.3549C97.9183 85.4749 97.9863 85.652 98.0373 85.884C98.0873 86.1171 98.1314 86.3092 98.1674 86.4612C98.2034 86.6142 98.2244 86.8303 98.2324 87.1104C98.2394 87.3915 98.2464 87.6035 98.2544 87.7476C98.2614 87.8916 98.2614 88.1087 98.2544 88.3967L98.2534 88.3977ZM109.486 115.751H116.847V77.4277H109.486V115.751ZM119.43 84.8137H123.956V115.751H131.577V84.8137H136.102V77.4277H119.43V84.8137ZM149.365 115.751H157.03V98.3575H164.218V90.9715H157.03V84.9088H164.608V77.4267H149.365V115.75V115.751ZM167.472 115.751H174.833V77.4277H167.472V115.751ZM177.417 77.4277V84.8137H181.942V115.751H189.563V84.8137H194.088V77.4277H177.417Z" fill="url(#paint1_linear_84_57)"/>
<path d="M89.8552 145.095C89.6392 144.277 89.2781 143.527 88.7729 142.845C88.2678 142.164 87.5316 141.567 86.5643 141.053C87.3145 140.764 87.9207 140.359 88.3828 139.837C88.8449 139.316 89.2061 138.719 89.4651 138.045C89.7252 137.372 89.9012 136.629 89.9953 135.819C90.0893 135.01 90.1363 134.164 90.1363 133.282C90.1363 131.534 89.9202 130.018 89.4871 128.734C89.054 127.451 88.4228 126.389 87.5926 125.546C86.7624 124.704 85.7411 124.079 84.5287 123.67C83.3164 123.261 81.938 123.057 80.3936 123.057C78.8492 123.057 77.3697 123.242 76.1284 123.61C74.887 123.979 73.8437 124.572 72.9995 125.39C72.1553 126.209 71.5161 127.267 71.083 128.566C70.6499 129.866 70.4408 131.437 70.4548 133.282L70.4978 134.725H78.379V133.474C78.379 133.136 78.386 132.8 78.401 132.463C78.415 132.126 78.484 131.822 78.6071 131.549C78.7291 131.277 78.9322 131.052 79.2132 130.876C79.4943 130.7 79.9024 130.611 80.4366 130.611C81.6779 130.611 82.2981 131.533 82.2981 133.378C82.2981 134.885 81.944 135.944 81.2368 136.553C80.5296 137.164 79.5333 137.468 78.249 137.468V144.854C78.336 144.838 78.44 144.826 78.5631 144.818C78.6851 144.81 78.8261 144.806 78.9852 144.806C79.6054 144.806 80.1255 144.954 80.5446 145.251C80.9627 145.548 81.2948 145.945 81.5409 146.442C81.786 146.939 81.963 147.521 82.071 148.187C82.1791 148.853 82.2331 149.546 82.2331 150.267C82.2331 151.198 82.1971 151.944 82.1251 152.505C82.053 153.066 81.937 153.499 81.779 153.804C81.6199 154.109 81.4179 154.313 81.1728 154.417C80.9267 154.521 80.6236 154.573 80.2635 154.573C79.7724 154.573 79.3833 154.501 79.0942 154.357C78.8051 154.213 78.5851 154.017 78.434 153.768C78.282 153.52 78.185 153.231 78.142 152.902C78.0989 152.574 78.0769 152.233 78.0769 151.88V148.151H70.2607V151.856C70.2607 153.668 70.4628 155.224 70.8669 156.523C71.271 157.822 71.8742 158.893 72.6744 159.735C73.4756 160.577 74.4789 161.194 75.6843 161.587C76.8896 161.981 78.293 162.177 79.8954 162.177C81.772 162.177 83.3664 161.912 84.6808 161.382C85.9942 160.853 87.0624 160.092 87.8857 159.097C88.7079 158.102 89.3041 156.883 89.6722 155.44C90.0403 153.996 90.2243 152.361 90.2243 150.532C90.2243 149.554 90.2173 148.608 90.2023 147.694C90.1873 146.779 90.0723 145.913 89.8562 145.096L89.8552 145.095ZM98.2206 125.56C97.6714 126.234 97.0152 126.78 96.25 127.196C95.4848 127.613 94.7486 127.942 94.0414 128.182C93.3342 128.423 92.778 128.543 92.3739 128.543V135.111C93.0951 135.111 93.8714 134.991 94.7016 134.75C95.5318 134.509 96.094 134.317 96.3901 134.173C96.6861 134.029 96.9202 133.908 97.0933 133.812V161.718H105.17V123.395H99.0418C99.0418 124.165 98.7677 124.886 98.2186 125.56H98.2206ZM128.583 147.694C128.568 146.779 128.453 145.913 128.237 145.096C128.021 144.278 127.66 143.528 127.155 142.846C126.65 142.165 125.913 141.568 124.946 141.054C125.696 140.765 126.302 140.36 126.765 139.838C127.227 139.317 127.588 138.72 127.847 138.046C128.107 137.373 128.283 136.63 128.377 135.82C128.471 135.011 128.518 134.165 128.518 133.283C128.518 131.535 128.302 130.019 127.869 128.735C127.436 127.452 126.805 126.39 125.974 125.547C125.144 124.705 124.123 124.08 122.91 123.671C121.698 123.262 120.32 123.058 118.775 123.058C117.231 123.058 115.751 123.243 114.51 123.611C113.269 123.98 112.225 124.573 111.381 125.391C110.537 126.21 109.898 127.268 109.465 128.567C109.032 129.867 108.823 131.438 108.837 133.283L108.88 134.726H116.761V133.475C116.761 133.137 116.768 132.801 116.783 132.464C116.797 132.127 116.866 131.823 116.989 131.55C117.111 131.278 117.314 131.053 117.595 130.877C117.876 130.701 118.284 130.612 118.818 130.612C120.06 130.612 120.68 131.534 120.68 133.379C120.68 134.886 120.326 135.945 119.619 136.554C118.911 137.165 117.915 137.469 116.631 137.469V144.855C116.718 144.839 116.822 144.827 116.945 144.819C117.067 144.811 117.208 144.807 117.367 144.807C117.987 144.807 118.507 144.955 118.926 145.252C119.344 145.549 119.677 145.946 119.923 146.443C120.168 146.94 120.345 147.522 120.453 148.188C120.561 148.854 120.615 149.547 120.615 150.268C120.615 151.199 120.579 151.945 120.507 152.506C120.435 153.067 120.319 153.5 120.161 153.805C120.002 154.11 119.8 154.314 119.555 154.418C119.308 154.522 119.006 154.574 118.645 154.574C118.154 154.574 117.765 154.502 117.476 154.358C117.187 154.214 116.967 154.018 116.816 153.769C116.665 153.521 116.567 153.232 116.524 152.903C116.481 152.575 116.459 152.234 116.459 151.881V148.152H108.642V151.857C108.642 153.669 108.845 155.225 109.249 156.524C109.653 157.823 110.256 158.894 111.057 159.736C111.858 160.578 112.862 161.195 114.067 161.588C115.272 161.982 116.676 162.178 118.278 162.178C120.155 162.178 121.749 161.913 123.064 161.383C124.377 160.854 125.445 160.093 126.268 159.098C127.092 158.103 127.687 156.884 128.055 155.441C128.423 153.997 128.607 152.362 128.607 150.533C128.607 149.555 128.599 148.609 128.585 147.695L128.583 147.694Z" fill="url(#paint2_linear_84_57)"/>
<defs>
<linearGradient id="paint0_linear_84_57" x1="2.77271" y1="100" x2="197.227" y2="100" gradientUnits="userSpaceOnUse">
<stop offset="0.09" stop-color="#F96803"/>
<stop offset="0.44" stop-color="#FEDF5F"/>
<stop offset="0.97" stop-color="#F3AB0C"/>
</linearGradient>
<linearGradient id="paint1_linear_84_57" x1="100.172" y1="77.4367" x2="100.172" y2="116.06" gradientUnits="userSpaceOnUse">
<stop offset="0.05" stop-color="#FBCE4B"/>
<stop offset="0.14" stop-color="#F8F6C2"/>
<stop offset="0.42" stop-color="#FE6F11"/>
<stop offset="0.69" stop-color="#300CF8"/>
<stop offset="0.96" stop-color="#A44621"/>
</linearGradient>
<linearGradient id="paint2_linear_84_57" x1="99.4329" y1="123.059" x2="99.4329" y2="159.59" gradientUnits="userSpaceOnUse">
<stop stop-color="#A44621"/>
<stop offset="0.31" stop-color="#300CF8"/>
<stop offset="0.58" stop-color="#FE6F11"/>
<stop offset="0.61" stop-color="#FD7519"/>
<stop offset="0.66" stop-color="#FC8832"/>
<stop offset="0.72" stop-color="#FBA659"/>
<stop offset="0.8" stop-color="#F9CF90"/>
<stop offset="0.86" stop-color="#F8F6C2"/>
<stop offset="0.95" stop-color="#FBCE4B"/>
</linearGradient>
</defs>
</svg>
