<svg width="16" height="16" viewBox="0 0 16 16" fill="none" xmlns="http://www.w3.org/2000/svg">
<path d="M7.88115 3.83818C5.64522 3.83818 3.8417 5.6417 3.8417 7.87764C3.8417 10.1136 5.64522 11.9171 7.88115 11.9171C10.1171 11.9171 11.9206 10.1136 11.9206 7.87764C11.9206 5.6417 10.1171 3.83818 7.88115 3.83818ZM7.88115 10.5038C6.43623 10.5038 5.25498 9.32607 5.25498 7.87764C5.25498 6.4292 6.43271 5.25146 7.88115 5.25146C9.32959 5.25146 10.5073 6.4292 10.5073 7.87764C10.5073 9.32607 9.32607 10.5038 7.88115 10.5038ZM13.028 3.67295C13.028 4.19678 12.6062 4.61514 12.0858 4.61514C11.562 4.61514 11.1437 4.19326 11.1437 3.67295C11.1437 3.15264 11.5655 2.73076 12.0858 2.73076C12.6062 2.73076 13.028 3.15264 13.028 3.67295ZM15.7034 4.6292C15.6437 3.36709 15.3554 2.24912 14.4308 1.32803C13.5097 0.406933 12.3917 0.118652 11.1296 0.0553711C9.82881 -0.018457 5.92998 -0.018457 4.6292 0.0553711C3.37061 0.115137 2.25264 0.403418 1.32803 1.32451C0.403418 2.24561 0.118652 3.36357 0.0553711 4.62568C-0.018457 5.92646 -0.018457 9.82529 0.0553711 11.1261C0.115137 12.3882 0.403418 13.5062 1.32803 14.4272C2.25264 15.3483 3.36709 15.6366 4.6292 15.6999C5.92998 15.7737 9.82881 15.7737 11.1296 15.6999C12.3917 15.6401 13.5097 15.3519 14.4308 14.4272C15.3519 13.5062 15.6401 12.3882 15.7034 11.1261C15.7772 9.82529 15.7772 5.92998 15.7034 4.6292ZM14.0229 12.5218C13.7487 13.2108 13.2179 13.7417 12.5253 14.0194C11.4882 14.4308 9.02725 14.3358 7.88115 14.3358C6.73506 14.3358 4.27061 14.4272 3.23701 14.0194C2.54795 13.7452 2.01709 13.2144 1.73936 12.5218C1.32803 11.4847 1.42295 9.02373 1.42295 7.87764C1.42295 6.73154 1.33154 4.26709 1.73936 3.2335C2.01357 2.54443 2.54443 2.01357 3.23701 1.73584C4.27412 1.32451 6.73506 1.41943 7.88115 1.41943C9.02725 1.41943 11.4917 1.32803 12.5253 1.73584C13.2144 2.01006 13.7452 2.54092 14.0229 3.2335C14.4343 4.27061 14.3394 6.73154 14.3394 7.87764C14.3394 9.02373 14.4343 11.4882 14.0229 12.5218Z" fill="white"/>
</svg>
