<svg width="18" height="15" viewBox="0 0 18 15" fill="none" xmlns="http://www.w3.org/2000/svg">
<path d="M16.1497 3.64338C16.1612 3.80327 16.1612 3.9632 16.1612 4.12309C16.1612 8.99996 12.4493 14.6193 5.66497 14.6193C3.57486 14.6193 1.63325 14.0139 0 12.9632C0.296965 12.9974 0.582469 13.0089 0.890859 13.0089C2.61545 13.0089 4.20303 12.4264 5.4708 11.4327C3.84898 11.3985 2.48984 10.3363 2.02155 8.87435C2.25 8.90859 2.47841 8.93145 2.71828 8.93145C3.04949 8.93145 3.38073 8.88574 3.68909 8.80583C1.99874 8.46316 0.730934 6.97841 0.730934 5.18527V5.1396C1.22203 5.41371 1.79314 5.58503 2.39843 5.60784C1.40477 4.94539 0.753785 3.8147 0.753785 2.5355C0.753785 1.85024 0.936492 1.22207 1.25631 0.67384C3.0723 2.91241 5.80201 4.37432 8.86289 4.53424C8.8058 4.26013 8.77152 3.97463 8.77152 3.68909C8.77152 1.65607 10.4162 0 12.4606 0C13.5228 0 14.4822 0.44543 15.156 1.16497C15.9898 1.00508 16.7893 0.696691 17.4974 0.274113C17.2233 1.13073 16.6408 1.85027 15.8756 2.30709C16.618 2.22718 17.3375 2.02155 17.9999 1.73605C17.4975 2.46698 16.8693 3.11797 16.1497 3.64338Z" fill="white"/>
</svg>
