<svg width="16" height="18" viewBox="0 0 16 18" fill="none" xmlns="http://www.w3.org/2000/svg">
<path d="M7.87433 0C7.25206 0 6.74933 0.502734 6.74933 1.125V1.8C4.18292 2.32031 2.24933 4.59141 2.24933 7.3125V7.97344C2.24933 9.62578 1.64112 11.2219 0.544249 12.4594L0.284093 12.7512C-0.0112198 13.0816 -0.0815323 13.5563 0.0977645 13.9605C0.277061 14.3648 0.681358 14.625 1.12433 14.625H14.6243C15.0673 14.625 15.4681 14.3648 15.6509 13.9605C15.8337 13.5563 15.7599 13.0816 15.4646 12.7512L15.2044 12.4594C14.1075 11.2219 13.4993 9.6293 13.4993 7.97344V7.3125C13.4993 4.59141 11.5657 2.32031 8.99933 1.8V1.125C8.99933 0.502734 8.49659 0 7.87433 0ZM9.4669 17.3426C9.88878 16.9207 10.1243 16.3477 10.1243 15.75H7.87433H5.62433C5.62433 16.3477 5.85987 16.9207 6.28175 17.3426C6.70362 17.7645 7.27667 18 7.87433 18C8.47198 18 9.04503 17.7645 9.4669 17.3426Z" fill="#1A1A2E"/>
</svg>
