<svg width="24" height="24" viewBox="0 0 24 24" fill="none" xmlns="http://www.w3.org/2000/svg">
<path d="M0 11.7787C0 5.27353 5.27352 0 11.7787 0C18.284 0 23.5575 5.27352 23.5575 11.7787V12.2213C23.5575 18.7265 18.284 24 11.7787 24C5.27352 24 0 18.7265 0 12.2213V11.7787Z" fill="#FFB300"/>
<path d="M15.3094 9.57382C15.5107 9.77512 15.5107 10.102 15.3094 10.3033L11.1869 14.4259C10.9856 14.6272 10.6587 14.6272 10.4574 14.4259L8.39609 12.3646C8.19479 12.1633 8.19479 11.8364 8.39609 11.6351C8.59739 11.4338 8.92429 11.4338 9.12559 11.6351L10.8229 13.3308L14.5815 9.57382C14.7828 9.37253 15.1097 9.37253 15.311 9.57382H15.3094Z" fill="#2A58B7"/>
</svg>
