<svg width="80" height="80" viewBox="0 0 80 80" fill="none" xmlns="http://www.w3.org/2000/svg">
<path d="M40 0C62.0914 0 80 17.9086 80 40C80 62.0914 62.0914 80 40 80C17.9086 80 0 62.0914 0 40C0 17.9086 17.9086 0 40 0Z" fill="#34C759"/>
<path d="M40 0C62.0914 0 80 17.9086 80 40C80 62.0914 62.0914 80 40 80C17.9086 80 0 62.0914 0 40C0 17.9086 17.9086 0 40 0Z" stroke="#E5E7EB"/>
<path d="M50.5629 32.9385C51.1488 33.5244 51.1488 34.476 50.5629 35.0619L38.5629 47.0619C37.977 47.6479 37.0254 47.6479 36.4395 47.0619L30.4395 41.0619C29.8535 40.476 29.8535 39.5244 30.4395 38.9385C31.0254 38.3525 31.977 38.3525 32.5629 38.9385L37.5035 43.8744L48.4441 32.9385C49.0301 32.3525 49.9816 32.3525 50.5676 32.9385H50.5629Z" fill="white"/>
</svg>
