<svg width="16" height="20" viewBox="0 0 16 20" fill="none" xmlns="http://www.w3.org/2000/svg">
<path d="M15.75 20H0V0H15.75V20Z" stroke="#E5E7EB"/>
<g clip-path="url(#clip0_110_1112)">
<path d="M4.14543 15.5906C3.97864 15.7711 3.74621 15.875 3.50012 15.875C3.25403 15.875 3.0216 15.7711 2.85481 15.5906L0.448558 12.9656C0.123167 12.6102 0.145042 12.0551 0.503245 11.7297C0.861448 11.4043 1.41379 11.4262 1.73918 11.7844L2.62512 12.7496V4.5C2.62512 4.01602 3.01614 3.625 3.50012 3.625C3.9841 3.625 4.37512 4.01602 4.37512 4.5V12.7496L5.26106 11.7816C5.58645 11.4262 6.14153 11.4016 6.497 11.727C6.85246 12.0523 6.87707 12.6074 6.55168 12.9629L4.14543 15.5879V15.5906ZM8.75012 3.625H9.62512C10.1091 3.625 10.5001 4.01602 10.5001 4.5C10.5001 4.98398 10.1091 5.375 9.62512 5.375H8.75012C8.26614 5.375 7.87512 4.98398 7.87512 4.5C7.87512 4.01602 8.26614 3.625 8.75012 3.625ZM8.75012 7.125H11.3751C11.8591 7.125 12.2501 7.51602 12.2501 8C12.2501 8.48398 11.8591 8.875 11.3751 8.875H8.75012C8.26614 8.875 7.87512 8.48398 7.87512 8C7.87512 7.51602 8.26614 7.125 8.75012 7.125ZM8.75012 10.625H13.1251C13.6091 10.625 14.0001 11.016 14.0001 11.5C14.0001 11.984 13.6091 12.375 13.1251 12.375H8.75012C8.26614 12.375 7.87512 11.984 7.87512 11.5C7.87512 11.016 8.26614 10.625 8.75012 10.625ZM8.75012 14.125H14.8751C15.3591 14.125 15.7501 14.516 15.7501 15C15.7501 15.484 15.3591 15.875 14.8751 15.875H8.75012C8.26614 15.875 7.87512 15.484 7.87512 15C7.87512 14.516 8.26614 14.125 8.75012 14.125Z" fill="#44403C"/>
</g>
<defs>
<clipPath id="clip0_110_1112">
<path d="M0 2.75H15.75V16.75H0V2.75Z" fill="white"/>
</clipPath>
</defs>
</svg>
