<svg width="40" height="40" viewBox="0 0 40 40" fill="none" xmlns="http://www.w3.org/2000/svg">
<path d="M32 0C36.4183 0 40 3.58172 40 8V32C40 36.4183 36.4183 40 32 40H8C3.58172 40 0 36.4183 0 32V8C0 3.58172 3.58172 0 8 0H32Z" fill="#EFF6FF"/>
<path d="M32 0C36.4183 0 40 3.58172 40 8V32C40 36.4183 36.4183 40 32 40H8C3.58172 40 0 36.4183 0 32V8C0 3.58172 3.58172 0 8 0H32Z" stroke="#E5E7EB"/>
<path d="M26.5 20C26.5 21.7239 25.8152 23.3772 24.5962 24.5962C23.3772 25.8152 21.7239 26.5 20 26.5C18.2761 26.5 16.6228 25.8152 15.4038 24.5962C14.1848 23.3772 13.5 21.7239 13.5 20C13.5 18.2761 14.1848 16.6228 15.4038 15.4038C16.6228 14.1848 18.2761 13.5 20 13.5C21.7239 13.5 23.3772 14.1848 24.5962 15.4038C25.8152 16.6228 26.5 18.2761 26.5 20ZM12 20C12 22.1217 12.8429 24.1566 14.3431 25.6569C15.8434 27.1571 17.8783 28 20 28C22.1217 28 24.1566 27.1571 25.6569 25.6569C27.1571 24.1566 28 22.1217 28 20C28 17.8783 27.1571 15.8434 25.6569 14.3431C24.1566 12.8429 22.1217 12 20 12C17.8783 12 15.8434 12.8429 14.3431 14.3431C12.8429 15.8434 12 17.8783 12 20ZM19.25 15.75V20C19.25 20.25 19.375 20.4844 19.5844 20.625L22.5844 22.625C22.9281 22.8562 23.3938 22.7625 23.625 22.4156C23.8562 22.0687 23.7625 21.6062 23.4156 21.375L20.75 19.6V15.75C20.75 15.3344 20.4156 15 20 15C19.5844 15 19.25 15.3344 19.25 15.75Z" fill="#2563EB"/>
</svg>
