<svg width="48" height="48" viewBox="0 0 48 48" fill="none" xmlns="http://www.w3.org/2000/svg">
<path d="M0 24C0 10.7452 10.7452 0 24 0C37.2548 0 48 10.7452 48 24C48 37.2548 37.2548 48 24 48C10.7452 48 0 37.2548 0 24Z" fill="#FFB300"/>
<path d="M31.5 23.5C31.5 22.5151 31.306 21.5398 30.9291 20.6299C30.5522 19.7199 29.9997 18.8931 29.3033 18.1967C28.6069 17.5003 27.7801 16.9478 26.8701 16.5709C25.9602 16.194 24.9849 16 24 16C23.0151 16 22.0398 16.194 21.1299 16.5709C20.2199 16.9478 19.3931 17.5003 18.6967 18.1967C18.0003 18.8931 17.4478 19.7199 17.0709 20.6299C16.694 21.5398 16.5 22.5151 16.5 23.5C16.5 24.4849 16.694 25.4602 17.0709 26.3701C17.4478 27.2801 18.0003 28.1069 18.6967 28.8033C19.3931 29.4997 20.2199 30.0522 21.1299 30.4291C22.0398 30.806 23.0151 31 24 31C24.9849 31 25.9602 30.806 26.8701 30.4291C27.7801 30.0522 28.6069 29.4997 29.3033 28.8033C29.9997 28.1069 30.5522 27.2801 30.9291 26.3701C31.306 25.4602 31.5 24.4849 31.5 23.5ZM14 23.5C14 20.8478 15.0536 18.3043 16.9289 16.4289C18.8043 14.5536 21.3478 13.5 24 13.5C26.6522 13.5 29.1957 14.5536 31.0711 16.4289C32.9464 18.3043 34 20.8478 34 23.5C34 26.1522 32.9464 28.6957 31.0711 30.5711C29.1957 32.4464 26.6522 33.5 24 33.5C21.3478 33.5 18.8043 32.4464 16.9289 30.5711C15.0536 28.6957 14 26.1522 14 23.5ZM24 26.625C24.8288 26.625 25.6237 26.2958 26.2097 25.7097C26.7958 25.1237 27.125 24.3288 27.125 23.5C27.125 22.6712 26.7958 21.8763 26.2097 21.2903C25.6237 20.7042 24.8288 20.375 24 20.375C23.1712 20.375 22.3763 20.7042 21.7903 21.2903C21.2042 21.8763 20.875 22.6712 20.875 23.5C20.875 24.3288 21.2042 25.1237 21.7903 25.7097C22.3763 26.2958 23.1712 26.625 24 26.625ZM24 17.875C25.4918 17.875 26.9226 18.4676 27.9775 19.5225C29.0324 20.5774 29.625 22.0082 29.625 23.5C29.625 24.9918 29.0324 26.4226 27.9775 27.4775C26.9226 28.5324 25.4918 29.125 24 29.125C22.5082 29.125 21.0774 28.5324 20.0225 27.4775C18.9676 26.4226 18.375 24.9918 18.375 23.5C18.375 22.0082 18.9676 20.5774 20.0225 19.5225C21.0774 18.4676 22.5082 17.875 24 17.875ZM22.75 23.5C22.75 23.1685 22.8817 22.8505 23.1161 22.6161C23.3505 22.3817 23.6685 22.25 24 22.25C24.3315 22.25 24.6495 22.3817 24.8839 22.6161C25.1183 22.8505 25.25 23.1685 25.25 23.5C25.25 23.8315 25.1183 24.1495 24.8839 24.3839C24.6495 24.6183 24.3315 24.75 24 24.75C23.6685 24.75 23.3505 24.6183 23.1161 24.3839C22.8817 24.1495 22.75 23.8315 22.75 23.5Z" fill="#DC2626"/>
</svg>
