<svg width="101" height="90" viewBox="0 0 101 90" fill="none" xmlns="http://www.w3.org/2000/svg">
<g filter="url(#filter0_dd_104_405)">
<path d="M6 18C6 9.16344 13.1634 2 22 2H78.75C87.5866 2 94.75 9.16344 94.75 18V74C94.75 82.8366 87.5866 90 78.75 90H22C13.1634 90 6 82.8366 6 74V18Z" fill="url(#paint0_linear_104_405)"/>
<path d="M59.4861 28.1118C59.5013 28.3249 59.5013 28.5382 59.5013 28.7514C59.5013 35.2539 54.5521 42.7463 45.5064 42.7463C42.7196 42.7463 40.1308 41.9391 37.9531 40.5382C38.3491 40.5838 38.7297 40.5991 39.1409 40.5991C41.4404 40.5991 43.5572 39.8224 45.2475 38.4976C43.0851 38.4519 41.2729 37.0356 40.6485 35.0864C40.9531 35.132 41.2577 35.1625 41.5775 35.1625C42.0191 35.1625 42.4608 35.1016 42.8719 34.995C40.6181 34.5381 38.9277 32.5585 38.9277 30.1676V30.1067C39.5825 30.4722 40.344 30.7006 41.151 30.731C39.8262 29.8478 38.9582 28.3402 38.9582 26.6346C38.9582 25.7209 39.2018 24.8833 39.6282 24.1524C42.0495 27.1371 45.6891 29.0863 49.7703 29.2996C49.6942 28.9341 49.6485 28.5534 49.6485 28.1727C49.6485 25.462 51.8414 23.2539 54.5673 23.2539C55.9835 23.2539 57.2627 23.8478 58.1612 24.8072C59.2728 24.594 60.3388 24.1828 61.283 23.6194C60.9175 24.7615 60.1408 25.7209 59.1206 26.33C60.1104 26.2235 61.0698 25.9493 61.953 25.5686C61.2831 26.5432 60.4455 27.4112 59.4861 28.1118Z" fill="white"/>
<path d="M29.7995 62.598V61.2727H36.7626V62.598H34.0652V70H32.497V62.598H29.7995ZM38.6376 70L36.7882 63.4545H38.3606L39.5112 68.0568H39.5708L40.747 63.4545H42.3024L43.4785 68.0312H43.5424L44.676 63.4545H46.2527L44.399 70H42.7924L41.5652 65.5767H41.4757L40.2484 70H38.6376ZM47.3297 70V63.4545H48.8723V70H47.3297ZM48.1053 62.5256C47.861 62.5256 47.6507 62.4446 47.4746 62.2827C47.2985 62.1179 47.2104 61.9205 47.2104 61.6903C47.2104 61.4574 47.2985 61.2599 47.4746 61.098C47.6507 60.9332 47.861 60.8509 48.1053 60.8509C48.3525 60.8509 48.5627 60.9332 48.736 61.098C48.9121 61.2599 49.0002 61.4574 49.0002 61.6903C49.0002 61.9205 48.9121 62.1179 48.736 62.2827C48.5627 62.4446 48.3525 62.5256 48.1053 62.5256ZM53.7271 63.4545V64.6477H49.9643V63.4545H53.7271ZM50.8933 61.8864H52.4359V68.0312C52.4359 68.2386 52.4672 68.3977 52.5297 68.5085C52.595 68.6165 52.6802 68.6903 52.7853 68.7301C52.8904 68.7699 53.0069 68.7898 53.1348 68.7898C53.2314 68.7898 53.3194 68.7827 53.399 68.7685C53.4814 68.7543 53.5439 68.7415 53.5865 68.7301L53.8464 69.9361C53.764 69.9645 53.6461 69.9957 53.4927 70.0298C53.3422 70.0639 53.1575 70.0838 52.9387 70.0895C52.5524 70.1009 52.2044 70.0426 51.8947 69.9148C51.585 69.7841 51.3393 69.5824 51.1575 69.3097C50.9785 69.0369 50.8904 68.696 50.8933 68.2869V61.8864ZM58.2857 63.4545V64.6477H54.5229V63.4545H58.2857ZM55.4519 61.8864H56.9945V68.0312C56.9945 68.2386 57.0257 68.3977 57.0882 68.5085C57.1536 68.6165 57.2388 68.6903 57.3439 68.7301C57.449 68.7699 57.5655 68.7898 57.6934 68.7898C57.79 68.7898 57.878 68.7827 57.9576 68.7685C58.04 68.7543 58.1025 68.7415 58.1451 68.7301L58.405 69.9361C58.3226 69.9645 58.2047 69.9957 58.0513 70.0298C57.9007 70.0639 57.7161 70.0838 57.4973 70.0895C57.111 70.1009 56.763 70.0426 56.4533 69.9148C56.1436 69.7841 55.8979 69.5824 55.7161 69.3097C55.5371 69.0369 55.449 68.696 55.4519 68.2869V61.8864ZM62.4032 70.1278C61.747 70.1278 61.1802 69.9915 60.7029 69.7188C60.2285 69.4432 59.8635 69.054 59.6078 68.5511C59.3521 68.0455 59.2243 67.4503 59.2243 66.7656C59.2243 66.0923 59.3521 65.5014 59.6078 64.9929C59.8663 64.4815 60.2271 64.0838 60.6902 63.7997C61.1532 63.5128 61.6973 63.3693 62.3223 63.3693C62.7257 63.3693 63.1064 63.4347 63.4643 63.5653C63.8251 63.6932 64.1433 63.892 64.4189 64.1619C64.6973 64.4318 64.916 64.7756 65.0751 65.1932C65.2342 65.608 65.3137 66.1023 65.3137 66.6761V67.1491H59.9487V66.1094H63.835C63.8322 65.8139 63.7683 65.5511 63.6433 65.321C63.5183 65.0881 63.3436 64.9048 63.1191 64.7713C62.8975 64.6378 62.639 64.571 62.3436 64.571C62.0282 64.571 61.7512 64.6477 61.5126 64.8011C61.274 64.9517 61.0879 65.1506 60.9544 65.3977C60.8237 65.642 60.7569 65.9105 60.7541 66.2031V67.1108C60.7541 67.4915 60.8237 67.8182 60.9629 68.0909C61.1021 68.3608 61.2967 68.5682 61.5467 68.7131C61.7967 68.8551 62.0893 68.9261 62.4245 68.9261C62.649 68.9261 62.8521 68.8949 63.0339 68.8324C63.2157 68.767 63.3734 68.6719 63.5069 68.5469C63.6404 68.4219 63.7413 68.267 63.8095 68.0824L65.2498 68.2443C65.1589 68.625 64.9856 68.9574 64.7299 69.2415C64.4771 69.5227 64.1532 69.7415 63.7583 69.8977C63.3635 70.0511 62.9118 70.1278 62.4032 70.1278ZM66.6188 70V63.4545H68.1145V64.5455H68.1827C68.302 64.1676 68.5066 63.8764 68.7963 63.6719C69.089 63.4645 69.4228 63.3608 69.7978 63.3608C69.883 63.3608 69.9782 63.3651 70.0833 63.3736C70.1912 63.3793 70.2807 63.3892 70.3517 63.4034V64.8224C70.2864 64.7997 70.1827 64.7798 70.0407 64.7628C69.9015 64.7429 69.7665 64.733 69.6358 64.733C69.3546 64.733 69.1017 64.794 68.8773 64.9162C68.6557 65.0355 68.481 65.2017 68.3532 65.4148C68.2253 65.6278 68.1614 65.8736 68.1614 66.152V70H66.6188Z" fill="white"/>
</g>
<defs>
<filter id="filter0_dd_104_405" x="0" y="0" width="100.75" height="100" filterUnits="userSpaceOnUse" color-interpolation-filters="sRGB">
<feFlood flood-opacity="0" result="BackgroundImageFix"/>
<feColorMatrix in="SourceAlpha" type="matrix" values="0 0 0 0 0 0 0 0 0 0 0 0 0 0 0 0 0 0 127 0" result="hardAlpha"/>
<feOffset dy="4"/>
<feGaussianBlur stdDeviation="3"/>
<feColorMatrix type="matrix" values="0 0 0 0 0 0 0 0 0 0 0 0 0 0 0 0 0 0 0.1 0"/>
<feBlend mode="normal" in2="BackgroundImageFix" result="effect1_dropShadow_104_405"/>
<feColorMatrix in="SourceAlpha" type="matrix" values="0 0 0 0 0 0 0 0 0 0 0 0 0 0 0 0 0 0 127 0" result="hardAlpha"/>
<feOffset dy="2"/>
<feGaussianBlur stdDeviation="2"/>
<feColorMatrix type="matrix" values="0 0 0 0 0 0 0 0 0 0 0 0 0 0 0 0 0 0 0.1 0"/>
<feBlend mode="normal" in2="effect1_dropShadow_104_405" result="effect2_dropShadow_104_405"/>
<feBlend mode="normal" in="SourceGraphic" in2="effect2_dropShadow_104_405" result="shape"/>
</filter>
<linearGradient id="paint0_linear_104_405" x1="-25.3779" y1="33.1127" x2="36.8453" y2="95.8662" gradientUnits="userSpaceOnUse">
<stop stop-color="#60A5FA"/>
<stop offset="1" stop-color="#3B82F6"/>
</linearGradient>
</defs>
</svg>
