<svg width="63" height="104" viewBox="0 0 63 104" fill="none" xmlns="http://www.w3.org/2000/svg">
<path d="M0 12C0 5.37259 5.37258 0 12 0H50.75C57.3774 0 62.75 5.37258 62.75 12V92C62.75 98.6274 57.3774 104 50.75 104H12C5.37258 104 0 98.6274 0 92V12Z" fill="#F0F9FF"/>
<path d="M7.375 28C7.375 21.3726 12.7476 16 19.375 16H43.375C50.0024 16 55.375 21.3726 55.375 28V52C55.375 58.6274 50.0024 64 43.375 64H19.375C12.7476 64 7.375 58.6274 7.375 52V28Z" fill="#0EA5E9"/>
<path d="M39.3191 35.4261C39.3318 35.6038 39.3318 35.7815 39.3318 35.9591C39.3318 41.3779 35.2075 47.6216 27.6694 47.6216C25.3471 47.6216 23.1897 46.9489 21.375 45.7815C21.705 45.8195 22.0222 45.8322 22.3648 45.8322C24.2811 45.8322 26.045 45.185 27.4537 44.081C25.6516 44.0429 24.1415 42.8627 23.6212 41.2383C23.875 41.2764 24.1288 41.3018 24.3953 41.3018C24.7633 41.3018 25.1314 41.251 25.474 41.1622C23.5958 40.7814 22.1871 39.1317 22.1871 37.1393V37.0886C22.7328 37.3932 23.3674 37.5835 24.0399 37.6089C22.9359 36.8728 22.2125 35.6165 22.2125 34.1952C22.2125 33.4338 22.4155 32.7358 22.7709 32.1266C24.7887 34.6139 27.8217 36.2383 31.2227 36.416C31.1592 36.1114 31.1211 35.7942 31.1211 35.4769C31.1211 33.218 32.9486 31.3779 35.2201 31.3779C36.4003 31.3779 37.4663 31.8729 38.215 32.6723C39.1414 32.4947 40.0297 32.152 40.8166 31.6825C40.512 32.6343 39.8648 33.4338 39.0145 33.9414C39.8394 33.8526 40.6389 33.6241 41.3749 33.3069C40.8166 34.119 40.1186 34.8423 39.3191 35.4261Z" fill="white"/>
<path d="M12.0284 76.4062V75.2727H18.7827V76.4062H16.0597V84H14.7472V76.4062H12.0284ZM20.842 84L18.9158 77.4545H20.2326L21.5153 82.2614H21.5792L22.8661 77.4545H24.1829L25.4613 82.2401H25.5252L26.7994 77.4545H28.1161L26.1942 84H24.8945L23.565 79.2741H23.467L22.1374 84H20.842ZM29.3253 84V77.4545H30.5994V84H29.3253ZM29.9688 76.4446C29.7472 76.4446 29.5568 76.3707 29.3977 76.223C29.2415 76.0724 29.1634 75.8935 29.1634 75.6861C29.1634 75.4759 29.2415 75.2969 29.3977 75.1491C29.5568 74.9986 29.7472 74.9233 29.9688 74.9233C30.1903 74.9233 30.3793 74.9986 30.5355 75.1491C30.6946 75.2969 30.7741 75.4759 30.7741 75.6861C30.7741 75.8935 30.6946 76.0724 30.5355 76.223C30.3793 76.3707 30.1903 76.4446 29.9688 76.4446ZM35.369 77.4545V78.4773H31.7937V77.4545H35.369ZM32.7525 75.8864H34.0266V82.0781C34.0266 82.3253 34.0636 82.5114 34.1374 82.6364C34.2113 82.7585 34.3065 82.8423 34.4229 82.8878C34.5423 82.9304 34.6715 82.9517 34.8107 82.9517C34.913 82.9517 35.0025 82.9446 35.0792 82.9304C35.1559 82.9162 35.2156 82.9048 35.2582 82.8963L35.4883 83.9489C35.4144 83.9773 35.3093 84.0057 35.1729 84.0341C35.0366 84.0653 34.8661 84.0824 34.6616 84.0852C34.3263 84.0909 34.0138 84.0312 33.7241 83.9062C33.4343 83.7812 33.1999 83.5881 33.021 83.3267C32.842 83.0653 32.7525 82.7372 32.7525 82.3423V75.8864ZM39.8338 77.4545V78.4773H36.2585V77.4545H39.8338ZM37.2173 75.8864H38.4915V82.0781C38.4915 82.3253 38.5284 82.5114 38.6023 82.6364C38.6761 82.7585 38.7713 82.8423 38.8878 82.8878C39.0071 82.9304 39.1364 82.9517 39.2756 82.9517C39.3778 82.9517 39.4673 82.9446 39.544 82.9304C39.6207 82.9162 39.6804 82.9048 39.723 82.8963L39.9531 83.9489C39.8793 83.9773 39.7741 84.0057 39.6378 84.0341C39.5014 84.0653 39.331 84.0824 39.1264 84.0852C38.7912 84.0909 38.4787 84.0312 38.1889 83.9062C37.8991 83.7812 37.6648 83.5881 37.4858 83.3267C37.3068 83.0653 37.2173 82.7372 37.2173 82.3423V75.8864ZM43.994 84.1321C43.3491 84.1321 42.7937 83.9943 42.3278 83.7188C41.8647 83.4403 41.5067 83.0497 41.2539 82.5469C41.0039 82.0412 40.8789 81.4489 40.8789 80.7699C40.8789 80.0994 41.0039 79.5085 41.2539 78.9972C41.5067 78.4858 41.859 78.0866 42.3107 77.7997C42.7653 77.5128 43.2965 77.3693 43.9045 77.3693C44.2738 77.3693 44.6317 77.4304 44.9783 77.5526C45.3249 77.6747 45.636 77.8665 45.9116 78.1278C46.1871 78.3892 46.4045 78.7287 46.5636 79.1463C46.7227 79.5611 46.8022 80.0653 46.8022 80.6591V81.1108H41.5991V80.1562H45.5536C45.5536 79.821 45.4854 79.5241 45.3491 79.2656C45.2127 79.0043 45.021 78.7983 44.7738 78.6477C44.5295 78.4972 44.2425 78.4219 43.913 78.4219C43.555 78.4219 43.2425 78.5099 42.9755 78.6861C42.7113 78.8594 42.5067 79.0866 42.3619 79.3679C42.2198 79.6463 42.1488 79.9489 42.1488 80.2756V81.0213C42.1488 81.4588 42.2255 81.831 42.3789 82.1378C42.5352 82.4446 42.7525 82.679 43.0309 82.8409C43.3093 83 43.6346 83.0795 44.0067 83.0795C44.2482 83.0795 44.4684 83.0455 44.6673 82.9773C44.8661 82.9062 45.038 82.8011 45.1829 82.6619C45.3278 82.5227 45.4386 82.3509 45.5153 82.1463L46.7212 82.3636C46.6246 82.7187 46.4513 83.0298 46.2013 83.2969C45.9542 83.5611 45.6431 83.767 45.2681 83.9148C44.896 84.0597 44.4712 84.1321 43.994 84.1321ZM48.2159 84V77.4545H49.4474V78.4943H49.5156C49.6349 78.142 49.8452 77.8651 50.1463 77.6634C50.4503 77.4588 50.794 77.3565 51.1776 77.3565C51.2571 77.3565 51.3509 77.3594 51.4588 77.3651C51.5696 77.3707 51.6562 77.3778 51.7188 77.3864V78.6051C51.6676 78.5909 51.5767 78.5753 51.446 78.5582C51.3153 78.5384 51.1847 78.5284 51.054 78.5284C50.7528 78.5284 50.4844 78.5923 50.2486 78.7202C50.0156 78.8452 49.831 79.0199 49.6946 79.2443C49.5582 79.4659 49.4901 79.7187 49.4901 80.0028V84H48.2159Z" fill="#374151"/>
</svg>
