<svg width="24" height="20" viewBox="0 0 24 20" fill="none" xmlns="http://www.w3.org/2000/svg">
<path d="M1.125 0C0.501562 0 0 0.501562 0 1.125V3.375C0 3.99844 0.501562 4.5 1.125 4.5H3.375C3.99844 4.5 4.5 3.99844 4.5 3.375V1.125C4.5 0.501562 3.99844 0 3.375 0H1.125ZM8.25 0.75C7.42031 0.75 6.75 1.42031 6.75 2.25C6.75 3.07969 7.42031 3.75 8.25 3.75H21.75C22.5797 3.75 23.25 3.07969 23.25 2.25C23.25 1.42031 22.5797 0.75 21.75 0.75H8.25ZM8.25 8.25C7.42031 8.25 6.75 8.92031 6.75 9.75C6.75 10.5797 7.42031 11.25 8.25 11.25H21.75C22.5797 11.25 23.25 10.5797 23.25 9.75C23.25 8.92031 22.5797 8.25 21.75 8.25H8.25ZM8.25 15.75C7.42031 15.75 6.75 16.4203 6.75 17.25C6.75 18.0797 7.42031 18.75 8.25 18.75H21.75C22.5797 18.75 23.25 18.0797 23.25 17.25C23.25 16.4203 22.5797 15.75 21.75 15.75H8.25ZM0 8.625V10.875C0 11.4984 0.501562 12 1.125 12H3.375C3.99844 12 4.5 11.4984 4.5 10.875V8.625C4.5 8.00156 3.99844 7.5 3.375 7.5H1.125C0.501562 7.5 0 8.00156 0 8.625ZM1.125 15C0.501562 15 0 15.5016 0 16.125V18.375C0 18.9984 0.501562 19.5 1.125 19.5H3.375C3.99844 19.5 4.5 18.9984 4.5 18.375V16.125C4.5 15.5016 3.99844 15 3.375 15H1.125Z" fill="#8E8E93"/>
</svg>
