<svg width="63" height="104" viewBox="0 0 63 104" fill="none" xmlns="http://www.w3.org/2000/svg">
<path d="M0 12C0 5.37259 5.37258 0 12 0H50.75C57.3774 0 62.75 5.37258 62.75 12V92C62.75 98.6274 57.3774 104 50.75 104H12C5.37258 104 0 98.6274 0 92V12Z" fill="#FEF2F2"/>
<path d="M7.375 28C7.375 21.3726 12.7476 16 19.375 16H43.375C50.0024 16 55.375 21.3726 55.375 28V52C55.375 58.6274 50.0024 64 43.375 64H19.375C12.7476 64 7.375 58.6274 7.375 52V28Z" fill="#DC2626"/>
<path d="M41.5961 34.347C41.3507 33.4232 40.6278 32.6956 39.71 32.4487C38.0463 32 31.3752 32 31.3752 32C31.3752 32 24.7041 32 23.0404 32.4487C22.1225 32.6956 21.3996 33.4232 21.1543 34.347C20.7085 36.0215 20.7085 39.5152 20.7085 39.5152C20.7085 39.5152 20.7085 43.0088 21.1543 44.6833C21.3996 45.6071 22.1225 46.3044 23.0404 46.5513C24.7041 47 31.3752 47 31.3752 47C31.3752 47 38.0463 47 39.71 46.5513C40.6278 46.3044 41.3507 45.6071 41.5961 44.6833C42.0419 43.0088 42.0419 39.5152 42.0419 39.5152C42.0419 39.5152 42.0419 36.0215 41.5961 34.347ZM29.1933 42.6871V36.3432L34.7691 39.5152L29.1933 42.6871Z" fill="white"/>
<path d="M6.76989 75.2727H8.26562L10.5455 79.2401H10.6392L12.919 75.2727H14.4148L11.2486 80.5739V84H9.93608V80.5739L6.76989 75.2727ZM17.2347 84.1321C16.6211 84.1321 16.0856 83.9915 15.6282 83.7102C15.1708 83.429 14.8157 83.0355 14.5629 82.5298C14.31 82.0241 14.1836 81.4332 14.1836 80.7571C14.1836 80.0781 14.31 79.4844 14.5629 78.9759C14.8157 78.4673 15.1708 78.0724 15.6282 77.7912C16.0856 77.5099 16.6211 77.3693 17.2347 77.3693C17.8484 77.3693 18.3839 77.5099 18.8413 77.7912C19.2987 78.0724 19.6538 78.4673 19.9066 78.9759C20.1594 79.4844 20.2859 80.0781 20.2859 80.7571C20.2859 81.4332 20.1594 82.0241 19.9066 82.5298C19.6538 83.0355 19.2987 83.429 18.8413 83.7102C18.3839 83.9915 17.8484 84.1321 17.2347 84.1321ZM17.239 83.0625C17.6367 83.0625 17.9663 82.9574 18.2276 82.7472C18.489 82.5369 18.6822 82.2571 18.8072 81.9077C18.935 81.5582 18.9989 81.1733 18.9989 80.7528C18.9989 80.3352 18.935 79.9517 18.8072 79.6023C18.6822 79.25 18.489 78.9673 18.2276 78.7543C17.9663 78.5412 17.6367 78.4347 17.239 78.4347C16.8384 78.4347 16.506 78.5412 16.2418 78.7543C15.9805 78.9673 15.7859 79.25 15.658 79.6023C15.533 79.9517 15.4705 80.3352 15.4705 80.7528C15.4705 81.1733 15.533 81.5582 15.658 81.9077C15.7859 82.2571 15.9805 82.5369 16.2418 82.7472C16.506 82.9574 16.8384 83.0625 17.239 83.0625ZM25.8544 81.2855V77.4545H27.1328V84H25.88V82.8665H25.8118C25.6612 83.2159 25.4197 83.5071 25.0874 83.7401C24.7578 83.9702 24.3473 84.0852 23.8558 84.0852C23.4354 84.0852 23.0632 83.9929 22.7393 83.8082C22.4183 83.6207 22.1655 83.3438 21.9808 82.9773C21.799 82.6108 21.7081 82.1577 21.7081 81.6179V77.4545H22.9822V81.4645C22.9822 81.9105 23.1058 82.2656 23.353 82.5298C23.6001 82.794 23.9212 82.9261 24.3161 82.9261C24.5547 82.9261 24.7919 82.8665 25.0277 82.7472C25.2663 82.6278 25.4638 82.4474 25.62 82.206C25.7791 81.9645 25.8572 81.6577 25.8544 81.2855ZM27.9073 76.4062V75.2727H34.6616V76.4062H31.9386V84H30.6261V76.4062H27.9073ZM39.3075 81.2855V77.4545H40.5859V84H39.3331V82.8665H39.2649C39.1143 83.2159 38.8729 83.5071 38.5405 83.7401C38.2109 83.9702 37.8004 84.0852 37.3089 84.0852C36.8885 84.0852 36.5163 83.9929 36.1925 83.8082C35.8714 83.6207 35.6186 83.3438 35.4339 82.9773C35.2521 82.6108 35.1612 82.1577 35.1612 81.6179V77.4545H36.4354V81.4645C36.4354 81.9105 36.5589 82.2656 36.8061 82.5298C37.0533 82.794 37.3743 82.9261 37.7692 82.9261C38.0078 82.9261 38.245 82.8665 38.4808 82.7472C38.7195 82.6278 38.9169 82.4474 39.0732 82.206C39.2322 81.9645 39.3104 81.6577 39.3075 81.2855ZM42.4002 84V75.2727H43.6744V78.5156H43.7511C43.8249 78.3793 43.9315 78.2216 44.0707 78.0426C44.2099 77.8636 44.4031 77.7074 44.6502 77.5739C44.8974 77.4375 45.2241 77.3693 45.6303 77.3693C46.1587 77.3693 46.6303 77.5028 47.0451 77.7699C47.4599 78.0369 47.7852 78.4219 48.021 78.9247C48.2596 79.4276 48.3789 80.0327 48.3789 80.7401C48.3789 81.4474 48.261 82.054 48.0252 82.5597C47.7894 83.0625 47.4656 83.4503 47.0536 83.723C46.6417 83.9929 46.1715 84.1278 45.6431 84.1278C45.2454 84.1278 44.9201 84.0611 44.6673 83.9276C44.4173 83.794 44.2212 83.6378 44.0792 83.4588C43.9371 83.2798 43.8278 83.1207 43.7511 82.9815H43.6445V84H42.4002ZM43.6488 80.7273C43.6488 81.1875 43.7156 81.5909 43.8491 81.9375C43.9826 82.2841 44.1758 82.5554 44.4286 82.7514C44.6815 82.9446 44.9911 83.0412 45.3576 83.0412C45.7383 83.0412 46.0565 82.9403 46.3121 82.7386C46.5678 82.5341 46.761 82.2571 46.8917 81.9077C47.0252 81.5582 47.092 81.1648 47.092 80.7273C47.092 80.2955 47.0266 79.9077 46.896 79.5639C46.7681 79.2202 46.5749 78.9489 46.3164 78.75C46.0607 78.5511 45.7411 78.4517 45.3576 78.4517C44.9883 78.4517 44.6758 78.5469 44.4201 78.7372C44.1673 78.9276 43.9755 79.1932 43.8448 79.5341C43.7141 79.875 43.6488 80.2727 43.6488 80.7273ZM52.6307 84.1321C51.9858 84.1321 51.4304 83.9943 50.9645 83.7188C50.5014 83.4403 50.1435 83.0497 49.8906 82.5469C49.6406 82.0412 49.5156 81.4489 49.5156 80.7699C49.5156 80.0994 49.6406 79.5085 49.8906 78.9972C50.1435 78.4858 50.4957 78.0866 50.9474 77.7997C51.402 77.5128 51.9332 77.3693 52.5412 77.3693C52.9105 77.3693 53.2685 77.4304 53.6151 77.5526C53.9616 77.6747 54.2727 77.8665 54.5483 78.1278C54.8239 78.3892 55.0412 78.7287 55.2003 79.1463C55.3594 79.5611 55.4389 80.0653 55.4389 80.6591V81.1108H50.2358V80.1562H54.1903C54.1903 79.821 54.1222 79.5241 53.9858 79.2656C53.8494 79.0043 53.6577 78.7983 53.4105 78.6477C53.1662 78.4972 52.8793 78.4219 52.5497 78.4219C52.1918 78.4219 51.8793 78.5099 51.6122 78.6861C51.348 78.8594 51.1435 79.0866 50.9986 79.3679C50.8565 79.6463 50.7855 79.9489 50.7855 80.2756V81.0213C50.7855 81.4588 50.8622 81.831 51.0156 82.1378C51.1719 82.4446 51.3892 82.679 51.6676 82.8409C51.946 83 52.2713 83.0795 52.6435 83.0795C52.8849 83.0795 53.1051 83.0455 53.304 82.9773C53.5028 82.9062 53.6747 82.8011 53.8196 82.6619C53.9645 82.5227 54.0753 82.3509 54.152 82.1463L55.358 82.3636C55.2614 82.7187 55.0881 83.0298 54.8381 83.2969C54.5909 83.5611 54.2798 83.767 53.9048 83.9148C53.5327 84.0597 53.108 84.1321 52.6307 84.1321Z" fill="#374151"/>
</svg>
