<svg width="95" height="100" viewBox="0 0 95 100" fill="none" xmlns="http://www.w3.org/2000/svg">
<g filter="url(#filter0_dd_221_332)">
<path d="M6 18C6 9.16344 13.1634 2 22 2H72.4062C81.2428 2 88.4062 9.16344 88.4062 18V74C88.4062 82.8366 81.2428 90 72.4062 90H22C13.1634 90 6 82.8366 6 74V18Z" fill="url(#paint0_linear_221_332)"/>
<path d="M59.4684 26.8164C59.174 25.7078 58.3065 24.8347 57.2051 24.5384C55.2087 24 47.2033 24 47.2033 24C47.2033 24 39.198 24 37.2016 24.5384C36.1001 24.8347 35.2327 25.7078 34.9383 26.8164C34.4033 28.8258 34.4033 33.0182 34.4033 33.0182C34.4033 33.0182 34.4033 37.2106 34.9383 39.22C35.2327 40.3286 36.1001 41.1653 37.2016 41.4616C39.198 42 47.2033 42 47.2033 42C47.2033 42 55.2086 42 57.2051 41.4616C58.3065 41.1653 59.174 40.3286 59.4684 39.22C60.0034 37.2106 60.0034 33.0182 60.0034 33.0182C60.0034 33.0182 60.0034 28.8258 59.4684 26.8164ZM44.5851 36.8246V29.2118L51.276 33.0183L44.5851 36.8246Z" fill="white"/>
<path d="M22.6509 61.2727H24.4364L26.5714 65.1335H26.6566L28.7915 61.2727H30.5771L27.4023 66.7443V70H25.8256V66.7443L22.6509 61.2727ZM33.2649 70.1278C32.6257 70.1278 32.0717 69.9872 31.603 69.706C31.1342 69.4247 30.7706 69.0312 30.5121 68.5256C30.2564 68.0199 30.1286 67.429 30.1286 66.7528C30.1286 66.0767 30.2564 65.4844 30.5121 64.9759C30.7706 64.4673 31.1342 64.0724 31.603 63.7912C32.0717 63.5099 32.6257 63.3693 33.2649 63.3693C33.9041 63.3693 34.4581 63.5099 34.9268 63.7912C35.3956 64.0724 35.7578 64.4673 36.0135 64.9759C36.272 65.4844 36.4013 66.0767 36.4013 66.7528C36.4013 67.429 36.272 68.0199 36.0135 68.5256C35.7578 69.0312 35.3956 69.4247 34.9268 69.706C34.4581 69.9872 33.9041 70.1278 33.2649 70.1278ZM33.2734 68.892C33.62 68.892 33.9098 68.7969 34.1428 68.6065C34.3757 68.4134 34.549 68.1548 34.6626 67.831C34.7791 67.5071 34.8374 67.1463 34.8374 66.7486C34.8374 66.348 34.7791 65.9858 34.6626 65.6619C34.549 65.3352 34.3757 65.0753 34.1428 64.8821C33.9098 64.6889 33.62 64.5923 33.2734 64.5923C32.9183 64.5923 32.6229 64.6889 32.3871 64.8821C32.1541 65.0753 31.9794 65.3352 31.8629 65.6619C31.7493 65.9858 31.6925 66.348 31.6925 66.7486C31.6925 67.1463 31.7493 67.5071 31.8629 67.831C31.9794 68.1548 32.1541 68.4134 32.3871 68.6065C32.6229 68.7969 32.9183 68.892 33.2734 68.892ZM41.8825 67.2472V63.4545H43.4251V70H41.9293V68.8366H41.8612C41.7134 69.2031 41.4705 69.5028 41.1325 69.7358C40.7972 69.9687 40.3839 70.0852 39.8924 70.0852C39.4634 70.0852 39.0842 69.9901 38.7546 69.7997C38.4279 69.6065 38.1722 69.3267 37.9876 68.9602C37.8029 68.5909 37.7106 68.1449 37.7106 67.6222V63.4545H39.2532V67.3835C39.2532 67.7983 39.3668 68.1278 39.5941 68.3722C39.8214 68.6165 40.1197 68.7386 40.489 68.7386C40.7163 68.7386 40.9364 68.6832 41.1495 68.5724C41.3626 68.4616 41.5373 68.2969 41.6737 68.0781C41.8129 67.8565 41.8825 67.5795 41.8825 67.2472ZM44.0866 62.598V61.2727H51.0497V62.598H48.3523V70H46.7841V62.598H44.0866ZM55.6051 67.2472V63.4545H57.1477V70H55.652V68.8366H55.5838C55.4361 69.2031 55.1932 69.5028 54.8551 69.7358C54.5199 69.9687 54.1065 70.0852 53.6151 70.0852C53.1861 70.0852 52.8068 69.9901 52.4773 69.7997C52.1506 69.6065 51.8949 69.3267 51.7102 68.9602C51.5256 68.5909 51.4332 68.1449 51.4332 67.6222V63.4545H52.9759V67.3835C52.9759 67.7983 53.0895 68.1278 53.3168 68.3722C53.544 68.6165 53.8423 68.7386 54.2116 68.7386C54.4389 68.7386 54.6591 68.6832 54.8722 68.5724C55.0852 68.4616 55.2599 68.2969 55.3963 68.0781C55.5355 67.8565 55.6051 67.5795 55.6051 67.2472ZM58.8022 70V61.2727H60.3448V64.5369H60.4087C60.4883 64.3778 60.6005 64.2088 60.7454 64.0298C60.8903 63.848 61.0863 63.6932 61.3335 63.5653C61.5806 63.4347 61.896 63.3693 62.2795 63.3693C62.7852 63.3693 63.2411 63.4986 63.6474 63.7571C64.0565 64.0128 64.3803 64.392 64.619 64.8949C64.8604 65.3949 64.9812 66.0085 64.9812 66.7358C64.9812 67.4545 64.8633 68.0653 64.6275 68.5682C64.3917 69.071 64.0707 69.4545 63.6644 69.7188C63.2582 69.983 62.7979 70.1151 62.2837 70.1151C61.9087 70.1151 61.5977 70.0526 61.3505 69.9276C61.1033 69.8026 60.9045 69.652 60.7539 69.4759C60.6062 69.2969 60.4911 69.1278 60.4087 68.9688H60.3192V70H58.8022ZM60.315 66.7273C60.315 67.1506 60.3746 67.5213 60.494 67.8395C60.6161 68.1577 60.7908 68.4062 61.0181 68.5852C61.2482 68.7614 61.5266 68.8494 61.8533 68.8494C62.1942 68.8494 62.4798 68.7585 62.7099 68.5767C62.94 68.392 63.1133 68.1406 63.2298 67.8224C63.3491 67.5014 63.4087 67.1364 63.4087 66.7273C63.4087 66.321 63.3505 65.9602 63.234 65.6449C63.1175 65.3295 62.9442 65.0824 62.7141 64.9034C62.484 64.7244 62.1971 64.6349 61.8533 64.6349C61.5238 64.6349 61.244 64.7216 61.0138 64.8949C60.7837 65.0682 60.609 65.3111 60.4897 65.6236C60.3732 65.9361 60.315 66.304 60.315 66.7273ZM69.1903 70.1278C68.5341 70.1278 67.9673 69.9915 67.4901 69.7188C67.0156 69.4432 66.6506 69.054 66.3949 68.5511C66.1392 68.0455 66.0114 67.4503 66.0114 66.7656C66.0114 66.0923 66.1392 65.5014 66.3949 64.9929C66.6534 64.4815 67.0142 64.0838 67.4773 63.7997C67.9403 63.5128 68.4844 63.3693 69.1094 63.3693C69.5128 63.3693 69.8935 63.4347 70.2514 63.5653C70.6122 63.6932 70.9304 63.892 71.206 64.1619C71.4844 64.4318 71.7031 64.7756 71.8622 65.1932C72.0213 65.608 72.1009 66.1023 72.1009 66.6761V67.1491H66.7358V66.1094H70.6222C70.6193 65.8139 70.5554 65.5511 70.4304 65.321C70.3054 65.0881 70.1307 64.9048 69.9062 64.7713C69.6847 64.6378 69.4261 64.571 69.1307 64.571C68.8153 64.571 68.5384 64.6477 68.2997 64.8011C68.0611 64.9517 67.875 65.1506 67.7415 65.3977C67.6108 65.642 67.544 65.9105 67.5412 66.2031V67.1108C67.5412 67.4915 67.6108 67.8182 67.75 68.0909C67.8892 68.3608 68.0838 68.5682 68.3338 68.7131C68.5838 68.8551 68.8764 68.9261 69.2116 68.9261C69.4361 68.9261 69.6392 68.8949 69.821 68.8324C70.0028 68.767 70.1605 68.6719 70.294 68.5469C70.4276 68.4219 70.5284 68.267 70.5966 68.0824L72.0369 68.2443C71.946 68.625 71.7727 68.9574 71.517 69.2415C71.2642 69.5227 70.9403 69.7415 70.5455 69.8977C70.1506 70.0511 69.6989 70.1278 69.1903 70.1278Z" fill="white"/>
</g>
<defs>
<filter id="filter0_dd_221_332" x="0" y="0" width="94.4062" height="100" filterUnits="userSpaceOnUse" color-interpolation-filters="sRGB">
<feFlood flood-opacity="0" result="BackgroundImageFix"/>
<feColorMatrix in="SourceAlpha" type="matrix" values="0 0 0 0 0 0 0 0 0 0 0 0 0 0 0 0 0 0 127 0" result="hardAlpha"/>
<feOffset dy="4"/>
<feGaussianBlur stdDeviation="3"/>
<feColorMatrix type="matrix" values="0 0 0 0 0 0 0 0 0 0 0 0 0 0 0 0 0 0 0.1 0"/>
<feBlend mode="normal" in2="BackgroundImageFix" result="effect1_dropShadow_221_332"/>
<feColorMatrix in="SourceAlpha" type="matrix" values="0 0 0 0 0 0 0 0 0 0 0 0 0 0 0 0 0 0 127 0" result="hardAlpha"/>
<feOffset dy="2"/>
<feGaussianBlur stdDeviation="2"/>
<feColorMatrix type="matrix" values="0 0 0 0 0 0 0 0 0 0 0 0 0 0 0 0 0 0 0.1 0"/>
<feBlend mode="normal" in2="effect1_dropShadow_221_332" result="effect2_dropShadow_221_332"/>
<feBlend mode="normal" in="SourceGraphic" in2="effect2_dropShadow_221_332" result="shape"/>
</filter>
<linearGradient id="paint0_linear_221_332" x1="-23.135" y1="33.1127" x2="38.9564" y2="91.2573" gradientUnits="userSpaceOnUse">
<stop stop-color="#EF4444"/>
<stop offset="1" stop-color="#DC2626"/>
</linearGradient>
</defs>
</svg>
